<svg width="40" height="40" viewBox="0 0 40 40" fill="none" xmlns="http://www.w3.org/2000/svg">
<g clip-path="url(#clip0_39_2964)">
<path d="M37.2813 36.0625L27.3439 26.125C26.8985 25.6563 26.1486 25.6563 25.7032 26.1016C24.3204 27.4843 22.0938 27.4843 20.7111 26.125L13.8751 19.2363C12.5156 17.8534 12.5156 15.627 13.8985 14.2441C14.3438 13.7988 14.3438 13.0488 13.8751 12.6035L3.93757 2.66601C3.49226 2.19727 2.74226 2.19727 2.29695 2.66601C0.820393 4.11914 0.000160148 6.79101 0.000160148 10.1426C-0.0232773 15.8379 2.52359 24.5078 9.10952 31.0938C15.6954 37.6797 24.0861 40 29.7579 40C29.7579 40 29.7814 40 29.8049 40C33.1564 40 35.8283 39.1798 37.2814 37.7032C37.7501 37.2579 37.7501 36.5078 37.2813 36.0625Z" fill="#0D70B2"/>
<path d="M37.2813 36.0625C37.7501 36.5078 37.7501 37.2578 37.2813 37.7031C35.8282 39.1797 33.1563 39.9999 29.8048 39.9999C29.7813 39.9999 29.7578 39.9999 29.7578 39.9999C24.086 39.9999 15.6954 37.6796 9.10944 31.0937L17.4062 22.8202L20.711 26.1249C22.0937 27.4842 24.3203 27.4842 25.7032 26.1015C26.1485 25.6562 26.8985 25.6562 27.3438 26.1249L37.2813 36.0625Z" fill="#0059AA"/>
<path d="M15.5391 7.63477L8.90624 1.0019C7.59374 -0.333884 5.24999 -0.333884 3.91406 1.0019L2.29688 2.64252L13.8984 14.2441L15.539 12.6269V12.6034C16.9218 11.2441 16.9218 8.99422 15.5391 7.63477Z" fill="#17ACE8"/>
<path d="M38.9453 31.0938L32.3126 24.4609C31.0001 23.1249 28.6564 23.1249 27.3204 24.4609L25.7032 26.1015L37.3048 37.703L38.9453 36.0859C38.9453 36.0624 38.9453 36.0624 38.9453 36.0624C40.3282 34.7031 40.3282 32.453 38.9453 31.0938Z" fill="#1689FC"/>
<path d="M40 17.5782C40 19.1249 37.6563 19.1249 37.6563 17.5782C37.6563 13.3828 35.9454 9.56246 33.2032 6.79684C30.4375 4.05474 26.6173 2.34381 22.4219 2.34381C20.8751 2.34381 20.8751 6.10352e-05 22.4219 6.10352e-05C27.2735 6.10352e-05 31.6797 1.96873 34.8438 5.15622C38.0314 8.32036 40 12.7266 40 17.5782Z" fill="#1DE8F1"/>
<path d="M35.3125 17.5782C35.3125 19.125 32.9688 19.125 32.9688 17.5782C32.9688 14.6718 31.7735 12.0235 29.875 10.1249C27.9766 8.22646 25.3282 7.03131 22.4219 7.03131C20.8751 7.03131 20.8751 4.68756 22.4219 4.68756C25.9845 4.68756 29.1954 6.11725 31.5391 8.46099C33.8828 10.8047 35.3125 14.0156 35.3125 17.5782Z" fill="#1DE8F1"/>
<path d="M30.625 17.5782C30.625 19.125 28.2813 19.125 28.2813 17.5782C28.2813 15.961 27.6251 14.5079 26.5704 13.4297C25.4922 12.375 24.0391 11.7188 22.4219 11.7188C20.8751 11.7188 20.8751 9.37506 22.4219 9.37506C24.6954 9.37506 26.7345 10.289 28.2111 11.789C29.711 13.2656 30.625 15.3047 30.625 17.5782Z" fill="#1DE8F1"/>
<path d="M25.9376 17.5782C25.9376 19.125 23.5938 19.125 23.5938 17.5782C23.5938 17.2501 23.4766 16.9453 23.2423 16.7578C23.0547 16.5235 22.7501 16.4063 22.4219 16.4063C20.8751 16.4063 20.8751 14.0626 22.4219 14.0626C23.3829 14.0626 24.2736 14.4609 24.9063 15.0938C25.5392 15.7265 25.9376 16.6172 25.9376 17.5782Z" fill="#1DE8F1"/>
<path d="M23.5938 17.5782C23.5938 17.2501 23.4766 16.9453 23.2423 16.7578L24.9063 15.0938C25.5392 15.7265 25.9375 16.6172 25.9375 17.5782C25.9375 19.125 23.5938 19.125 23.5938 17.5782Z" fill="#1BD9DE"/>
<path d="M28.2813 17.5782C28.2813 15.961 27.6251 14.5079 26.5704 13.4297L28.2111 11.7891C29.711 13.2656 30.625 15.3047 30.625 17.5782C30.625 19.125 28.2813 19.125 28.2813 17.5782Z" fill="#1BD9DE"/>
<path d="M32.9688 17.5782C32.9688 14.6718 31.7735 12.0235 29.8751 10.1249L31.5392 8.46094C33.8829 10.8047 35.3126 14.0156 35.3126 17.5781C35.3126 19.125 32.9688 19.125 32.9688 17.5782Z" fill="#1BD9DE"/>
<path d="M40 17.5782C40 19.125 37.6563 19.125 37.6563 17.5782C37.6563 13.3828 35.9454 9.56249 33.2032 6.79687L34.8438 5.15625C38.0314 8.32038 40 12.7266 40 17.5782Z" fill="#1BD9DE"/>
</g>
<defs>
<clipPath id="clip0_39_2964">
<rect width="40" height="40" fill="white"/>
</clipPath>
</defs>
</svg>
