<svg width="50" height="37" viewBox="0 0 50 37" fill="none" xmlns="http://www.w3.org/2000/svg">
<path fill-rule="evenodd" clip-rule="evenodd" d="M49.7537 31.8353C49.7523 32.6742 49.4184 33.4784 48.8251 34.0716C48.2318 34.6648 47.4276 34.9987 46.5887 35H3.66521C2.82611 34.9991 2.02163 34.6654 1.42825 34.0721C0.83487 33.4788 0.501043 32.6744 0.5 31.8353V5.16488C0.501013 4.24413 1.59009 3.98861 2.34862 4.51054L24.3393 19.642C24.5703 19.8019 24.8446 19.8876 25.1255 19.8878C25.4065 19.888 25.6808 19.8027 25.9121 19.6432L47.926 4.51525C48.6766 3.99944 49.7528 4.25481 49.7537 5.16554V31.8353ZM46.5887 2H25.1269H3.66521C3.6457 2 3.63793 2.02764 3.654 2.0387L23.994 16.0357C24.6763 16.5053 25.5776 16.5057 26.2603 16.0366L46.6046 2.05843C46.6299 2.04105 46.6194 2 46.5887 2Z" fill="#FF9370"/>
<path fill-rule="evenodd" clip-rule="evenodd" d="M46.5887 2H25.1269H3.66521C3.6457 2 3.63793 2.02764 3.654 2.0387L23.994 16.0357C24.6763 16.5053 25.5776 16.5057 26.2603 16.0366L46.6046 2.05843C46.6299 2.04105 46.6194 2 46.5887 2Z" fill="#FF9370"/>
</svg>
