<svg width="253" height="60" viewBox="0 0 253 60" fill="none" xmlns="http://www.w3.org/2000/svg">
<g clip-path="url(#clip0_39_3351)">
<path d="M15.0804 1.98248C15.0804 2.01113 15.0061 2.03977 14.9089 2.03977C14.8174 2.03977 14.7374 2.06268 14.7374 2.09705C14.7374 2.1257 14.6345 2.15434 14.5087 2.15434C14.383 2.15434 14.2801 2.17725 14.2801 2.21162C14.2801 2.24027 14.2058 2.26891 14.1086 2.26891C14.0171 2.26891 13.9371 2.29182 13.9371 2.32619C13.9371 2.35484 13.8628 2.38348 13.7656 2.38348C13.6741 2.38348 13.5941 2.40639 13.5941 2.44077C13.5941 2.46941 13.5198 2.49805 13.4226 2.49805C13.3311 2.49805 13.2511 2.52097 13.2511 2.55534C13.2511 2.58398 13.1768 2.61262 13.0796 2.61262C12.9881 2.61262 12.9081 2.63554 12.9081 2.66991C12.9081 2.69855 12.8338 2.72719 12.7366 2.72719C12.6451 2.72719 12.5651 2.75011 12.5651 2.78448C12.5651 2.81312 12.4908 2.84176 12.3936 2.84176C12.3021 2.84176 12.2221 2.86468 12.2221 2.89905C12.2221 2.92769 12.1478 2.95634 12.0506 2.95634C11.9591 2.95634 11.8791 2.97925 11.8791 3.01362C11.8791 3.04226 11.8048 3.07091 11.7076 3.07091C11.6161 3.07091 11.5361 3.09382 11.5361 3.12819C11.5361 3.15683 11.4618 3.18548 11.3646 3.18548C11.2731 3.18548 11.1931 3.20839 11.1931 3.24276C11.1931 3.27141 11.0902 3.30005 10.9644 3.30005C10.8387 3.30005 10.7358 3.32296 10.7358 3.35733C10.7358 3.38598 10.6614 3.41462 10.5643 3.41462C10.4728 3.41462 10.3928 3.43753 10.3928 3.4719C10.3928 3.50055 10.3184 3.52919 10.2213 3.52919C10.1298 3.52919 10.0498 3.5521 10.0498 3.58648C10.0498 3.61512 9.97545 3.64376 9.87827 3.64376C9.7868 3.64376 9.70677 3.66668 9.70677 3.70105C9.70677 3.72969 9.63245 3.75833 9.53527 3.75833C9.4438 3.75833 9.36377 3.78125 9.36377 3.81562C9.36377 3.84426 9.28946 3.8729 9.19227 3.8729C9.10081 3.8729 9.02077 3.89582 9.02077 3.93019C9.02077 3.95883 8.94646 3.98747 8.84927 3.98747C8.75781 3.98747 8.67778 4.01039 8.67778 4.04476C8.67778 4.0734 8.60346 4.10205 8.50628 4.10205C8.41481 4.10205 8.33478 4.12496 8.33478 4.15933C8.33478 4.18797 8.26046 4.21662 8.16328 4.21662C8.07181 4.21662 7.99178 4.23953 7.99178 4.2739C7.99178 4.30254 7.91746 4.33119 7.82028 4.33119C7.72881 4.33119 7.64878 4.3541 7.64878 4.38847C7.64878 4.41711 7.54588 4.44576 7.42012 4.44576C7.29435 4.44576 7.19145 4.46867 7.19145 4.50304C7.19145 4.53168 7.11713 4.56033 7.01995 4.56033C6.92849 4.56033 6.84845 4.58324 6.84845 4.61761C6.84845 4.64626 6.77414 4.6749 6.67695 4.6749C6.58549 4.6749 6.50545 4.69781 6.50545 4.73218C6.50545 4.76083 6.43114 4.78947 6.33396 4.78947C6.24249 4.78947 6.16246 4.81238 6.16246 4.84676C6.16246 4.8754 6.08814 4.90404 5.99096 4.90404C5.89949 4.90404 5.81946 4.92695 5.81946 4.96133C5.81946 4.98997 5.74514 5.01861 5.64796 5.01861C5.55649 5.01861 5.47646 5.04152 5.47646 5.0759C5.47646 5.10454 5.40214 5.13318 5.30496 5.13318C5.2135 5.13318 5.13346 5.1561 5.13346 5.19047C5.13346 5.21911 5.05915 5.24775 4.96196 5.24775C4.8705 5.24775 4.79046 5.27067 4.79046 5.30504C4.79046 5.33368 4.71615 5.36232 4.61897 5.36232C4.5275 5.36232 4.44747 5.38524 4.44747 5.41961C4.44747 5.44825 4.34457 5.47689 4.2188 5.47689C4.09303 5.47689 3.99014 5.49981 3.99014 5.53418C3.99014 5.56282 3.91582 5.59147 3.81864 5.59147C3.72717 5.59147 3.64714 5.61438 3.64714 5.64875C3.64714 5.67739 3.57282 5.70604 3.47564 5.70604C3.38417 5.70604 3.30414 5.72895 3.30414 5.76332C3.30414 5.79197 3.22982 5.82061 3.13264 5.82061C3.04117 5.82061 2.96114 5.84352 2.96114 5.87789C2.96114 5.90654 2.88683 5.93518 2.78964 5.93518C2.69818 5.93518 2.61814 5.95809 2.61814 5.99246C2.61814 6.02111 2.54383 6.04975 2.44664 6.04975C2.31516 6.04975 2.27515 6.07266 2.27515 6.16432C2.27515 6.25598 2.31516 6.27889 2.44664 6.27889C2.54383 6.27889 2.61814 6.30181 2.61814 6.33618C2.61814 6.36482 2.69818 6.39346 2.78964 6.39346C2.88683 6.39346 2.96114 6.41638 2.96114 6.45075C2.96114 6.47939 3.04117 6.50803 3.13264 6.50803C3.22982 6.50803 3.30414 6.53095 3.30414 6.56532C3.30414 6.59396 3.38417 6.6226 3.47564 6.6226C3.57282 6.6226 3.64714 6.64552 3.64714 6.67989C3.64714 6.70853 3.72717 6.73717 3.81864 6.73717C3.91582 6.73717 3.99014 6.76009 3.99014 6.79446C3.99014 6.8231 4.07017 6.85175 4.16163 6.85175C4.25882 6.85175 4.33313 6.87466 4.33313 6.90903C4.33313 6.93767 4.38458 6.96632 4.44747 6.96632C4.51035 6.96632 4.5618 6.97777 4.5618 6.99496C4.5618 7.0637 4.27597 7.31003 4.20737 7.31003C4.16163 7.31003 4.09303 7.36159 4.0473 7.4246C4.00157 7.48761 3.93297 7.53917 3.89295 7.53917C3.79577 7.53917 2.96114 8.37554 2.96114 8.47292C2.96114 8.51302 2.90969 8.58177 2.84681 8.62759C2.78393 8.67342 2.73248 8.74789 2.73248 8.79945C2.73248 8.85101 2.68103 8.92548 2.61814 8.97131C2.55526 9.01714 2.50381 9.09734 2.50381 9.15462C2.50381 9.21191 2.48094 9.25773 2.44664 9.25773C2.41806 9.25773 2.38948 9.30929 2.38948 9.3723C2.38948 9.43532 2.36661 9.48688 2.33231 9.48688C2.30373 9.48688 2.27515 9.53843 2.27515 9.60145C2.27515 9.66446 2.25228 9.71602 2.21798 9.71602C2.1894 9.71602 2.16081 9.79049 2.16081 9.88787C2.16081 9.97953 2.13795 10.0597 2.10365 10.0597C2.07506 10.0597 2.04648 10.1628 2.04648 10.2889C2.04648 10.4149 2.02361 10.518 1.98931 10.518C1.95501 10.518 1.93215 10.6727 1.93215 10.8617C1.93215 11.0508 1.90928 11.2054 1.87498 11.2054C1.83496 11.2054 1.81781 12.1507 1.81781 13.9265V16.6533L1.6749 16.7908C1.60058 16.871 1.5034 16.934 1.46338 16.934C1.41765 16.934 1.34905 16.9855 1.30332 17.0486C1.25758 17.1116 1.18898 17.1631 1.14325 17.1631C1.10324 17.1631 1.00605 17.2261 0.926019 17.3063L0.777387 17.4553L0.897436 17.5584C0.966036 17.6157 1.01749 17.7016 1.01749 17.7417C1.01749 17.7875 1.06894 17.862 1.13182 17.9078C1.1947 17.9537 1.24615 18.0339 1.24615 18.0912C1.24615 18.1484 1.27473 18.1943 1.30332 18.1943C1.33762 18.1943 1.36048 18.3203 1.36048 18.4807C1.36048 18.6354 1.33762 18.7671 1.30332 18.7671C1.27473 18.7671 1.24615 18.8702 1.24615 18.9963C1.24615 19.1223 1.22328 19.2254 1.18898 19.2254C1.1604 19.2254 1.13182 19.277 1.13182 19.34C1.13182 19.403 1.10895 19.4545 1.07465 19.4545C1.04607 19.4545 1.01749 19.529 1.01749 19.6264C1.01749 19.7181 0.994619 19.7983 0.960319 19.7983C0.931736 19.7983 0.903153 19.8441 0.903153 19.9014C0.903153 19.9587 0.851703 20.0389 0.78882 20.0847C0.725937 20.1305 0.674487 20.2107 0.674487 20.268C0.674487 20.3253 0.651621 20.3711 0.617321 20.3711C0.588738 20.3711 0.560155 20.4169 0.560155 20.4742C0.560155 20.5315 0.508705 20.6117 0.445822 20.6575C0.382939 20.7034 0.331489 20.7778 0.331489 20.8294C0.331489 20.881 0.28004 20.9554 0.217157 21.0013C0.154274 21.0471 0.102824 21.1273 0.102824 21.1788C0.102824 21.2361 0.0685243 21.2877 0.0342245 21.2991C-0.0172253 21.3163 -0.0115086 21.3507 0.057091 21.4194C0.119974 21.4882 0.251457 21.5168 0.468689 21.5168C0.645904 21.5168 0.78882 21.5397 0.78882 21.5741C0.78882 21.6085 1.0918 21.6314 1.58915 21.6314C2.0865 21.6314 2.38948 21.6085 2.38948 21.5741C2.38948 21.5397 2.44093 21.5168 2.50381 21.5168C2.57813 21.5168 2.61814 21.4767 2.61814 21.4022C2.61814 21.3392 2.64673 21.2877 2.67531 21.2877C2.70961 21.2877 2.73248 21.2075 2.73248 21.1158C2.73248 21.0184 2.76106 20.944 2.78964 20.944C2.82394 20.944 2.84681 20.8409 2.84681 20.7148C2.84681 20.5888 2.87539 20.4857 2.90398 20.4857C2.93827 20.4857 2.96114 20.3138 2.96114 20.0847C2.96114 19.8555 2.93827 19.6837 2.90398 19.6837C2.87539 19.6837 2.84681 19.5519 2.84681 19.3973C2.84681 19.2369 2.82394 19.1108 2.78964 19.1108C2.76106 19.1108 2.73248 19.0306 2.73248 18.939C2.73248 18.8416 2.70961 18.7671 2.67531 18.7671C2.64673 18.7671 2.61814 18.7156 2.61814 18.6583C2.61814 18.5953 2.58384 18.538 2.54954 18.5265C2.45808 18.4921 2.62958 18.3088 2.74391 18.3088C2.78964 18.3088 2.85824 18.2573 2.90398 18.1943C2.94971 18.1313 3.01831 18.0797 3.06404 18.0797C3.10406 18.0797 3.17837 18.0453 3.22411 17.9995C3.31557 17.9021 3.33272 17.736 3.24697 17.736C3.21839 17.736 3.18981 17.6959 3.18981 17.6443C3.18981 17.5928 3.10977 17.4782 3.01831 17.3923C2.92112 17.3063 2.84681 17.1918 2.84681 17.1402C2.84681 17.0887 2.82394 17.0486 2.78964 17.0486C2.74963 17.0486 2.73248 16.0346 2.73248 14.127C2.73248 12.2194 2.74963 11.2054 2.78964 11.2054C2.82394 11.2054 2.84681 11.0508 2.84681 10.8617C2.84681 10.6727 2.86968 10.518 2.90398 10.518C2.93827 10.518 2.96114 10.4378 2.96114 10.3462C2.96114 10.2488 2.98972 10.1743 3.01831 10.1743C3.05261 10.1743 3.07547 10.0941 3.07547 10.0024C3.07547 9.90506 3.10406 9.83059 3.13264 9.83059C3.16694 9.83059 3.18981 9.77903 3.18981 9.71602C3.18981 9.653 3.21839 9.60145 3.24697 9.60145C3.28127 9.60145 3.30414 9.55562 3.30414 9.49833C3.30414 9.44105 3.35559 9.36085 3.41847 9.31502C3.48135 9.26919 3.5328 9.19472 3.5328 9.14316C3.5328 9.09161 3.58425 9.01714 3.64714 8.97131C3.71002 8.92548 3.76147 8.85674 3.76147 8.81664C3.76147 8.71925 4.48177 7.99746 4.57895 7.99746C4.61897 7.99746 4.68756 7.9459 4.7333 7.88288C4.77903 7.81987 4.85906 7.76831 4.91623 7.76831C4.9734 7.76831 5.01913 7.73967 5.01913 7.71103C5.01913 7.67666 5.07058 7.65374 5.13346 7.65374C5.19635 7.65374 5.2478 7.6251 5.2478 7.59646C5.2478 7.56209 5.29924 7.53917 5.36213 7.53917C5.42501 7.53917 5.47646 7.51053 5.47646 7.48189C5.47646 7.44751 5.55649 7.4246 5.64796 7.4246C5.74514 7.4246 5.81946 7.39596 5.81946 7.36732C5.81946 7.33294 5.97381 7.31003 6.16246 7.31003C6.35111 7.31003 6.50545 7.28712 6.50545 7.25274C6.50545 7.21837 6.67695 7.19546 6.90562 7.19546C7.13428 7.19546 7.30578 7.17254 7.30578 7.13817C7.30578 7.1038 7.46013 7.08089 7.64878 7.08089C7.83743 7.08089 7.99178 7.05797 7.99178 7.0236C7.99178 6.98923 8.14613 6.96632 8.33478 6.96632C8.52343 6.96632 8.67778 6.9434 8.67778 6.90903C8.67778 6.87466 8.83212 6.85175 9.02077 6.85175C9.20942 6.85175 9.36377 6.82883 9.36377 6.79446C9.36377 6.76009 9.53527 6.73717 9.76394 6.73717C9.9926 6.73717 10.1641 6.71426 10.1641 6.67989C10.1641 6.64552 10.3184 6.6226 10.5071 6.6226C10.6957 6.6226 10.8501 6.59969 10.8501 6.56532C10.8501 6.53095 11.0044 6.50803 11.1931 6.50803C11.3817 6.50803 11.5361 6.48512 11.5361 6.45075C11.5361 6.41638 11.6904 6.39346 11.8791 6.39346C12.0677 6.39346 12.2221 6.37055 12.2221 6.33618C12.2221 6.30181 12.3936 6.27889 12.6223 6.27889C12.8509 6.27889 13.0224 6.25598 13.0224 6.22161C13.0224 6.18723 13.1768 6.16432 13.3654 6.16432C13.5541 6.16432 13.7084 6.14141 13.7084 6.10703C13.7084 6.07266 13.8399 6.04975 13.9942 6.04975C14.2629 6.04975 14.2801 6.03829 14.2801 5.90654C14.2801 5.71177 14.6288 5.36232 14.8232 5.36232C14.9032 5.36232 14.9661 5.33368 14.9661 5.30504C14.9661 5.27067 15.0461 5.24775 15.1376 5.24775C15.2348 5.24775 15.3091 5.27067 15.3091 5.30504C15.3091 5.33368 15.372 5.36232 15.452 5.36232C15.6178 5.36232 15.8807 5.59147 15.8807 5.73468C15.8807 5.78051 15.9093 5.82061 15.9379 5.82061C15.9722 5.82061 15.9951 5.98101 15.9951 6.19296C15.9951 6.54813 15.9836 6.5825 15.795 6.76582C15.6864 6.87466 15.5606 6.96632 15.5092 6.96632C15.4634 6.96632 15.4234 6.98923 15.4234 7.0236C15.4234 7.05224 15.2976 7.08089 15.1376 7.08089C14.9832 7.08089 14.8517 7.05224 14.8517 7.0236C14.8517 6.98923 14.806 6.96632 14.7488 6.96632C14.6917 6.96632 14.6116 6.91476 14.5659 6.85175C14.4973 6.75436 14.4173 6.73717 14.0971 6.73717C13.8742 6.73717 13.7084 6.76009 13.7084 6.79446C13.7084 6.82883 13.5541 6.85175 13.3654 6.85175C13.1768 6.85175 13.0224 6.87466 13.0224 6.90903C13.0224 6.9434 12.8681 6.96632 12.6794 6.96632C12.4908 6.96632 12.3364 6.98923 12.3364 7.0236C12.3364 7.05797 12.1821 7.08089 11.9934 7.08089C11.8048 7.08089 11.6504 7.1038 11.6504 7.13817C11.6504 7.17254 11.4961 7.19546 11.3074 7.19546C11.1188 7.19546 10.9644 7.21837 10.9644 7.25274C10.9644 7.28712 10.8101 7.31003 10.6214 7.31003C10.4328 7.31003 10.2784 7.33294 10.2784 7.36732C10.2784 7.40169 10.1241 7.4246 9.93544 7.4246C9.74679 7.4246 9.59244 7.44751 9.59244 7.48189C9.59244 7.51626 9.43809 7.53917 9.24944 7.53917C9.06079 7.53917 8.90644 7.56209 8.90644 7.59646C8.90644 7.63083 8.75209 7.65374 8.56344 7.65374C8.37479 7.65374 8.22044 7.67666 8.22044 7.71103C8.22044 7.7454 8.0661 7.76831 7.87745 7.76831C7.57447 7.76831 7.53445 7.77977 7.53445 7.88288C7.53445 7.97454 7.57447 7.99746 7.70595 7.99746C7.80313 7.99746 7.87745 8.02037 7.87745 8.05474C7.87745 8.08338 7.95748 8.11203 8.04895 8.11203C8.14613 8.11203 8.22044 8.13494 8.22044 8.16931C8.22044 8.19795 8.30048 8.2266 8.39194 8.2266C8.48913 8.2266 8.56344 8.24951 8.56344 8.28388C8.56344 8.31252 8.66634 8.34117 8.79211 8.34117C8.91787 8.34117 9.02077 8.36408 9.02077 8.39845C9.02077 8.4271 9.10081 8.45574 9.19227 8.45574C9.28946 8.45574 9.36377 8.47865 9.36377 8.51302C9.36377 8.54167 9.4438 8.57031 9.53527 8.57031C9.63245 8.57031 9.70677 8.59322 9.70677 8.62759C9.70677 8.65624 9.7868 8.68488 9.87827 8.68488C9.97545 8.68488 10.0498 8.70779 10.0498 8.74216C10.0498 8.77081 10.1298 8.79945 10.2213 8.79945C10.3184 8.79945 10.3928 8.82236 10.3928 8.85674C10.3928 8.88538 10.4728 8.91402 10.5643 8.91402C10.6614 8.91402 10.7358 8.93694 10.7358 8.97131C10.7358 8.99995 10.8158 9.02859 10.9073 9.02859C11.0044 9.02859 11.0788 9.05151 11.0788 9.08588C11.0788 9.11452 11.1588 9.14316 11.2503 9.14316C11.3474 9.14316 11.4218 9.16608 11.4218 9.20045C11.4218 9.22909 11.5018 9.25773 11.5933 9.25773C11.6904 9.25773 11.7648 9.28065 11.7648 9.31502C11.7648 9.34366 11.8448 9.3723 11.9363 9.3723C12.0334 9.3723 12.1078 9.39522 12.1078 9.42959C12.1078 9.45823 12.2107 9.48688 12.3364 9.48688C12.4622 9.48688 12.5651 9.50979 12.5651 9.54416C12.5651 9.57281 12.6451 9.60145 12.7366 9.60145C12.8338 9.60145 12.9081 9.62436 12.9081 9.65873C12.9081 9.68738 12.9881 9.71602 13.0796 9.71602C13.1768 9.71602 13.2511 9.73893 13.2511 9.7733C13.2511 9.80195 13.3311 9.83059 13.4226 9.83059C13.5198 9.83059 13.5941 9.8535 13.5941 9.88787C13.5941 9.91652 13.6741 9.94516 13.7656 9.94516C13.8628 9.94516 13.9371 9.96807 13.9371 10.0024C13.9371 10.0311 13.9885 10.0597 14.0514 10.0597C14.1143 10.0597 14.1657 10.0826 14.1657 10.117C14.1657 10.1457 14.0914 10.1743 13.9942 10.1743C13.9028 10.1743 13.8227 10.1457 13.8227 10.117C13.8227 10.0826 13.7198 10.0597 13.5941 10.0597C13.4683 10.0597 13.3654 10.0311 13.3654 10.0024C13.3654 9.96807 13.2625 9.94516 13.1368 9.94516C13.011 9.94516 12.9081 9.91652 12.9081 9.88787C12.9081 9.8535 12.7823 9.83059 12.6223 9.83059C12.4679 9.83059 12.3364 9.80195 12.3364 9.7733C12.3364 9.73893 12.2335 9.71602 12.1078 9.71602C11.982 9.71602 11.8791 9.68738 11.8791 9.65873C11.8791 9.62436 11.7762 9.60145 11.6504 9.60145C11.5247 9.60145 11.4218 9.57281 11.4218 9.54416C11.4218 9.50979 11.296 9.48688 11.1359 9.48688C10.9816 9.48688 10.8501 9.45823 10.8501 9.42959C10.8501 9.39522 10.7472 9.3723 10.6214 9.3723C10.4957 9.3723 10.3928 9.34366 10.3928 9.31502C10.3928 9.28065 10.2899 9.25773 10.1641 9.25773C10.0383 9.25773 9.93544 9.22909 9.93544 9.20045C9.93544 9.16608 9.80967 9.14316 9.6496 9.14316C9.49525 9.14316 9.36377 9.11452 9.36377 9.08588C9.36377 9.05151 9.26087 9.02859 9.13511 9.02859C9.00934 9.02859 8.90644 8.99995 8.90644 8.97131C8.90644 8.93694 8.80354 8.91402 8.67778 8.91402C8.55201 8.91402 8.44911 8.88538 8.44911 8.85674C8.44911 8.82236 8.32334 8.79945 8.16328 8.79945C8.00893 8.79945 7.87745 8.77081 7.87745 8.74216C7.87745 8.70779 7.77455 8.68488 7.64878 8.68488C7.52302 8.68488 7.42012 8.65624 7.42012 8.62759C7.42012 8.59322 7.36867 8.57031 7.30578 8.57031C7.19145 8.57031 7.19145 8.61041 7.19145 11.1367C7.19145 13.6343 7.18573 13.7031 7.07712 13.7833C7.01424 13.8291 6.96279 13.9036 6.96279 13.9551C6.96279 14.0067 6.91134 14.0812 6.84845 14.127C6.78557 14.1728 6.73412 14.2473 6.73412 14.2989C6.73412 14.3504 6.68267 14.4249 6.61979 14.4707C6.5569 14.5165 6.50545 14.591 6.50545 14.6426C6.50545 14.6941 6.454 14.7686 6.39112 14.8144C6.32824 14.8603 6.27679 14.9405 6.27679 14.9977C6.27679 15.055 6.25392 15.1009 6.21962 15.1009C6.19104 15.1009 6.16246 15.1524 6.16246 15.2154C6.16246 15.2784 6.13959 15.33 6.10529 15.33C6.07671 15.33 6.04812 15.3815 6.04812 15.4446C6.04812 15.5076 6.02526 15.5591 5.99096 15.5591C5.96237 15.5591 5.93379 15.6107 5.93379 15.6737C5.93379 15.7367 5.91092 15.7883 5.87663 15.7883C5.84804 15.7883 5.81946 15.8627 5.81946 15.9601C5.81946 16.0518 5.79659 16.132 5.76229 16.132C5.73371 16.132 5.70513 16.1835 5.70513 16.2466C5.70513 16.3096 5.68226 16.3611 5.64796 16.3611C5.61938 16.3611 5.59079 16.4356 5.59079 16.533C5.59079 16.6246 5.56793 16.7048 5.53363 16.7048C5.50504 16.7048 5.47646 16.7793 5.47646 16.8767C5.47646 16.9684 5.45359 17.0486 5.41929 17.0486C5.39071 17.0486 5.36213 17.1517 5.36213 17.2777C5.36213 17.4037 5.33926 17.5068 5.30496 17.5068C5.27638 17.5068 5.2478 17.61 5.2478 17.736C5.2478 17.862 5.22493 17.9651 5.19063 17.9651C5.15633 17.9651 5.13346 18.137 5.13346 18.3661C5.13346 18.5953 5.1106 18.7671 5.0763 18.7671C5.042 18.7671 5.01913 19.2082 5.01913 19.9701C5.01913 20.732 5.042 21.1731 5.0763 21.1731C5.1106 21.1731 5.13346 21.3278 5.13346 21.5168C5.13346 21.7059 5.15633 21.8605 5.19063 21.8605C5.22493 21.8605 5.2478 21.9866 5.2478 22.147C5.2478 22.3016 5.27638 22.4334 5.30496 22.4334C5.33926 22.4334 5.36213 22.5365 5.36213 22.6625C5.36213 22.7886 5.39071 22.8917 5.41929 22.8917C5.45359 22.8917 5.47646 22.9661 5.47646 23.0635C5.47646 23.1552 5.50504 23.2354 5.53363 23.2354C5.56793 23.2354 5.59079 23.3099 5.59079 23.4072C5.59079 23.4989 5.61938 23.5791 5.64796 23.5791C5.68226 23.5791 5.70513 23.6307 5.70513 23.6937C5.70513 23.7567 5.73371 23.8082 5.76229 23.8082C5.79659 23.8082 5.81946 23.8827 5.81946 23.9801C5.81946 24.0718 5.84804 24.152 5.87663 24.152C5.91092 24.152 5.93379 24.2035 5.93379 24.2665C5.93379 24.3295 5.96237 24.3811 5.99096 24.3811C6.02526 24.3811 6.04812 24.4326 6.04812 24.4957C6.04812 24.5587 6.07671 24.6102 6.10529 24.6102C6.13959 24.6102 6.16246 24.6561 6.16246 24.7133C6.16246 24.7706 6.21391 24.8508 6.27679 24.8967C6.33967 24.9425 6.39112 25.0227 6.39112 25.08C6.39112 25.1373 6.4197 25.1831 6.44829 25.1831C6.48259 25.1831 6.50545 25.2289 6.50545 25.2862C6.50545 25.3435 6.5569 25.4237 6.61979 25.4695C6.68267 25.5153 6.73412 25.5898 6.73412 25.6299C6.73412 25.6757 6.80844 25.7846 6.90562 25.8705C6.99709 25.9564 7.07712 26.0596 7.07712 26.0997C7.07712 26.134 7.18002 26.2658 7.30578 26.3861C7.43155 26.5064 7.53445 26.6324 7.53445 26.6668C7.53445 26.7527 8.36908 27.5891 8.45483 27.5891C8.48913 27.5891 8.61489 27.6922 8.73494 27.8182C8.85499 27.9442 8.98647 28.0474 9.02077 28.0474C9.06079 28.0474 9.16369 28.1218 9.24944 28.2192C9.33519 28.3109 9.4438 28.3911 9.48954 28.3911C9.52955 28.3911 9.60387 28.4426 9.6496 28.5056C9.69534 28.5687 9.77537 28.6202 9.83254 28.6202C9.8897 28.6202 9.93544 28.6431 9.93544 28.6775C9.93544 28.7061 9.98689 28.7348 10.0498 28.7348C10.1127 28.7348 10.1641 28.7577 10.1641 28.7921C10.1641 28.8207 10.1927 28.8494 10.2213 28.8494C10.2556 28.8494 10.2784 28.7978 10.2784 28.7348C10.2784 28.6718 10.307 28.6202 10.3356 28.6202C10.3699 28.6202 10.3928 28.54 10.3928 28.4484C10.3928 28.351 10.4213 28.2765 10.4499 28.2765C10.4842 28.2765 10.5071 28.2249 10.5071 28.1619C10.5071 28.0989 10.5357 28.0474 10.5643 28.0474C10.5986 28.0474 10.6214 27.9958 10.6214 27.9328C10.6214 27.8698 10.65 27.8182 10.6786 27.8182C10.7129 27.8182 10.7358 27.738 10.7358 27.6464C10.7358 27.549 10.7643 27.4745 10.7929 27.4745C10.8272 27.4745 10.8501 27.4229 10.8501 27.3599C10.8501 27.2969 10.8787 27.2454 10.9073 27.2454C10.9416 27.2454 10.9644 27.1938 10.9644 27.1308C10.9644 27.0678 10.993 27.0162 11.0216 27.0162C11.0559 27.0162 11.0788 26.936 11.0788 26.8444C11.0788 26.747 11.1073 26.6725 11.1359 26.6725C11.1702 26.6725 11.1931 26.621 11.1931 26.5579C11.1931 26.4949 11.2217 26.4434 11.2503 26.4434C11.2846 26.4434 11.3074 26.3918 11.3074 26.3288C11.3074 26.2658 11.336 26.2142 11.3646 26.2142C11.3989 26.2142 11.4218 26.134 11.4218 26.0424C11.4218 25.945 11.4503 25.8705 11.4789 25.8705C11.5132 25.8705 11.5361 25.819 11.5361 25.7559C11.5361 25.6929 11.5647 25.6414 11.5933 25.6414C11.6276 25.6414 11.6504 25.5898 11.6504 25.5268C11.6504 25.4638 11.679 25.4122 11.7076 25.4122C11.7419 25.4122 11.7648 25.332 11.7648 25.2404C11.7648 25.143 11.7933 25.0685 11.8219 25.0685C11.8562 25.0685 11.8791 25.017 11.8791 24.9539C11.8791 24.8909 11.9077 24.8394 11.9363 24.8394C11.9706 24.8394 11.9934 24.7878 11.9934 24.7248C11.9934 24.6618 12.022 24.6102 12.0506 24.6102C12.0849 24.6102 12.1078 24.53 12.1078 24.4384C12.1078 24.341 12.1363 24.2665 12.1649 24.2665C12.1992 24.2665 12.2221 24.215 12.2221 24.152C12.2221 24.0889 12.2507 24.0374 12.2793 24.0374C12.3136 24.0374 12.3364 23.9858 12.3364 23.9228C12.3364 23.8598 12.365 23.8082 12.3936 23.8082C12.4279 23.8082 12.4508 23.728 12.4508 23.6364C12.4508 23.539 12.4793 23.4645 12.5079 23.4645C12.5422 23.4645 12.5651 23.413 12.5651 23.35C12.5651 23.2869 12.5937 23.2354 12.6223 23.2354C12.6566 23.2354 12.6794 23.1838 12.6794 23.1208C12.6794 23.0578 12.708 23.0062 12.7366 23.0062C12.7709 23.0062 12.7938 22.926 12.7938 22.8344C12.7938 22.737 12.8223 22.6625 12.8509 22.6625C12.8852 22.6625 12.9081 22.611 12.9081 22.548C12.9081 22.4849 12.9367 22.4334 12.9653 22.4334C12.9996 22.4334 13.0224 22.3818 13.0224 22.3188C13.0224 22.2558 13.051 22.2042 13.0796 22.2042C13.1139 22.2042 13.1368 22.124 13.1368 22.0324C13.1368 21.935 13.1653 21.8605 13.1939 21.8605C13.2282 21.8605 13.2511 21.809 13.2511 21.746C13.2511 21.6829 13.2797 21.6314 13.3082 21.6314C13.3425 21.6314 13.3654 21.5798 13.3654 21.5168C13.3654 21.4538 13.394 21.4022 13.4226 21.4022C13.4569 21.4022 13.4797 21.322 13.4797 21.2304C13.4797 21.133 13.5083 21.0585 13.5369 21.0585C13.5712 21.0585 13.5941 21.007 13.5941 20.944C13.5941 20.881 13.6227 20.8294 13.6512 20.8294C13.6855 20.8294 13.7084 20.7778 13.7084 20.7148C13.7084 20.6518 13.737 20.6003 13.7656 20.6003C13.7999 20.6003 13.8227 20.5201 13.8227 20.4284C13.8227 20.331 13.8513 20.2565 13.8799 20.2565C13.9142 20.2565 13.9371 20.205 13.9371 20.142C13.9371 20.079 13.9657 20.0274 13.9942 20.0274C14.0285 20.0274 14.0514 19.9758 14.0514 19.9128C14.0514 19.8498 14.08 19.7983 14.1086 19.7983C14.1429 19.7983 14.1657 19.7181 14.1657 19.6264C14.1657 19.529 14.1943 19.4545 14.2229 19.4545C14.2572 19.4545 14.2801 19.403 14.2801 19.34C14.2801 19.277 14.3087 19.2254 14.3372 19.2254C14.3715 19.2254 14.3944 19.1738 14.3944 19.1108C14.3944 19.0478 14.423 18.9963 14.4516 18.9963C14.4859 18.9963 14.5087 18.9161 14.5087 18.8244C14.5087 18.727 14.5373 18.6525 14.5659 18.6525C14.6002 18.6525 14.6231 18.601 14.6231 18.538C14.6231 18.475 14.6517 18.4234 14.6802 18.4234C14.7145 18.4234 14.7374 18.3718 14.7374 18.3088C14.7374 18.2458 14.766 18.1943 14.7946 18.1943C14.8289 18.1943 14.8517 18.1141 14.8517 18.0224C14.8517 17.925 14.8803 17.8506 14.9089 17.8506C14.9432 17.8506 14.9661 17.799 14.9661 17.736C14.9661 17.673 14.9947 17.6214 15.0232 17.6214C15.0575 17.6214 15.0804 17.5699 15.0804 17.5068C15.0804 17.4438 15.109 17.3923 15.1376 17.3923C15.1719 17.3923 15.1947 17.3121 15.1947 17.2204C15.1947 17.123 15.2233 17.0486 15.2519 17.0486C15.2862 17.0486 15.3091 16.997 15.3091 16.934C15.3091 16.871 15.3377 16.8194 15.3662 16.8194C15.4005 16.8194 15.4234 16.7679 15.4234 16.7048C15.4234 16.6418 15.452 16.5903 15.4806 16.5903C15.5149 16.5903 15.5377 16.5158 15.5377 16.4241C15.5377 16.3325 15.572 16.2466 15.6121 16.2294C15.6464 16.2179 15.6635 16.1835 15.6406 16.1606C15.5892 16.1033 15.4234 16.2695 15.4234 16.384C15.4234 16.4356 15.4005 16.4757 15.3662 16.4757C15.3377 16.4757 15.3091 16.5215 15.3091 16.5788C15.3091 16.6361 15.2576 16.7163 15.1947 16.7621C15.1319 16.808 15.0804 16.8824 15.0804 16.934C15.0804 16.9855 15.029 17.06 14.9661 17.1058C14.9032 17.1517 14.8517 17.2319 14.8517 17.2892C14.8517 17.3464 14.8289 17.3923 14.7946 17.3923C14.766 17.3923 14.7374 17.4381 14.7374 17.4954C14.7374 17.5527 14.686 17.6329 14.6231 17.6787C14.5602 17.7245 14.5087 17.799 14.5087 17.8506C14.5087 17.9021 14.4573 17.9766 14.3944 18.0224C14.3315 18.0682 14.2801 18.1484 14.2801 18.2057C14.2801 18.263 14.2572 18.3088 14.2229 18.3088C14.1943 18.3088 14.1657 18.3547 14.1657 18.4119C14.1657 18.4692 14.1143 18.5494 14.0514 18.5953C13.9885 18.6411 13.9371 18.7156 13.9371 18.7671C13.9371 18.8187 13.8856 18.8931 13.8227 18.939C13.7599 18.9848 13.7084 19.065 13.7084 19.1223C13.7084 19.1796 13.6855 19.2254 13.6512 19.2254C13.6227 19.2254 13.5941 19.2712 13.5941 19.3285C13.5941 19.3858 13.5426 19.466 13.4797 19.5118C13.4169 19.5577 13.3654 19.6321 13.3654 19.6837C13.3654 19.7352 13.314 19.8097 13.2511 19.8555C13.1882 19.9014 13.1368 19.9816 13.1368 20.0389C13.1368 20.0961 13.1139 20.142 13.0796 20.142C13.051 20.142 13.0224 20.1878 13.0224 20.2451C13.0224 20.3024 12.971 20.3826 12.9081 20.4284C12.8452 20.4742 12.7938 20.5487 12.7938 20.6003C12.7938 20.6518 12.7423 20.7263 12.6794 20.7721C12.6165 20.8179 12.5651 20.8981 12.5651 20.9554C12.5651 21.0127 12.5422 21.0585 12.5079 21.0585C12.4793 21.0585 12.4508 21.1044 12.4508 21.1617C12.4508 21.2189 12.3993 21.2991 12.3364 21.345C12.2735 21.3908 12.2221 21.4653 12.2221 21.5168C12.2221 21.5684 12.1706 21.6428 12.1078 21.6887C12.0449 21.7345 11.9934 21.8147 11.9934 21.872C11.9934 21.9293 11.9706 21.9751 11.9363 21.9751C11.9077 21.9751 11.8791 22.0209 11.8791 22.0782C11.8791 22.1355 11.8276 22.2157 11.7648 22.2615C11.7019 22.3074 11.6504 22.3818 11.6504 22.4334C11.6504 22.4849 11.599 22.5594 11.5361 22.6052C11.4732 22.6511 11.4218 22.7313 11.4218 22.7886C11.4218 22.8458 11.3989 22.8917 11.3646 22.8917C11.336 22.8917 11.3074 22.9375 11.3074 22.9948C11.3074 23.0521 11.256 23.1323 11.1931 23.1781C11.1302 23.2239 11.0788 23.2984 11.0788 23.35C11.0788 23.4015 11.0273 23.476 10.9644 23.5218C10.9015 23.5676 10.8501 23.6478 10.8501 23.7051C10.8501 23.7624 10.8272 23.8082 10.7929 23.8082C10.7643 23.8082 10.7358 23.8541 10.7358 23.9114C10.7358 23.9686 10.6843 24.0488 10.6214 24.0947C10.5585 24.1405 10.5071 24.215 10.5071 24.2665C10.5071 24.3181 10.4556 24.3925 10.3928 24.4384C10.3299 24.4842 10.2784 24.5644 10.2784 24.6217C10.2784 24.679 10.2556 24.7248 10.2213 24.7248C10.1927 24.7248 10.1641 24.7706 10.1641 24.8279C10.1641 24.8852 10.1127 24.9654 10.0498 25.0112C9.98689 25.0571 9.93544 25.1315 9.93544 25.1831C9.93544 25.2346 9.88399 25.3091 9.8211 25.3549C9.75822 25.4008 9.70677 25.481 9.70677 25.5383C9.70677 25.5955 9.6839 25.6414 9.6496 25.6414C9.62102 25.6414 9.59244 25.6815 9.59244 25.733C9.59244 25.8361 9.46095 25.9851 9.36949 25.9851C9.27802 25.9851 8.56344 25.2576 8.56344 25.1659C8.56344 25.1258 8.51199 25.0571 8.44911 25.0112C8.38623 24.9654 8.33478 24.8909 8.33478 24.8394C8.33478 24.7878 8.28333 24.7133 8.22044 24.6675C8.15756 24.6217 8.10611 24.5472 8.10611 24.4957C8.10611 24.4441 8.05466 24.3696 7.99178 24.3238C7.9289 24.278 7.87745 24.1978 7.87745 24.1405C7.87745 24.0832 7.85458 24.0374 7.82028 24.0374C7.7917 24.0374 7.76311 23.9858 7.76311 23.9228C7.76311 23.8598 7.74025 23.8082 7.70595 23.8082C7.67736 23.8082 7.64878 23.7567 7.64878 23.6937C7.64878 23.6307 7.62592 23.5791 7.59162 23.5791C7.56303 23.5791 7.53445 23.5275 7.53445 23.4645C7.53445 23.4015 7.51158 23.35 7.47728 23.35C7.4487 23.35 7.42012 23.2984 7.42012 23.2354C7.42012 23.1724 7.39725 23.1208 7.36295 23.1208C7.33437 23.1208 7.30578 23.0406 7.30578 22.949C7.30578 22.8516 7.28292 22.7771 7.24862 22.7771C7.22003 22.7771 7.19145 22.6969 7.19145 22.6052C7.19145 22.5079 7.16858 22.4334 7.13428 22.4334C7.1057 22.4334 7.07712 22.3303 7.07712 22.2042C7.07712 22.0782 7.05425 21.9751 7.01995 21.9751C6.99137 21.9751 6.96279 21.872 6.96279 21.746C6.96279 21.6199 6.93992 21.5168 6.90562 21.5168C6.87132 21.5168 6.84845 21.345 6.84845 21.1158C6.84845 20.8867 6.82559 20.7148 6.79129 20.7148C6.75699 20.7148 6.73412 20.4284 6.73412 19.9701C6.73412 19.5118 6.75699 19.2254 6.79129 19.2254C6.82559 19.2254 6.84845 19.0535 6.84845 18.8244C6.84845 18.5953 6.87132 18.4234 6.90562 18.4234C6.93992 18.4234 6.96279 18.2916 6.96279 18.137C6.96279 17.9766 6.99137 17.8506 7.01995 17.8506C7.05425 17.8506 7.07712 17.7474 7.07712 17.6214C7.07712 17.4954 7.1057 17.3923 7.13428 17.3923C7.16858 17.3923 7.19145 17.3121 7.19145 17.2204C7.19145 17.123 7.22003 17.0486 7.24862 17.0486C7.28292 17.0486 7.30578 16.997 7.30578 16.934C7.30578 16.871 7.33437 16.8194 7.36295 16.8194C7.39725 16.8194 7.42012 16.7392 7.42012 16.6476C7.42012 16.5502 7.4487 16.4757 7.47728 16.4757C7.51158 16.4757 7.53445 16.4241 7.53445 16.3611C7.53445 16.2981 7.56303 16.2466 7.59162 16.2466C7.62592 16.2466 7.64878 16.195 7.64878 16.132C7.64878 16.069 7.67736 16.0174 7.70595 16.0174C7.74025 16.0174 7.76311 15.9716 7.76311 15.9143C7.76311 15.857 7.81456 15.7768 7.87745 15.731C7.94033 15.6852 7.99178 15.605 7.99178 15.5477C7.99178 15.4904 8.02036 15.4446 8.04895 15.4446C8.08325 15.4446 8.10611 15.4045 8.10611 15.3529C8.10611 15.3013 8.18614 15.1868 8.27761 15.1009C8.37479 15.0149 8.44911 14.9118 8.44911 14.8717C8.44911 14.8373 8.58059 14.6827 8.73494 14.528C8.89501 14.3733 9.02077 14.2187 9.02077 14.1843C9.02077 14.1041 9.39807 13.726 9.4781 13.726C9.5124 13.726 9.66675 13.5942 9.8211 13.4396C9.97545 13.2792 10.1355 13.1531 10.1755 13.1531C10.2213 13.1531 10.2899 13.1016 10.3356 13.0386C10.3813 12.9756 10.4556 12.924 10.5071 12.924C10.5585 12.924 10.6329 12.8724 10.6786 12.8094C10.7243 12.7464 10.8044 12.6949 10.8615 12.6949C10.9187 12.6949 10.9644 12.6662 10.9644 12.6376C10.9644 12.6032 11.0159 12.5803 11.0788 12.5803C11.1416 12.5803 11.1931 12.5516 11.1931 12.523C11.1931 12.4886 11.2445 12.4657 11.3074 12.4657C11.3703 12.4657 11.4218 12.4371 11.4218 12.4084C11.4218 12.3741 11.4732 12.3511 11.5361 12.3511C11.599 12.3511 11.6504 12.3225 11.6504 12.2939C11.6504 12.2595 11.7019 12.2366 11.7648 12.2366C11.8276 12.2366 11.8791 12.2079 11.8791 12.1793C11.8791 12.1449 11.9591 12.122 12.0506 12.122C12.1478 12.122 12.2221 12.0934 12.2221 12.0647C12.2221 12.0303 12.3021 12.0074 12.3936 12.0074C12.4908 12.0074 12.5651 11.9788 12.5651 11.9502C12.5651 11.9158 12.6451 11.8929 12.7366 11.8929C12.8338 11.8929 12.9081 11.8642 12.9081 11.8356C12.9081 11.8012 13.011 11.7783 13.1368 11.7783C13.2625 11.7783 13.3654 11.7497 13.3654 11.721C13.3654 11.6866 13.4969 11.6637 13.6512 11.6637C13.8113 11.6637 13.9371 11.6351 13.9371 11.6064C13.9371 11.5721 14.3773 11.5492 15.1376 11.5492C15.8979 11.5492 16.3381 11.5721 16.3381 11.6064C16.3381 11.6351 16.4695 11.6637 16.6239 11.6637C16.784 11.6637 16.9097 11.6866 16.9097 11.721C16.9097 11.7497 17.0126 11.7783 17.1384 11.7783C17.2642 11.7783 17.3671 11.8012 17.3671 11.8356C17.3671 11.8642 17.47 11.8929 17.5957 11.8929C17.7215 11.8929 17.8244 11.9158 17.8244 11.9502C17.8244 11.9788 17.8758 12.0074 17.9387 12.0074C18.0016 12.0074 18.0531 12.0303 18.0531 12.0647C18.0531 12.0934 18.1331 12.122 18.2246 12.122C18.3217 12.122 18.3961 12.1449 18.3961 12.1793C18.3961 12.2079 18.4475 12.2366 18.5104 12.2366C18.5733 12.2366 18.6247 12.2595 18.6247 12.2939C18.6247 12.3225 18.6762 12.3511 18.7391 12.3511C18.8019 12.3511 18.8534 12.3741 18.8534 12.4084C18.8534 12.4371 18.9048 12.4657 18.9677 12.4657C19.0306 12.4657 19.0821 12.4886 19.0821 12.523C19.0821 12.5516 19.1335 12.5803 19.1964 12.5803C19.2593 12.5803 19.3107 12.6032 19.3107 12.6376C19.3107 12.6662 19.3564 12.6949 19.4136 12.6949C19.4708 12.6949 19.5508 12.7464 19.5965 12.8094C19.6423 12.8724 19.7166 12.924 19.768 12.924C19.8195 12.924 19.8938 12.9756 19.9395 13.0386C19.9853 13.1016 20.0539 13.1531 20.0996 13.1531C20.1396 13.1531 20.3283 13.3078 20.5112 13.4969C20.6941 13.6859 20.8771 13.8406 20.9114 13.8406C20.9971 13.8406 21.14 13.9838 21.14 14.0697C21.14 14.1041 21.2944 14.2874 21.483 14.4707C21.6717 14.654 21.826 14.8431 21.826 14.8832C21.826 14.929 21.8775 14.9977 21.9404 15.0436C22.0033 15.0894 22.0547 15.1639 22.0547 15.2154C22.0547 15.267 22.1061 15.3414 22.169 15.3873C22.2319 15.4331 22.2834 15.5133 22.2834 15.5706C22.2834 15.6279 22.3119 15.6737 22.3405 15.6737C22.3748 15.6737 22.3977 15.7195 22.3977 15.7768C22.3977 15.8341 22.4491 15.9143 22.512 15.9601C22.5806 16.006 22.6264 16.1091 22.6264 16.2007C22.6264 16.2867 22.6549 16.3611 22.6835 16.3611C22.7178 16.3611 22.7407 16.4127 22.7407 16.4757C22.7407 16.5387 22.7693 16.5903 22.7979 16.5903C22.8322 16.5903 22.855 16.6418 22.855 16.7048C22.855 16.7679 22.8836 16.8194 22.9122 16.8194C22.9465 16.8194 22.9694 16.8939 22.9694 16.9913C22.9694 17.0829 22.9979 17.1631 23.0265 17.1631C23.0608 17.1631 23.0837 17.2376 23.0837 17.335C23.0837 17.4266 23.1123 17.5068 23.1409 17.5068C23.1752 17.5068 23.198 17.5813 23.198 17.6787C23.198 17.7704 23.2266 17.8506 23.2552 17.8506C23.2895 17.8506 23.3124 17.9766 23.3124 18.137C23.3124 18.2916 23.3409 18.4234 23.3695 18.4234C23.4038 18.4234 23.4267 18.5953 23.4267 18.8244C23.4267 19.0535 23.4496 19.2254 23.4839 19.2254C23.5182 19.2254 23.541 19.4946 23.541 19.9128C23.541 20.331 23.5182 20.6003 23.4839 20.6003C23.4496 20.6003 23.4267 20.7893 23.4267 21.0585C23.4267 21.3278 23.4038 21.5168 23.3695 21.5168C23.3409 21.5168 23.3124 21.6199 23.3124 21.746C23.3124 21.872 23.2895 21.9751 23.2552 21.9751C23.2266 21.9751 23.198 22.0782 23.198 22.2042C23.198 22.3303 23.1752 22.4334 23.1409 22.4334C23.1123 22.4334 23.0837 22.5079 23.0837 22.6052C23.0837 22.6969 23.0608 22.7771 23.0265 22.7771C22.9979 22.7771 22.9694 22.8516 22.9694 22.949C22.9694 23.0406 22.9465 23.1208 22.9122 23.1208C22.8836 23.1208 22.855 23.1724 22.855 23.2354C22.855 23.2984 22.8322 23.35 22.7979 23.35C22.7693 23.35 22.7407 23.4015 22.7407 23.4645C22.7407 23.5275 22.7178 23.5791 22.6835 23.5791C22.6549 23.5791 22.6264 23.6307 22.6264 23.6937C22.6264 23.7567 22.6035 23.8082 22.5692 23.8082C22.5406 23.8082 22.512 23.8598 22.512 23.9228C22.512 23.9858 22.4892 24.0374 22.4549 24.0374C22.4263 24.0374 22.3977 24.0889 22.3977 24.152C22.3977 24.215 22.3748 24.2665 22.3405 24.2665C22.3119 24.2665 22.2834 24.3123 22.2834 24.3696C22.2834 24.4269 22.2319 24.5071 22.169 24.5529C22.1061 24.5988 22.0547 24.6732 22.0547 24.7133C22.0547 24.7592 21.9804 24.868 21.8832 24.9539C21.7917 25.0399 21.7117 25.143 21.7117 25.1774C21.7117 25.2747 20.5226 26.4434 20.4255 26.4434C20.3797 26.4434 20.3397 26.4663 20.3397 26.5007C20.3397 26.5293 20.2883 26.5579 20.2254 26.5579C20.1511 26.5579 20.111 26.5178 20.111 26.4434C20.111 26.3804 20.0882 26.3288 20.0539 26.3288C20.0253 26.3288 19.9967 26.2772 19.9967 26.2142C19.9967 26.1512 19.9738 26.0997 19.9395 26.0997C19.911 26.0997 19.8824 26.0481 19.8824 25.9851C19.8824 25.9221 19.8595 25.8705 19.8252 25.8705C19.7966 25.8705 19.768 25.819 19.768 25.7559C19.768 25.6929 19.7452 25.6414 19.7109 25.6414C19.6823 25.6414 19.6537 25.5612 19.6537 25.4695C19.6537 25.3721 19.6308 25.2977 19.5965 25.2977C19.568 25.2977 19.5394 25.2461 19.5394 25.1831C19.5394 25.1201 19.5165 25.0685 19.4822 25.0685C19.4536 25.0685 19.425 25.017 19.425 24.9539C19.425 24.8909 19.4022 24.8394 19.3679 24.8394C19.3393 24.8394 19.3107 24.7878 19.3107 24.7248C19.3107 24.6618 19.2878 24.6102 19.2535 24.6102C19.225 24.6102 19.1964 24.53 19.1964 24.4384C19.1964 24.341 19.1735 24.2665 19.1392 24.2665C19.1106 24.2665 19.0821 24.215 19.0821 24.152C19.0821 24.0889 19.0592 24.0374 19.0249 24.0374C18.9963 24.0374 18.9677 23.9858 18.9677 23.9228C18.9677 23.8598 18.9449 23.8082 18.9106 23.8082C18.882 23.8082 18.8534 23.7567 18.8534 23.6937C18.8534 23.6307 18.8305 23.5791 18.7962 23.5791C18.7676 23.5791 18.7391 23.4989 18.7391 23.4072C18.7391 23.3099 18.7162 23.2354 18.6819 23.2354C18.6533 23.2354 18.6247 23.1838 18.6247 23.1208C18.6247 23.0578 18.6019 23.0062 18.5676 23.0062C18.539 23.0062 18.5104 22.9547 18.5104 22.8917C18.5104 22.8287 18.4875 22.7771 18.4532 22.7771C18.4246 22.7771 18.3961 22.7255 18.3961 22.6625C18.3961 22.5995 18.3732 22.548 18.3389 22.548C18.3103 22.548 18.2817 22.4964 18.2817 22.4334C18.2817 22.3704 18.2589 22.3188 18.2246 22.3188C18.196 22.3188 18.1674 22.2386 18.1674 22.147C18.1674 22.0496 18.1445 21.9751 18.1102 21.9751C18.0816 21.9751 18.0531 21.9235 18.0531 21.8605C18.0531 21.7975 18.0302 21.746 17.9959 21.746C17.9673 21.746 17.9387 21.6944 17.9387 21.6314C17.9387 21.5684 17.9159 21.5168 17.8816 21.5168C17.853 21.5168 17.8244 21.4653 17.8244 21.4022C17.8244 21.3392 17.8015 21.2877 17.7672 21.2877C17.7386 21.2877 17.7101 21.2075 17.7101 21.1158C17.7101 21.0184 17.6872 20.944 17.6529 20.944C17.6243 20.944 17.5957 20.8924 17.5957 20.8294C17.5957 20.7664 17.5729 20.7148 17.5386 20.7148C17.51 20.7148 17.4814 20.6633 17.4814 20.6003C17.4814 20.5372 17.4585 20.4857 17.4242 20.4857C17.3956 20.4857 17.3671 20.4341 17.3671 20.3711C17.3671 20.3081 17.3442 20.2565 17.3099 20.2565C17.2813 20.2565 17.2527 20.205 17.2527 20.142C17.2527 20.079 17.2299 20.0274 17.1956 20.0274C17.167 20.0274 17.1384 19.9472 17.1384 19.8555C17.1384 19.7582 17.1155 19.6837 17.0812 19.6837C17.0526 19.6837 17.0241 19.6321 17.0241 19.5691C17.0241 19.5061 17.0012 19.4545 16.9669 19.4545C16.9383 19.4545 16.9097 19.403 16.9097 19.34C16.9097 19.277 16.8869 19.2254 16.8526 19.2254C16.824 19.2254 16.7954 19.1738 16.7954 19.1108C16.7954 19.0478 16.7725 18.9963 16.7382 18.9963C16.7096 18.9963 16.6811 18.9161 16.6811 18.8244C16.6811 18.727 16.6582 18.6525 16.6239 18.6525C16.5953 18.6525 16.5667 18.601 16.5667 18.538C16.5667 18.475 16.5439 18.4234 16.5096 18.4234C16.481 18.4234 16.4524 18.3718 16.4524 18.3088C16.4524 18.2458 16.4295 18.1943 16.3952 18.1943C16.3666 18.1943 16.3381 18.1427 16.3381 18.0797C16.3381 18.0167 16.3152 17.9651 16.2809 17.9651C16.2523 17.9651 16.2237 17.8849 16.2237 17.7933C16.2237 17.6959 16.2009 17.6214 16.1666 17.6214C16.138 17.6214 16.1094 17.5699 16.1094 17.5068C16.1094 17.4438 16.0865 17.3923 16.0522 17.3923C16.0237 17.3923 15.9951 17.4438 15.9951 17.5068C15.9951 17.5699 15.9722 17.6214 15.9379 17.6214C15.9093 17.6214 15.8807 17.673 15.8807 17.736C15.8807 17.799 15.8579 17.8506 15.8236 17.8506C15.795 17.8506 15.7664 17.9021 15.7664 17.9651C15.7664 18.0281 15.7435 18.0797 15.7092 18.0797C15.6807 18.0797 15.6521 18.1542 15.6521 18.2515C15.6521 18.3432 15.6292 18.4234 15.5949 18.4234C15.5663 18.4234 15.5377 18.475 15.5377 18.538C15.5377 18.601 15.5149 18.6525 15.4806 18.6525C15.452 18.6525 15.4234 18.7041 15.4234 18.7671C15.4234 18.8301 15.4005 18.8817 15.3662 18.8817C15.3377 18.8817 15.3091 18.9562 15.3091 19.0535C15.3091 19.1452 15.2862 19.2254 15.2519 19.2254C15.2233 19.2254 15.1947 19.277 15.1947 19.3342C15.1947 19.3973 15.1604 19.4603 15.1261 19.4775C15.069 19.5061 15.069 19.5176 15.1261 19.5462C15.1604 19.5634 15.1947 19.6264 15.1947 19.6894C15.1947 19.7467 15.2233 19.7983 15.2519 19.7983C15.2862 19.7983 15.3091 19.8727 15.3091 19.9701C15.3091 20.0618 15.3377 20.142 15.3662 20.142C15.4005 20.142 15.4234 20.1935 15.4234 20.2565C15.4234 20.3196 15.452 20.3711 15.4806 20.3711C15.5149 20.3711 15.5377 20.4227 15.5377 20.4857C15.5377 20.5487 15.5663 20.6003 15.5949 20.6003C15.6292 20.6003 15.6521 20.6747 15.6521 20.7721C15.6521 20.8638 15.6807 20.944 15.7092 20.944C15.7435 20.944 15.7664 20.9955 15.7664 21.0585C15.7664 21.1216 15.795 21.1731 15.8236 21.1731C15.8579 21.1731 15.8807 21.2247 15.8807 21.2877C15.8807 21.3507 15.9093 21.4022 15.9379 21.4022C15.9722 21.4022 15.9951 21.4767 15.9951 21.5741C15.9951 21.6658 16.0237 21.746 16.0522 21.746C16.0865 21.746 16.1094 21.7975 16.1094 21.8605C16.1094 21.9235 16.138 21.9751 16.1666 21.9751C16.2009 21.9751 16.2237 22.0267 16.2237 22.0897C16.2237 22.1527 16.2523 22.2042 16.2809 22.2042C16.3152 22.2042 16.3381 22.2558 16.3381 22.3188C16.3381 22.3818 16.3666 22.4334 16.3952 22.4334C16.4295 22.4334 16.4524 22.5079 16.4524 22.6052C16.4524 22.6969 16.481 22.7771 16.5096 22.7771C16.5439 22.7771 16.5667 22.8287 16.5667 22.8917C16.5667 22.9547 16.5953 23.0062 16.6239 23.0062C16.6582 23.0062 16.6811 23.0578 16.6811 23.1208C16.6811 23.1838 16.7096 23.2354 16.7382 23.2354C16.7725 23.2354 16.7954 23.3099 16.7954 23.4072C16.7954 23.4989 16.824 23.5791 16.8526 23.5791C16.8869 23.5791 16.9097 23.602 16.9097 23.6364C16.9097 23.6708 16.2638 23.6937 15.0804 23.6937H13.2511V23.8655C13.2511 23.9572 13.2282 24.0374 13.1939 24.0374C13.1653 24.0374 13.1368 24.0889 13.1368 24.152C13.1368 24.215 13.1139 24.2665 13.0796 24.2665C13.051 24.2665 13.0224 24.3181 13.0224 24.3811C13.0224 24.4441 12.9996 24.4957 12.9653 24.4957C12.9367 24.4957 12.9081 24.5701 12.9081 24.6675C12.9081 24.7592 12.8852 24.8394 12.8509 24.8394C12.8223 24.8394 12.7938 24.8909 12.7938 24.9539C12.7938 25.017 12.7709 25.0685 12.7366 25.0685C12.708 25.0685 12.6794 25.1201 12.6794 25.1831C12.6794 25.2977 12.7194 25.2977 15.1147 25.2977C17.6758 25.2977 17.7101 25.3034 17.7101 25.5497C17.7101 25.6013 17.7386 25.6414 17.7672 25.6414C17.8015 25.6414 17.8244 25.7158 17.8244 25.8132C17.8244 25.9049 17.853 25.9851 17.8816 25.9851C17.9159 25.9851 17.9387 26.0366 17.9387 26.0997C17.9387 26.1627 17.9673 26.2142 17.9959 26.2142C18.0302 26.2142 18.0531 26.2658 18.0531 26.3288C18.0531 26.3918 18.0816 26.4434 18.1102 26.4434C18.1445 26.4434 18.1674 26.5178 18.1674 26.6152C18.1674 26.7069 18.196 26.7871 18.2246 26.7871C18.2589 26.7871 18.2817 26.8386 18.2817 26.9017C18.2817 26.9647 18.3103 27.0162 18.3389 27.0162C18.3732 27.0162 18.3961 27.0678 18.3961 27.1308C18.3961 27.1938 18.4246 27.2454 18.4532 27.2454C18.4875 27.2454 18.5104 27.3198 18.5104 27.4172C18.5104 27.5089 18.539 27.5891 18.5676 27.5891C18.6019 27.5891 18.6247 27.6406 18.6247 27.7036C18.6247 27.7667 18.6533 27.8182 18.6819 27.8182C18.7162 27.8182 18.7391 27.8698 18.7391 27.9328C18.7391 27.9958 18.7676 28.0474 18.7962 28.0474C18.8305 28.0474 18.8534 28.1218 18.8534 28.2192C18.8534 28.3109 18.882 28.3911 18.9106 28.3911C18.9449 28.3911 18.9677 28.4426 18.9677 28.5056C18.9677 28.5687 18.9963 28.6202 19.0249 28.6202C19.0592 28.6202 19.0821 28.6603 19.0821 28.7119C19.0821 28.8895 19.2364 28.9639 19.608 28.9639C19.9052 28.9639 19.9853 28.941 20.0539 28.8494C20.0996 28.7863 20.1796 28.7348 20.2368 28.7348C20.294 28.7348 20.3397 28.7061 20.3397 28.6775C20.3397 28.6431 20.3854 28.6202 20.4426 28.6202C20.4998 28.6202 20.5798 28.5687 20.6255 28.5056C20.6713 28.4426 20.7456 28.3911 20.797 28.3911C20.8485 28.3911 20.9228 28.3395 20.9685 28.2765C21.0143 28.2135 21.0829 28.1619 21.1286 28.1619C21.1686 28.1619 21.3287 28.0302 21.483 27.8755C21.6374 27.7151 21.7917 27.5891 21.826 27.5891C21.9061 27.5891 22.7407 26.7527 22.7407 26.6668C22.7407 26.6324 22.8436 26.5064 22.9694 26.3861C23.0951 26.2658 23.198 26.134 23.198 26.0997C23.198 26.0596 23.2723 25.9564 23.3695 25.8705C23.461 25.7846 23.541 25.67 23.541 25.6185C23.541 25.5669 23.5696 25.5268 23.5982 25.5268C23.6325 25.5268 23.6554 25.481 23.6554 25.4237C23.6554 25.3664 23.7068 25.2862 23.7697 25.2404C23.8326 25.1945 23.884 25.1143 23.884 25.0571C23.884 24.9998 23.9126 24.9539 23.9412 24.9539C23.9755 24.9539 23.9984 24.9024 23.9984 24.8394C23.9984 24.7764 24.0269 24.7248 24.0555 24.7248C24.0898 24.7248 24.1127 24.6732 24.1127 24.6102C24.1127 24.5472 24.1413 24.4957 24.1699 24.4957C24.2042 24.4957 24.227 24.4441 24.227 24.3811C24.227 24.3181 24.2556 24.2665 24.2842 24.2665C24.3185 24.2665 24.3414 24.215 24.3414 24.152C24.3414 24.0889 24.3699 24.0374 24.3985 24.0374C24.4328 24.0374 24.4557 23.9858 24.4557 23.9228C24.4557 23.8598 24.4843 23.8082 24.5129 23.8082C24.5472 23.8082 24.57 23.728 24.57 23.6364C24.57 23.539 24.5986 23.4645 24.6272 23.4645C24.6615 23.4645 24.6844 23.3843 24.6844 23.2927C24.6844 23.1953 24.7129 23.1208 24.7415 23.1208C24.7758 23.1208 24.7987 23.0406 24.7987 22.949C24.7987 22.8516 24.8273 22.7771 24.8559 22.7771C24.8902 22.7771 24.913 22.6969 24.913 22.6052C24.913 22.5079 24.9416 22.4334 24.9702 22.4334C25.0045 22.4334 25.0273 22.3016 25.0273 22.147C25.0273 21.9866 25.0559 21.8605 25.0845 21.8605C25.1188 21.8605 25.1417 21.6887 25.1417 21.4595C25.1417 21.2304 25.1645 21.0585 25.1988 21.0585C25.2331 21.0585 25.256 20.6404 25.256 19.9128C25.256 19.1853 25.2331 18.7671 25.1988 18.7671C25.1645 18.7671 25.1417 18.6124 25.1417 18.4234C25.1417 18.2344 25.1188 18.0797 25.0845 18.0797C25.0559 18.0797 25.0273 17.9479 25.0273 17.7933C25.0273 17.6329 25.0045 17.5068 24.9702 17.5068C24.9416 17.5068 24.913 17.4037 24.913 17.2777C24.913 17.1517 24.8902 17.0486 24.8559 17.0486C24.8273 17.0486 24.7987 16.9684 24.7987 16.8767C24.7987 16.7793 24.7758 16.7048 24.7415 16.7048C24.7129 16.7048 24.6844 16.6246 24.6844 16.533C24.6844 16.4356 24.6615 16.3611 24.6272 16.3611C24.5986 16.3611 24.57 16.3096 24.57 16.2466C24.57 16.1835 24.5472 16.132 24.5129 16.132C24.4843 16.132 24.4557 16.0518 24.4557 15.9601C24.4557 15.8627 24.4328 15.7883 24.3985 15.7883C24.3699 15.7883 24.3414 15.7367 24.3414 15.6737C24.3414 15.6107 24.3185 15.5591 24.2842 15.5591C24.2556 15.5591 24.227 15.5076 24.227 15.4446C24.227 15.3815 24.2042 15.33 24.1699 15.33C24.1413 15.33 24.1127 15.2784 24.1127 15.2154C24.1127 15.1524 24.0898 15.1009 24.0555 15.1009C24.0269 15.1009 23.9984 15.055 23.9984 14.9977C23.9984 14.9405 23.9469 14.8603 23.884 14.8144C23.8211 14.7686 23.7697 14.6941 23.7697 14.6426C23.7697 14.591 23.7182 14.5165 23.6554 14.4707C23.5925 14.4249 23.541 14.3504 23.541 14.2989C23.541 14.2473 23.4896 14.1728 23.4267 14.127C23.3638 14.0812 23.3124 14.0067 23.3124 13.9551C23.3124 13.9036 23.2609 13.8291 23.198 13.7833C23.0894 13.7031 23.0837 13.6343 23.0837 11.1367C23.0837 8.61041 23.0837 8.57031 22.9694 8.57031C22.9065 8.57031 22.855 8.59322 22.855 8.62759C22.855 8.65624 22.7521 8.68488 22.6264 8.68488C22.5006 8.68488 22.3977 8.70779 22.3977 8.74216C22.3977 8.77081 22.2719 8.79945 22.1119 8.79945C21.9575 8.79945 21.826 8.82236 21.826 8.85674C21.826 8.88538 21.7231 8.91402 21.5974 8.91402C21.4716 8.91402 21.3687 8.93694 21.3687 8.97131C21.3687 8.99995 21.2658 9.02859 21.14 9.02859C21.0143 9.02859 20.9114 9.05151 20.9114 9.08588C20.9114 9.11452 20.7856 9.14316 20.6255 9.14316C20.4712 9.14316 20.3397 9.16608 20.3397 9.20045C20.3397 9.22909 20.2368 9.25773 20.111 9.25773C19.9853 9.25773 19.8824 9.28065 19.8824 9.31502C19.8824 9.34366 19.7795 9.3723 19.6537 9.3723C19.5279 9.3723 19.425 9.39522 19.425 9.42959C19.425 9.45823 19.2993 9.48688 19.1392 9.48688C18.9849 9.48688 18.8534 9.50979 18.8534 9.54416C18.8534 9.57281 18.7505 9.60145 18.6247 9.60145C18.499 9.60145 18.3961 9.62436 18.3961 9.65873C18.3961 9.68738 18.2703 9.71602 18.1102 9.71602C17.9559 9.71602 17.8244 9.73893 17.8244 9.7733C17.8244 9.80195 17.7215 9.83059 17.5957 9.83059C17.47 9.83059 17.3671 9.8535 17.3671 9.88787C17.3671 9.91652 17.2642 9.94516 17.1384 9.94516C17.0126 9.94516 16.9097 9.96807 16.9097 10.0024C16.9097 10.0311 16.784 10.0597 16.6239 10.0597C16.4695 10.0597 16.3381 10.0826 16.3381 10.117C16.3381 10.1457 16.2866 10.1743 16.2237 10.1743C16.1609 10.1743 16.1094 10.1457 16.1094 10.117C16.1094 10.0826 16.1609 10.0597 16.2237 10.0597C16.2866 10.0597 16.3381 10.0311 16.3381 10.0024C16.3381 9.96807 16.4181 9.94516 16.5096 9.94516C16.6067 9.94516 16.6811 9.91652 16.6811 9.88787C16.6811 9.8535 16.7611 9.83059 16.8526 9.83059C16.9497 9.83059 17.0241 9.80195 17.0241 9.7733C17.0241 9.73893 17.127 9.71602 17.2527 9.71602C17.3785 9.71602 17.4814 9.68738 17.4814 9.65873C17.4814 9.62436 17.5614 9.60145 17.6529 9.60145C17.7501 9.60145 17.8244 9.57281 17.8244 9.54416C17.8244 9.50979 17.9044 9.48688 17.9959 9.48688C18.0931 9.48688 18.1674 9.45823 18.1674 9.42959C18.1674 9.39522 18.2474 9.3723 18.3389 9.3723C18.4361 9.3723 18.5104 9.34366 18.5104 9.31502C18.5104 9.28065 18.5904 9.25773 18.6819 9.25773C18.7791 9.25773 18.8534 9.22909 18.8534 9.20045C18.8534 9.16608 18.9334 9.14316 19.0249 9.14316C19.1221 9.14316 19.1964 9.11452 19.1964 9.08588C19.1964 9.05151 19.2764 9.02859 19.3679 9.02859C19.4651 9.02859 19.5394 8.99995 19.5394 8.97131C19.5394 8.93694 19.6194 8.91402 19.7109 8.91402C19.8081 8.91402 19.8824 8.88538 19.8824 8.85674C19.8824 8.82236 19.9624 8.79945 20.0539 8.79945C20.1511 8.79945 20.2254 8.77081 20.2254 8.74216C20.2254 8.70779 20.3054 8.68488 20.3969 8.68488C20.4941 8.68488 20.5684 8.65624 20.5684 8.62759C20.5684 8.59322 20.6713 8.57031 20.797 8.57031C20.9228 8.57031 21.0257 8.54167 21.0257 8.51302C21.0257 8.47865 21.1057 8.45574 21.1972 8.45574C21.2944 8.45574 21.3687 8.4271 21.3687 8.39845C21.3687 8.36408 21.4487 8.34117 21.5402 8.34117C21.6374 8.34117 21.7117 8.31252 21.7117 8.28388C21.7117 8.24951 21.7917 8.2266 21.8832 8.2266C21.9804 8.2266 22.0547 8.19795 22.0547 8.16931C22.0547 8.13494 22.1347 8.11203 22.2262 8.11203C22.3234 8.11203 22.3977 8.08338 22.3977 8.05474C22.3977 8.02037 22.4777 7.99746 22.5692 7.99746C22.6664 7.99746 22.7407 7.96881 22.7407 7.94017C22.7407 7.9058 22.8207 7.88288 22.9122 7.88288C23.0094 7.88288 23.0837 7.85424 23.0837 7.8256C23.0837 7.79123 23.1637 7.76831 23.2552 7.76831C23.3524 7.76831 23.4267 7.73967 23.4267 7.71103C23.4267 7.67666 23.5067 7.65374 23.5982 7.65374C23.6954 7.65374 23.7697 7.6251 23.7697 7.59646C23.7697 7.56209 23.8497 7.53917 23.9412 7.53917C24.0384 7.53917 24.1127 7.51053 24.1127 7.48189C24.1127 7.44751 24.2156 7.4246 24.3414 7.4246C24.4671 7.4246 24.57 7.39596 24.57 7.36732C24.57 7.33294 24.6501 7.31003 24.7415 7.31003C24.8387 7.31003 24.913 7.28139 24.913 7.25274C24.913 7.21837 24.993 7.19546 25.0845 7.19546C25.1817 7.19546 25.256 7.16682 25.256 7.13817C25.256 7.1038 25.336 7.08089 25.4275 7.08089C25.5247 7.08089 25.599 7.05224 25.599 7.0236C25.599 6.98923 25.679 6.96632 25.7705 6.96632C25.8677 6.96632 25.942 6.93767 25.942 6.90903C25.942 6.87466 26.022 6.85175 26.1135 6.85175C26.2107 6.85175 26.285 6.8231 26.285 6.79446C26.285 6.76009 26.365 6.73717 26.4565 6.73717C26.5537 6.73717 26.628 6.70853 26.628 6.67989C26.628 6.64552 26.708 6.6226 26.7995 6.6226C26.8967 6.6226 26.971 6.59396 26.971 6.56532C26.971 6.53095 27.051 6.50803 27.1425 6.50803C27.2397 6.50803 27.314 6.47939 27.314 6.45075C27.314 6.41638 27.394 6.39346 27.4855 6.39346C27.5827 6.39346 27.657 6.36482 27.657 6.33618C27.657 6.30181 27.737 6.27889 27.8285 6.27889C27.96 6.27889 28 6.25598 28 6.16432C28 6.07266 27.96 6.04975 27.8285 6.04975C27.737 6.04975 27.657 6.02111 27.657 5.99246C27.657 5.95809 27.5541 5.93518 27.4283 5.93518C27.3026 5.93518 27.1997 5.90654 27.1997 5.87789C27.1997 5.84352 27.1254 5.82061 27.0282 5.82061C26.9367 5.82061 26.8567 5.79197 26.8567 5.76332C26.8567 5.72895 26.7824 5.70604 26.6852 5.70604C26.5937 5.70604 26.5137 5.67739 26.5137 5.64875C26.5137 5.61438 26.4394 5.59147 26.3422 5.59147C26.2507 5.59147 26.1707 5.56282 26.1707 5.53418C26.1707 5.49981 26.0964 5.47689 25.9992 5.47689C25.9077 5.47689 25.8277 5.44825 25.8277 5.41961C25.8277 5.38524 25.7534 5.36232 25.6562 5.36232C25.5647 5.36232 25.4847 5.33368 25.4847 5.30504C25.4847 5.27067 25.4104 5.24775 25.3132 5.24775C25.2217 5.24775 25.1417 5.21911 25.1417 5.19047C25.1417 5.1561 25.0674 5.13318 24.9702 5.13318C24.8787 5.13318 24.7987 5.10454 24.7987 5.0759C24.7987 5.04152 24.7244 5.01861 24.6272 5.01861C24.5357 5.01861 24.4557 4.98997 24.4557 4.96133C24.4557 4.92695 24.3814 4.90404 24.2842 4.90404C24.1927 4.90404 24.1127 4.8754 24.1127 4.84676C24.1127 4.81238 24.0098 4.78947 23.884 4.78947C23.7583 4.78947 23.6554 4.76083 23.6554 4.73218C23.6554 4.69781 23.581 4.6749 23.4839 4.6749C23.3924 4.6749 23.3124 4.64626 23.3124 4.61761C23.3124 4.58324 23.238 4.56033 23.1409 4.56033C23.0494 4.56033 22.9694 4.53168 22.9694 4.50304C22.9694 4.46867 22.895 4.44576 22.7979 4.44576C22.7064 4.44576 22.6264 4.41711 22.6264 4.38847C22.6264 4.3541 22.552 4.33119 22.4549 4.33119C22.3634 4.33119 22.2834 4.30254 22.2834 4.2739C22.2834 4.23953 22.209 4.21662 22.1119 4.21662C22.0204 4.21662 21.9404 4.18797 21.9404 4.15933C21.9404 4.12496 21.8661 4.10205 21.7689 4.10205C21.6774 4.10205 21.5974 4.0734 21.5974 4.04476C21.5974 4.01039 21.5231 3.98747 21.4259 3.98747C21.3344 3.98747 21.2544 3.95883 21.2544 3.93019C21.2544 3.89582 21.1801 3.8729 21.0829 3.8729C20.9914 3.8729 20.9114 3.84426 20.9114 3.81562C20.9114 3.78125 20.8371 3.75833 20.7399 3.75833C20.6484 3.75833 20.5684 3.72969 20.5684 3.70105C20.5684 3.66668 20.4655 3.64376 20.3397 3.64376C20.2139 3.64376 20.111 3.61512 20.111 3.58648C20.111 3.5521 20.0367 3.52919 19.9395 3.52919C19.8481 3.52919 19.768 3.50055 19.768 3.4719C19.768 3.43753 19.6937 3.41462 19.5965 3.41462C19.5051 3.41462 19.425 3.38598 19.425 3.35733C19.425 3.32296 19.3507 3.30005 19.2535 3.30005C19.1621 3.30005 19.0821 3.27141 19.0821 3.24276C19.0821 3.20839 19.0077 3.18548 18.9106 3.18548C18.8191 3.18548 18.7391 3.15683 18.7391 3.12819C18.7391 3.09382 18.6647 3.07091 18.5676 3.07091C18.4761 3.07091 18.3961 3.04226 18.3961 3.01362C18.3961 2.97925 18.3217 2.95634 18.2246 2.95634C18.1331 2.95634 18.0531 2.92769 18.0531 2.89905C18.0531 2.86468 17.9787 2.84176 17.8816 2.84176C17.7901 2.84176 17.7101 2.81312 17.7101 2.78448C17.7101 2.75011 17.6357 2.72719 17.5386 2.72719C17.4471 2.72719 17.3671 2.69855 17.3671 2.66991C17.3671 2.63554 17.2927 2.61262 17.1956 2.61262C17.1041 2.61262 17.0241 2.58398 17.0241 2.55534C17.0241 2.52097 16.9212 2.49805 16.7954 2.49805C16.6696 2.49805 16.5667 2.46941 16.5667 2.44077C16.5667 2.40639 16.4924 2.38348 16.3952 2.38348C16.3038 2.38348 16.2237 2.35484 16.2237 2.32619C16.2237 2.29182 16.1494 2.26891 16.0522 2.26891C15.9608 2.26891 15.8807 2.24027 15.8807 2.21162C15.8807 2.17725 15.8064 2.15434 15.7092 2.15434C15.6178 2.15434 15.5377 2.1257 15.5377 2.09705C15.5377 2.06268 15.4634 2.03977 15.3662 2.03977C15.2748 2.03977 15.1947 2.01113 15.1947 1.98248C15.1947 1.94811 15.1719 1.9252 15.1376 1.9252C15.109 1.9252 15.0804 1.94811 15.0804 1.98248Z" fill="#9EBBFD"/>
<path d="M16.9668 12.8104C16.8582 12.9307 16.7324 13.0338 16.6924 13.0396C16.6467 13.0396 16.5152 13.1427 16.3951 13.2687C16.2751 13.3947 16.1436 13.4978 16.1093 13.4978C16.075 13.4978 15.9435 13.601 15.8235 13.727C15.7034 13.853 15.5719 13.9561 15.5376 13.9561C15.5033 13.9561 15.3719 14.0592 15.2518 14.1853C15.1318 14.3113 15.006 14.4144 14.966 14.4144C14.8745 14.4144 14.623 14.6837 14.623 14.7868C14.623 14.8498 14.6859 14.8727 14.8517 14.8727C14.9774 14.8727 15.0803 14.8956 15.0803 14.93C15.0803 14.9586 15.1318 14.9873 15.1946 14.9873C15.269 14.9873 15.309 15.0274 15.309 15.1018C15.309 15.1649 15.3376 15.2164 15.3661 15.2164C15.4004 15.2164 15.4233 15.2565 15.4233 15.3081C15.4233 15.394 15.5548 15.5601 15.6177 15.5601C15.6348 15.5601 15.652 15.5086 15.652 15.4455C15.652 15.3825 15.6806 15.331 15.7091 15.331C15.7434 15.331 15.7663 15.2794 15.7663 15.2164C15.7663 15.1534 15.7949 15.1018 15.8235 15.1018C15.8578 15.1018 15.8806 15.0503 15.8806 14.9873C15.8806 14.9243 15.9092 14.8727 15.9378 14.8727C15.9721 14.8727 15.995 14.8211 15.995 14.7581C15.995 14.6951 16.0236 14.6436 16.0521 14.6436C16.0864 14.6436 16.1093 14.592 16.1093 14.529C16.1093 14.466 16.1379 14.4144 16.1665 14.4144C16.2008 14.4144 16.2236 14.3629 16.2236 14.2998C16.2236 14.2368 16.2522 14.1853 16.2808 14.1853C16.3151 14.1853 16.338 14.1337 16.338 14.0707C16.338 14.0077 16.3666 13.9561 16.3951 13.9561C16.4294 13.9561 16.4523 14.1681 16.4523 14.4717C16.4523 14.7753 16.4294 14.9873 16.3951 14.9873C16.3666 14.9873 16.338 15.0388 16.338 15.1018C16.338 15.1763 16.378 15.2164 16.4523 15.2164C16.5152 15.2164 16.5666 15.2393 16.5666 15.2737C16.5666 15.3023 16.6981 15.331 16.8525 15.331C17.0125 15.331 17.1383 15.3539 17.1383 15.3883C17.1383 15.4169 17.1669 15.4455 17.1955 15.4455C17.2298 15.4455 17.2526 14.93 17.2526 14.0134C17.2526 13.2229 17.2355 12.5813 17.2126 12.5813C17.184 12.587 17.0754 12.6901 16.9668 12.8104Z" fill="#9EBBFD"/>
<path d="M45.88 19.6046H40.06L39.06 22.4446H36.68L41.66 8.52458H44.3L49.28 22.4446H46.88L45.88 19.6046ZM45.24 17.7446L42.98 11.2846L40.7 17.7446H45.24ZM50.6853 16.8846C50.6853 15.7779 50.912 14.7979 51.3653 13.9446C51.832 13.0912 52.4586 12.4312 53.2453 11.9646C54.0453 11.4846 54.932 11.2446 55.9053 11.2446C56.6253 11.2446 57.332 11.4046 58.0253 11.7246C58.732 12.0312 59.292 12.4446 59.7053 12.9646V7.64458H62.0053V22.4446H59.7053V20.7846C59.332 21.3179 58.812 21.7579 58.1453 22.1046C57.492 22.4512 56.7386 22.6246 55.8853 22.6246C54.9253 22.6246 54.0453 22.3846 53.2453 21.9046C52.4586 21.4112 51.832 20.7312 51.3653 19.8646C50.912 18.9846 50.6853 17.9912 50.6853 16.8846ZM59.7053 16.9246C59.7053 16.1646 59.5453 15.5046 59.2253 14.9446C58.9186 14.3846 58.512 13.9579 58.0053 13.6646C57.4986 13.3712 56.952 13.2246 56.3653 13.2246C55.7786 13.2246 55.232 13.3712 54.7253 13.6646C54.2186 13.9446 53.8053 14.3646 53.4853 14.9246C53.1786 15.4712 53.0253 16.1246 53.0253 16.8846C53.0253 17.6446 53.1786 18.3112 53.4853 18.8846C53.8053 19.4579 54.2186 19.8979 54.7253 20.2046C55.2453 20.4979 55.792 20.6446 56.3653 20.6446C56.952 20.6446 57.4986 20.4979 58.0053 20.2046C58.512 19.9112 58.9186 19.4846 59.2253 18.9246C59.5453 18.3512 59.7053 17.6846 59.7053 16.9246ZM78.34 11.2446C79.2067 11.2446 79.98 11.4246 80.66 11.7846C81.3533 12.1446 81.8933 12.6779 82.28 13.3846C82.68 14.0912 82.88 14.9446 82.88 15.9446V22.4446H80.62V16.2846C80.62 15.2979 80.3733 14.5446 79.88 14.0246C79.3867 13.4912 78.7133 13.2246 77.86 13.2246C77.0067 13.2246 76.3267 13.4912 75.82 14.0246C75.3267 14.5446 75.08 15.2979 75.08 16.2846V22.4446H72.82V16.2846C72.82 15.2979 72.5733 14.5446 72.08 14.0246C71.5867 13.4912 70.9133 13.2246 70.06 13.2246C69.2067 13.2246 68.5267 13.4912 68.02 14.0246C67.5267 14.5446 67.28 15.2979 67.28 16.2846V22.4446H65V11.4246H67.28V12.6846C67.6533 12.2312 68.1267 11.8779 68.7 11.6246C69.2733 11.3712 69.8867 11.2446 70.54 11.2446C71.42 11.2446 72.2067 11.4312 72.9 11.8046C73.5933 12.1779 74.1267 12.7179 74.5 13.4246C74.8333 12.7579 75.3533 12.2312 76.06 11.8446C76.7667 11.4446 77.5267 11.2446 78.34 11.2446ZM86.9413 9.96458C86.5279 9.96458 86.1813 9.82458 85.9013 9.54458C85.6213 9.26458 85.4813 8.91791 85.4813 8.50458C85.4813 8.09125 85.6213 7.74458 85.9013 7.46458C86.1813 7.18458 86.5279 7.04458 86.9413 7.04458C87.3413 7.04458 87.6813 7.18458 87.9613 7.46458C88.2413 7.74458 88.3813 8.09125 88.3813 8.50458C88.3813 8.91791 88.2413 9.26458 87.9613 9.54458C87.6813 9.82458 87.3413 9.96458 86.9413 9.96458ZM88.0613 11.4246V22.4446H85.7813V11.4246H88.0613ZM93.7147 13.2846V19.3846C93.7147 19.7979 93.808 20.0979 93.9947 20.2846C94.1947 20.4579 94.528 20.5446 94.9947 20.5446H96.3947V22.4446H94.5947C93.568 22.4446 92.7814 22.2046 92.2347 21.7246C91.688 21.2446 91.4147 20.4646 91.4147 19.3846V13.2846H90.1147V11.4246H91.4147V8.68458H93.7147V11.4246H96.3947V13.2846H93.7147ZM103.076 22.5846C102.143 22.5846 101.303 22.4246 100.556 22.1046C99.8094 21.7712 99.2228 21.3046 98.7961 20.7046C98.3694 20.1046 98.1561 19.4046 98.1561 18.6046H100.596C100.649 19.2046 100.883 19.6979 101.296 20.0846C101.723 20.4712 102.316 20.6646 103.076 20.6646C103.863 20.6646 104.476 20.4779 104.916 20.1046C105.356 19.7179 105.576 19.2246 105.576 18.6246C105.576 18.1579 105.436 17.7779 105.156 17.4846C104.889 17.1912 104.549 16.9646 104.136 16.8046C103.736 16.6446 103.176 16.4712 102.456 16.2846C101.549 16.0446 100.809 15.8046 100.236 15.5646C99.6761 15.3112 99.1961 14.9246 98.7961 14.4046C98.3961 13.8846 98.1961 13.1912 98.1961 12.3246C98.1961 11.5246 98.3961 10.8246 98.7961 10.2246C99.1961 9.62458 99.7561 9.16458 100.476 8.84458C101.196 8.52458 102.029 8.36458 102.976 8.36458C104.323 8.36458 105.423 8.70458 106.276 9.38458C107.143 10.0512 107.623 10.9712 107.716 12.1446H105.196C105.156 11.6379 104.916 11.2046 104.476 10.8446C104.036 10.4846 103.456 10.3046 102.736 10.3046C102.083 10.3046 101.549 10.4712 101.136 10.8046C100.723 11.1379 100.516 11.6179 100.516 12.2446C100.516 12.6712 100.643 13.0246 100.896 13.3046C101.163 13.5712 101.496 13.7846 101.896 13.9446C102.296 14.1046 102.843 14.2779 103.536 14.4646C104.456 14.7179 105.203 14.9712 105.776 15.2246C106.363 15.4779 106.856 15.8712 107.256 16.4046C107.669 16.9246 107.876 17.6246 107.876 18.5046C107.876 19.2112 107.683 19.8779 107.296 20.5046C106.923 21.1312 106.369 21.6379 105.636 22.0246C104.916 22.3979 104.063 22.5846 103.076 22.5846ZM112.846 13.0446C113.233 12.5379 113.76 12.1112 114.426 11.7646C115.093 11.4179 115.846 11.2446 116.686 11.2446C117.646 11.2446 118.52 11.4846 119.306 11.9646C120.106 12.4312 120.733 13.0912 121.186 13.9446C121.64 14.7979 121.866 15.7779 121.866 16.8846C121.866 17.9912 121.64 18.9846 121.186 19.8646C120.733 20.7312 120.106 21.4112 119.306 21.9046C118.52 22.3846 117.646 22.6246 116.686 22.6246C115.846 22.6246 115.1 22.4579 114.446 22.1246C113.793 21.7779 113.26 21.3512 112.846 20.8446V27.6846H110.566V11.4246H112.846V13.0446ZM119.546 16.8846C119.546 16.1246 119.386 15.4712 119.066 14.9246C118.76 14.3646 118.346 13.9446 117.826 13.6646C117.32 13.3712 116.773 13.2246 116.186 13.2246C115.613 13.2246 115.066 13.3712 114.546 13.6646C114.04 13.9579 113.626 14.3846 113.306 14.9446C113 15.5046 112.846 16.1646 112.846 16.9246C112.846 17.6846 113 18.3512 113.306 18.9246C113.626 19.4846 114.04 19.9112 114.546 20.2046C115.066 20.4979 115.613 20.6446 116.186 20.6446C116.773 20.6446 117.32 20.4979 117.826 20.2046C118.346 19.8979 118.76 19.4579 119.066 18.8846C119.386 18.3112 119.546 17.6446 119.546 16.8846ZM128.901 22.6246C127.861 22.6246 126.921 22.3912 126.081 21.9246C125.241 21.4446 124.581 20.7779 124.101 19.9246C123.621 19.0579 123.381 18.0579 123.381 16.9246C123.381 15.8046 123.628 14.8112 124.121 13.9446C124.614 13.0779 125.288 12.4112 126.141 11.9446C126.994 11.4779 127.948 11.2446 129.001 11.2446C130.054 11.2446 131.008 11.4779 131.861 11.9446C132.714 12.4112 133.388 13.0779 133.881 13.9446C134.374 14.8112 134.621 15.8046 134.621 16.9246C134.621 18.0446 134.368 19.0379 133.861 19.9046C133.354 20.7712 132.661 21.4446 131.781 21.9246C130.914 22.3912 129.954 22.6246 128.901 22.6246ZM128.901 20.6446C129.488 20.6446 130.034 20.5046 130.541 20.2246C131.061 19.9446 131.481 19.5246 131.801 18.9646C132.121 18.4046 132.281 17.7246 132.281 16.9246C132.281 16.1246 132.128 15.4512 131.821 14.9046C131.514 14.3446 131.108 13.9246 130.601 13.6446C130.094 13.3646 129.548 13.2246 128.961 13.2246C128.374 13.2246 127.828 13.3646 127.321 13.6446C126.828 13.9246 126.434 14.3446 126.141 14.9046C125.848 15.4512 125.701 16.1246 125.701 16.9246C125.701 18.1112 126.001 19.0312 126.601 19.6846C127.214 20.3246 127.981 20.6446 128.901 20.6446ZM139.535 13.2846V19.3846C139.535 19.7979 139.628 20.0979 139.815 20.2846C140.015 20.4579 140.348 20.5446 140.815 20.5446H142.215V22.4446H140.415C139.388 22.4446 138.602 22.2046 138.055 21.7246C137.508 21.2446 137.235 20.4646 137.235 19.3846V13.2846H135.935V11.4246H137.235V8.68458H139.535V11.4246H142.215V13.2846H139.535Z" fill="#9EBBFD"/>
</g>
<path d="M4.764 45.8766C5.572 45.8766 6.292 46.0606 6.924 46.4286C7.556 46.7886 8.044 47.2926 8.388 47.9406C8.74 48.5806 8.916 49.3126 8.916 50.1366C8.916 50.9606 8.74 51.6966 8.388 52.3446C8.044 52.9846 7.556 53.4886 6.924 53.8566C6.292 54.2166 5.572 54.3966 4.764 54.3966C3.948 54.3966 3.224 54.2166 2.592 53.8566C1.96 53.4886 1.468 52.9846 1.116 52.3446C0.764 51.6966 0.588 50.9606 0.588 50.1366C0.588 49.3126 0.764 48.5806 1.116 47.9406C1.468 47.2926 1.96 46.7886 2.592 46.4286C3.224 46.0606 3.948 45.8766 4.764 45.8766ZM4.764 46.3566C4.02 46.3566 3.372 46.5166 2.82 46.8366C2.268 47.1486 1.844 47.5886 1.548 48.1566C1.252 48.7246 1.104 49.3846 1.104 50.1366C1.104 50.8806 1.252 51.5406 1.548 52.1166C1.844 52.6846 2.268 53.1286 2.82 53.4486C3.372 53.7686 4.02 53.9286 4.764 53.9286C5.5 53.9286 6.14 53.7686 6.684 53.4486C7.236 53.1286 7.66 52.6846 7.956 52.1166C8.252 51.5406 8.4 50.8806 8.4 50.1366C8.4 49.3846 8.252 48.7246 7.956 48.1566C7.66 47.5886 7.236 47.1486 6.684 46.8366C6.14 46.5166 5.5 46.3566 4.764 46.3566ZM4.74 47.3526C4.26 47.3526 3.82 47.4646 3.42 47.6886C3.028 47.9126 2.716 48.2366 2.484 48.6606C2.252 49.0766 2.136 49.5646 2.136 50.1246C2.136 50.6846 2.252 51.1766 2.484 51.6006C2.716 52.0166 3.028 52.3406 3.42 52.5726C3.82 52.7966 4.26 52.9086 4.74 52.9086C5.34 52.9086 5.86 52.7486 6.3 52.4286C6.74 52.1006 7.04 51.6646 7.2 51.1206H6.192C5.952 51.7846 5.468 52.1166 4.74 52.1166C4.26 52.1166 3.868 51.9446 3.564 51.6006C3.26 51.2566 3.108 50.7686 3.108 50.1366C3.108 49.4966 3.26 49.0046 3.564 48.6606C3.868 48.3166 4.26 48.1446 4.74 48.1446C5.092 48.1446 5.396 48.2326 5.652 48.4086C5.908 48.5766 6.088 48.8206 6.192 49.1406H7.2C7.048 48.5726 6.752 48.1326 6.312 47.8206C5.872 47.5086 5.348 47.3526 4.74 47.3526ZM13.6151 53.4486C14.6311 52.6326 15.4271 51.9646 16.0031 51.4446C16.5791 50.9166 17.0631 50.3686 17.4551 49.8006C17.8551 49.2246 18.0551 48.6606 18.0551 48.1086C18.0551 47.5886 17.9271 47.1806 17.6711 46.8846C17.4231 46.5806 17.0191 46.4286 16.4591 46.4286C15.9151 46.4286 15.4911 46.6006 15.1871 46.9446C14.8911 47.2806 14.7311 47.7326 14.7071 48.3006H13.6511C13.6831 47.4046 13.9551 46.7126 14.4671 46.2246C14.9791 45.7366 15.6391 45.4926 16.4471 45.4926C17.2711 45.4926 17.9231 45.7206 18.4031 46.1766C18.8911 46.6326 19.1351 47.2606 19.1351 48.0606C19.1351 48.7246 18.9351 49.3726 18.5351 50.0046C18.1431 50.6286 17.6951 51.1806 17.1911 51.6606C16.6871 52.1326 16.0431 52.6846 15.2591 53.3166H19.3871V54.2286H13.6151V53.4486ZM20.7995 49.8966C20.7995 48.5206 21.0235 47.4486 21.4715 46.6806C21.9195 45.9046 22.7035 45.5166 23.8235 45.5166C24.9355 45.5166 25.7155 45.9046 26.1635 46.6806C26.6115 47.4486 26.8355 48.5206 26.8355 49.8966C26.8355 51.2966 26.6115 52.3846 26.1635 53.1606C25.7155 53.9366 24.9355 54.3246 23.8235 54.3246C22.7035 54.3246 21.9195 53.9366 21.4715 53.1606C21.0235 52.3846 20.7995 51.2966 20.7995 49.8966ZM25.7555 49.8966C25.7555 49.2006 25.7075 48.6126 25.6115 48.1326C25.5235 47.6446 25.3355 47.2526 25.0475 46.9566C24.7675 46.6606 24.3595 46.5126 23.8235 46.5126C23.2795 46.5126 22.8635 46.6606 22.5755 46.9566C22.2955 47.2526 22.1075 47.6446 22.0115 48.1326C21.9235 48.6126 21.8795 49.2006 21.8795 49.8966C21.8795 50.6166 21.9235 51.2206 22.0115 51.7086C22.1075 52.1966 22.2955 52.5886 22.5755 52.8846C22.8635 53.1806 23.2795 53.3286 23.8235 53.3286C24.3595 53.3286 24.7675 53.1806 25.0475 52.8846C25.3355 52.5886 25.5235 52.1966 25.6115 51.7086C25.7075 51.2206 25.7555 50.6166 25.7555 49.8966ZM28.3526 53.4486C29.3686 52.6326 30.1646 51.9646 30.7406 51.4446C31.3166 50.9166 31.8006 50.3686 32.1926 49.8006C32.5926 49.2246 32.7926 48.6606 32.7926 48.1086C32.7926 47.5886 32.6646 47.1806 32.4086 46.8846C32.1606 46.5806 31.7566 46.4286 31.1966 46.4286C30.6526 46.4286 30.2286 46.6006 29.9246 46.9446C29.6286 47.2806 29.4686 47.7326 29.4446 48.3006H28.3886C28.4206 47.4046 28.6926 46.7126 29.2046 46.2246C29.7166 45.7366 30.3766 45.4926 31.1846 45.4926C32.0086 45.4926 32.6606 45.7206 33.1406 46.1766C33.6286 46.6326 33.8726 47.2606 33.8726 48.0606C33.8726 48.7246 33.6726 49.3726 33.2726 50.0046C32.8806 50.6286 32.4326 51.1806 31.9286 51.6606C31.4246 52.1326 30.7806 52.6846 29.9966 53.3166H34.1246V54.2286H28.3526V53.4486ZM35.513 47.8326C35.569 47.0966 35.853 46.5206 36.365 46.1046C36.877 45.6886 37.541 45.4806 38.357 45.4806C38.901 45.4806 39.369 45.5806 39.761 45.7806C40.161 45.9726 40.461 46.2366 40.661 46.5726C40.869 46.9086 40.973 47.2886 40.973 47.7126C40.973 48.2086 40.829 48.6366 40.541 48.9966C40.261 49.3566 39.893 49.5886 39.437 49.6926V49.7526C39.957 49.8806 40.369 50.1326 40.673 50.5086C40.977 50.8846 41.129 51.3766 41.129 51.9846C41.129 52.4406 41.025 52.8526 40.817 53.2206C40.609 53.5806 40.297 53.8646 39.881 54.0726C39.465 54.2806 38.965 54.3846 38.381 54.3846C37.533 54.3846 36.837 54.1646 36.293 53.7246C35.749 53.2766 35.445 52.6446 35.381 51.8286H36.437C36.493 52.3086 36.689 52.7006 37.025 53.0046C37.361 53.3086 37.809 53.4606 38.369 53.4606C38.929 53.4606 39.353 53.3166 39.641 53.0286C39.937 52.7326 40.085 52.3526 40.085 51.8886C40.085 51.2886 39.885 50.8566 39.485 50.5926C39.085 50.3286 38.481 50.1966 37.673 50.1966H37.397V49.2846H37.685C38.421 49.2766 38.977 49.1566 39.353 48.9246C39.729 48.6846 39.917 48.3166 39.917 47.8206C39.917 47.3966 39.777 47.0566 39.497 46.8006C39.225 46.5446 38.833 46.4166 38.321 46.4166C37.825 46.4166 37.425 46.5446 37.121 46.8006C36.817 47.0566 36.637 47.4006 36.581 47.8326H35.513ZM51.2266 52.4646H47.5786L46.9066 54.3246H45.7546L48.7786 46.0086H50.0386L53.0506 54.3246H51.8986L51.2266 52.4646ZM50.9146 51.5766L49.4026 47.3526L47.8906 51.5766H50.9146ZM54.1105 51.0126C54.1105 50.3406 54.2465 49.7526 54.5185 49.2486C54.7905 48.7366 55.1625 48.3406 55.6345 48.0606C56.1145 47.7806 56.6505 47.6406 57.2425 47.6406C57.7545 47.6406 58.2305 47.7606 58.6705 48.0006C59.1105 48.2326 59.4465 48.5406 59.6785 48.9246V45.4446H60.7825V54.3246H59.6785V53.0886C59.4625 53.4806 59.1425 53.8046 58.7185 54.0606C58.2945 54.3086 57.7985 54.4326 57.2305 54.4326C56.6465 54.4326 56.1145 54.2886 55.6345 54.0006C55.1625 53.7126 54.7905 53.3086 54.5185 52.7886C54.2465 52.2686 54.1105 51.6766 54.1105 51.0126ZM59.6785 51.0246C59.6785 50.5286 59.5785 50.0966 59.3785 49.7286C59.1785 49.3606 58.9065 49.0806 58.5625 48.8886C58.2265 48.6886 57.8545 48.5886 57.4465 48.5886C57.0385 48.5886 56.6665 48.6846 56.3305 48.8766C55.9945 49.0686 55.7265 49.3486 55.5265 49.7166C55.3265 50.0846 55.2265 50.5166 55.2265 51.0126C55.2265 51.5166 55.3265 51.9566 55.5265 52.3326C55.7265 52.7006 55.9945 52.9846 56.3305 53.1846C56.6665 53.3766 57.0385 53.4726 57.4465 53.4726C57.8545 53.4726 58.2265 53.3766 58.5625 53.1846C58.9065 52.9846 59.1785 52.7006 59.3785 52.3326C59.5785 51.9566 59.6785 51.5206 59.6785 51.0246ZM70.6859 47.6286C71.1979 47.6286 71.6539 47.7366 72.0539 47.9526C72.4539 48.1606 72.7699 48.4766 73.0019 48.9006C73.2339 49.3246 73.3499 49.8406 73.3499 50.4486V54.3246H72.2699V50.6046C72.2699 49.9486 72.1059 49.4486 71.7779 49.1046C71.4579 48.7526 71.0219 48.5766 70.4699 48.5766C69.9019 48.5766 69.4499 48.7606 69.1139 49.1286C68.7779 49.4886 68.6099 50.0126 68.6099 50.7006V54.3246H67.5299V50.6046C67.5299 49.9486 67.3659 49.4486 67.0379 49.1046C66.7179 48.7526 66.2819 48.5766 65.7299 48.5766C65.1619 48.5766 64.7099 48.7606 64.3739 49.1286C64.0379 49.4886 63.8699 50.0126 63.8699 50.7006V54.3246H62.7779V47.7486H63.8699V48.6966C64.0859 48.3526 64.3739 48.0886 64.7339 47.9046C65.1019 47.7206 65.5059 47.6286 65.9459 47.6286C66.4979 47.6286 66.9859 47.7526 67.4099 48.0006C67.8339 48.2486 68.1499 48.6126 68.3579 49.0926C68.5419 48.6286 68.8459 48.2686 69.2699 48.0126C69.6939 47.7566 70.1659 47.6286 70.6859 47.6286ZM75.8552 46.6806C75.6472 46.6806 75.4712 46.6086 75.3272 46.4646C75.1832 46.3206 75.1112 46.1446 75.1112 45.9366C75.1112 45.7286 75.1832 45.5526 75.3272 45.4086C75.4712 45.2646 75.6472 45.1926 75.8552 45.1926C76.0552 45.1926 76.2232 45.2646 76.3592 45.4086C76.5032 45.5526 76.5752 45.7286 76.5752 45.9366C76.5752 46.1446 76.5032 46.3206 76.3592 46.4646C76.2232 46.6086 76.0552 46.6806 75.8552 46.6806ZM76.3832 47.7486V54.3246H75.2912V47.7486H76.3832ZM79.7263 48.6486V52.5246C79.7263 52.8446 79.7943 53.0726 79.9303 53.2086C80.0663 53.3366 80.3023 53.4006 80.6383 53.4006H81.4423V54.3246H80.4583C79.8503 54.3246 79.3943 54.1846 79.0903 53.9046C78.7863 53.6246 78.6343 53.1646 78.6343 52.5246V48.6486H77.7823V47.7486H78.6343V46.0926H79.7263V47.7486H81.4423V48.6486H79.7263ZM85.5674 54.4086C85.0154 54.4086 84.5194 54.3126 84.0794 54.1206C83.6474 53.9206 83.3074 53.6486 83.0594 53.3046C82.8114 52.9526 82.6834 52.5486 82.6754 52.0926H83.8394C83.8794 52.4846 84.0394 52.8166 84.3194 53.0886C84.6074 53.3526 85.0234 53.4846 85.5674 53.4846C86.0874 53.4846 86.4954 53.3566 86.7914 53.1006C87.0954 52.8366 87.2474 52.5006 87.2474 52.0926C87.2474 51.7726 87.1594 51.5126 86.9834 51.3126C86.8074 51.1126 86.5874 50.9606 86.3234 50.8566C86.0594 50.7526 85.7034 50.6406 85.2554 50.5206C84.7034 50.3766 84.2594 50.2326 83.9234 50.0886C83.5954 49.9446 83.3114 49.7206 83.0714 49.4166C82.8394 49.1046 82.7234 48.6886 82.7234 48.1686C82.7234 47.7126 82.8394 47.3086 83.0714 46.9566C83.3034 46.6046 83.6274 46.3326 84.0434 46.1406C84.4674 45.9486 84.9514 45.8526 85.4954 45.8526C86.2794 45.8526 86.9194 46.0486 87.4154 46.4406C87.9194 46.8326 88.2034 47.3526 88.2674 48.0006H87.0674C87.0274 47.6806 86.8594 47.4006 86.5634 47.1606C86.2674 46.9126 85.8754 46.7886 85.3874 46.7886C84.9314 46.7886 84.5594 46.9086 84.2714 47.1486C83.9834 47.3806 83.8394 47.7086 83.8394 48.1326C83.8394 48.4366 83.9234 48.6846 84.0914 48.8766C84.2674 49.0686 84.4794 49.2166 84.7274 49.3206C84.9834 49.4166 85.3394 49.5286 85.7954 49.6566C86.3474 49.8086 86.7914 49.9606 87.1274 50.1126C87.4634 50.2566 87.7514 50.4846 87.9914 50.7966C88.2314 51.1006 88.3514 51.5166 88.3514 52.0446C88.3514 52.4526 88.2434 52.8366 88.0274 53.1966C87.8114 53.5566 87.4914 53.8486 87.0674 54.0726C86.6434 54.2966 86.1434 54.4086 85.5674 54.4086ZM91.2004 48.9606C91.4164 48.5846 91.7364 48.2726 92.1604 48.0246C92.5924 47.7686 93.0924 47.6406 93.6604 47.6406C94.2444 47.6406 94.7724 47.7806 95.2444 48.0606C95.7244 48.3406 96.1004 48.7366 96.3724 49.2486C96.6444 49.7526 96.7804 50.3406 96.7804 51.0126C96.7804 51.6766 96.6444 52.2686 96.3724 52.7886C96.1004 53.3086 95.7244 53.7126 95.2444 54.0006C94.7724 54.2886 94.2444 54.4326 93.6604 54.4326C93.1004 54.4326 92.6044 54.3086 92.1724 54.0606C91.7484 53.8046 91.4244 53.4886 91.2004 53.1126V57.4446H90.1084V47.7486H91.2004V48.9606ZM95.6644 51.0126C95.6644 50.5166 95.5644 50.0846 95.3644 49.7166C95.1644 49.3486 94.8924 49.0686 94.5484 48.8766C94.2124 48.6846 93.8404 48.5886 93.4324 48.5886C93.0324 48.5886 92.6604 48.6886 92.3164 48.8886C91.9804 49.0806 91.7084 49.3646 91.5004 49.7406C91.3004 50.1086 91.2004 50.5366 91.2004 51.0246C91.2004 51.5206 91.3004 51.9566 91.5004 52.3326C91.7084 52.7006 91.9804 52.9846 92.3164 53.1846C92.6604 53.3766 93.0324 53.4726 93.4324 53.4726C93.8404 53.4726 94.2124 53.3766 94.5484 53.1846C94.8924 52.9846 95.1644 52.7006 95.3644 52.3326C95.5644 51.9566 95.6644 51.5166 95.6644 51.0126ZM101.236 54.4326C100.62 54.4326 100.06 54.2926 99.5557 54.0126C99.0597 53.7326 98.6677 53.3366 98.3797 52.8246C98.0997 52.3046 97.9597 51.7046 97.9597 51.0246C97.9597 50.3526 98.1037 49.7606 98.3917 49.2486C98.6877 48.7286 99.0877 48.3326 99.5917 48.0606C100.096 47.7806 100.66 47.6406 101.284 47.6406C101.908 47.6406 102.472 47.7806 102.976 48.0606C103.48 48.3326 103.876 48.7246 104.164 49.2366C104.46 49.7486 104.608 50.3446 104.608 51.0246C104.608 51.7046 104.456 52.3046 104.152 52.8246C103.856 53.3366 103.452 53.7326 102.94 54.0126C102.428 54.2926 101.86 54.4326 101.236 54.4326ZM101.236 53.4726C101.628 53.4726 101.996 53.3806 102.34 53.1966C102.684 53.0126 102.96 52.7366 103.168 52.3686C103.384 52.0006 103.492 51.5526 103.492 51.0246C103.492 50.4966 103.388 50.0486 103.18 49.6806C102.972 49.3126 102.7 49.0406 102.364 48.8646C102.028 48.6806 101.664 48.5886 101.272 48.5886C100.872 48.5886 100.504 48.6806 100.168 48.8646C99.8397 49.0406 99.5757 49.3126 99.3757 49.6806C99.1757 50.0486 99.0757 50.4966 99.0757 51.0246C99.0757 51.5606 99.1717 52.0126 99.3637 52.3806C99.5637 52.7486 99.8277 53.0246 100.156 53.2086C100.484 53.3846 100.844 53.4726 101.236 53.4726ZM107.526 48.6486V52.5246C107.526 52.8446 107.594 53.0726 107.73 53.2086C107.866 53.3366 108.102 53.4006 108.438 53.4006H109.242V54.3246H108.258C107.65 54.3246 107.194 54.1846 106.89 53.9046C106.586 53.6246 106.434 53.1646 106.434 52.5246V48.6486H105.582V47.7486H106.434V46.0926H107.526V47.7486H109.242V48.6486H107.526ZM111.843 52.8126L110.499 56.0406H109.767L110.643 52.8126H111.843ZM117.685 45.9606V54.3246H116.593V45.9606H117.685ZM122.9 47.6286C123.7 47.6286 124.348 47.8726 124.844 48.3606C125.34 48.8406 125.588 49.5366 125.588 50.4486V54.3246H124.508V50.6046C124.508 49.9486 124.344 49.4486 124.016 49.1046C123.688 48.7526 123.24 48.5766 122.672 48.5766C122.096 48.5766 121.636 48.7566 121.292 49.1166C120.956 49.4766 120.788 50.0006 120.788 50.6886V54.3246H119.696V47.7486H120.788V48.6846C121.004 48.3486 121.296 48.0886 121.664 47.9046C122.04 47.7206 122.452 47.6286 122.9 47.6286ZM127.114 51.0246C127.114 50.3446 127.25 49.7526 127.522 49.2486C127.794 48.7366 128.17 48.3406 128.65 48.0606C129.138 47.7806 129.694 47.6406 130.318 47.6406C131.126 47.6406 131.79 47.8366 132.31 48.2286C132.838 48.6206 133.186 49.1646 133.354 49.8606H132.178C132.066 49.4606 131.846 49.1446 131.518 48.9126C131.198 48.6806 130.798 48.5646 130.318 48.5646C129.694 48.5646 129.19 48.7806 128.806 49.2126C128.422 49.6366 128.23 50.2406 128.23 51.0246C128.23 51.8166 128.422 52.4286 128.806 52.8606C129.19 53.2926 129.694 53.5086 130.318 53.5086C130.798 53.5086 131.198 53.3966 131.518 53.1726C131.838 52.9486 132.058 52.6286 132.178 52.2126H133.354C133.178 52.8846 132.826 53.4246 132.298 53.8326C131.77 54.2326 131.11 54.4326 130.318 54.4326C129.694 54.4326 129.138 54.2926 128.65 54.0126C128.17 53.7326 127.794 53.3366 127.522 52.8246C127.25 52.3126 127.114 51.7126 127.114 51.0246ZM135.309 54.3966C135.101 54.3966 134.925 54.3246 134.781 54.1806C134.637 54.0366 134.565 53.8606 134.565 53.6526C134.565 53.4446 134.637 53.2686 134.781 53.1246C134.925 52.9806 135.101 52.9086 135.309 52.9086C135.509 52.9086 135.677 52.9806 135.813 53.1246C135.957 53.2686 136.029 53.4446 136.029 53.6526C136.029 53.8606 135.957 54.0366 135.813 54.1806C135.677 54.3246 135.509 54.3966 135.309 54.3966ZM145.923 52.4646H142.275L141.603 54.3246H140.451L143.475 46.0086H144.735L147.747 54.3246H146.595L145.923 52.4646ZM145.611 51.5766L144.099 47.3526L142.587 51.5766H145.611ZM150.307 45.4446V54.3246H149.215V45.4446H150.307ZM153.411 45.4446V54.3246H152.319V45.4446H153.411ZM159.863 48.8166C160.055 48.4406 160.327 48.1486 160.679 47.9406C161.039 47.7326 161.475 47.6286 161.987 47.6286V48.7566H161.699C160.475 48.7566 159.863 49.4206 159.863 50.7486V54.3246H158.771V47.7486H159.863V48.8166ZM163.961 46.6806C163.753 46.6806 163.577 46.6086 163.433 46.4646C163.289 46.3206 163.217 46.1446 163.217 45.9366C163.217 45.7286 163.289 45.5526 163.433 45.4086C163.577 45.2646 163.753 45.1926 163.961 45.1926C164.161 45.1926 164.329 45.2646 164.465 45.4086C164.609 45.5526 164.681 45.7286 164.681 45.9366C164.681 46.1446 164.609 46.3206 164.465 46.4646C164.329 46.6086 164.161 46.6806 163.961 46.6806ZM164.489 47.7486V54.3246H163.397V47.7486H164.489ZM169.213 47.6406C169.781 47.6406 170.277 47.7646 170.701 48.0126C171.133 48.2606 171.453 48.5726 171.661 48.9486V47.7486H172.765V54.4686C172.765 55.0686 172.637 55.6006 172.381 56.0646C172.125 56.5366 171.757 56.9046 171.277 57.1686C170.805 57.4326 170.253 57.5646 169.621 57.5646C168.757 57.5646 168.037 57.3606 167.461 56.9526C166.885 56.5446 166.545 55.9886 166.441 55.2846H167.521C167.641 55.6846 167.889 56.0046 168.265 56.2446C168.641 56.4926 169.093 56.6166 169.621 56.6166C170.221 56.6166 170.709 56.4286 171.085 56.0526C171.469 55.6766 171.661 55.1486 171.661 54.4686V53.0886C171.445 53.4726 171.125 53.7926 170.701 54.0486C170.277 54.3046 169.781 54.4326 169.213 54.4326C168.629 54.4326 168.097 54.2886 167.617 54.0006C167.145 53.7126 166.773 53.3086 166.501 52.7886C166.229 52.2686 166.093 51.6766 166.093 51.0126C166.093 50.3406 166.229 49.7526 166.501 49.2486C166.773 48.7366 167.145 48.3406 167.617 48.0606C168.097 47.7806 168.629 47.6406 169.213 47.6406ZM171.661 51.0246C171.661 50.5286 171.561 50.0966 171.361 49.7286C171.161 49.3606 170.889 49.0806 170.545 48.8886C170.209 48.6886 169.837 48.5886 169.429 48.5886C169.021 48.5886 168.649 48.6846 168.313 48.8766C167.977 49.0686 167.709 49.3486 167.509 49.7166C167.309 50.0846 167.209 50.5166 167.209 51.0126C167.209 51.5166 167.309 51.9566 167.509 52.3326C167.709 52.7006 167.977 52.9846 168.313 53.1846C168.649 53.3766 169.021 53.4726 169.429 53.4726C169.837 53.4726 170.209 53.3766 170.545 53.1846C170.889 52.9846 171.161 52.7006 171.361 52.3326C171.561 51.9566 171.661 51.5206 171.661 51.0246ZM178.024 47.6286C178.52 47.6286 178.968 47.7366 179.368 47.9526C179.768 48.1606 180.08 48.4766 180.304 48.9006C180.536 49.3246 180.652 49.8406 180.652 50.4486V54.3246H179.572V50.6046C179.572 49.9486 179.408 49.4486 179.08 49.1046C178.752 48.7526 178.304 48.5766 177.736 48.5766C177.16 48.5766 176.7 48.7566 176.356 49.1166C176.02 49.4766 175.852 50.0006 175.852 50.6886V54.3246H174.76V45.4446H175.852V48.6846C176.068 48.3486 176.364 48.0886 176.74 47.9046C177.124 47.7206 177.552 47.6286 178.024 47.6286ZM183.918 48.6486V52.5246C183.918 52.8446 183.986 53.0726 184.122 53.2086C184.258 53.3366 184.494 53.4006 184.83 53.4006H185.634V54.3246H184.65C184.042 54.3246 183.586 54.1846 183.282 53.9046C182.978 53.6246 182.826 53.1646 182.826 52.5246V48.6486H181.974V47.7486H182.826V46.0926H183.918V47.7486H185.634V48.6486H183.918ZM189.435 54.4326C188.931 54.4326 188.479 54.3486 188.079 54.1806C187.679 54.0046 187.363 53.7646 187.131 53.4606C186.899 53.1486 186.771 52.7926 186.747 52.3926H187.875C187.907 52.7206 188.059 52.9886 188.331 53.1966C188.611 53.4046 188.975 53.5086 189.423 53.5086C189.839 53.5086 190.167 53.4166 190.407 53.2326C190.647 53.0486 190.767 52.8166 190.767 52.5366C190.767 52.2486 190.639 52.0366 190.383 51.9006C190.127 51.7566 189.731 51.6166 189.195 51.4806C188.707 51.3526 188.307 51.2246 187.995 51.0966C187.691 50.9606 187.427 50.7646 187.203 50.5086C186.987 50.2446 186.879 49.9006 186.879 49.4766C186.879 49.1406 186.979 48.8326 187.179 48.5526C187.379 48.2726 187.663 48.0526 188.031 47.8926C188.399 47.7246 188.819 47.6406 189.291 47.6406C190.019 47.6406 190.607 47.8246 191.055 48.1926C191.503 48.5606 191.743 49.0646 191.775 49.7046H190.683C190.659 49.3606 190.519 49.0846 190.263 48.8766C190.015 48.6686 189.679 48.5646 189.255 48.5646C188.863 48.5646 188.551 48.6486 188.319 48.8166C188.087 48.9846 187.971 49.2046 187.971 49.4766C187.971 49.6926 188.039 49.8726 188.175 50.0166C188.319 50.1526 188.495 50.2646 188.703 50.3526C188.919 50.4326 189.215 50.5246 189.591 50.6286C190.063 50.7566 190.447 50.8846 190.743 51.0126C191.039 51.1326 191.291 51.3166 191.499 51.5646C191.715 51.8126 191.827 52.1366 191.835 52.5366C191.835 52.8966 191.735 53.2206 191.535 53.5086C191.335 53.7966 191.051 54.0246 190.683 54.1926C190.323 54.3526 189.907 54.4326 189.435 54.4326ZM197.968 48.8166C198.16 48.4406 198.432 48.1486 198.784 47.9406C199.144 47.7326 199.58 47.6286 200.092 47.6286V48.7566H199.804C198.58 48.7566 197.968 49.4206 197.968 50.7486V54.3246H196.876V47.7486H197.968V48.8166ZM207.502 50.7846C207.502 50.9926 207.49 51.2126 207.466 51.4446H202.21C202.25 52.0926 202.47 52.6006 202.87 52.9686C203.278 53.3286 203.77 53.5086 204.346 53.5086C204.818 53.5086 205.21 53.4006 205.522 53.1846C205.842 52.9606 206.066 52.6646 206.194 52.2966H207.37C207.194 52.9286 206.842 53.4446 206.314 53.8446C205.786 54.2366 205.13 54.4326 204.346 54.4326C203.722 54.4326 203.162 54.2926 202.666 54.0126C202.178 53.7326 201.794 53.3366 201.514 52.8246C201.234 52.3046 201.094 51.7046 201.094 51.0246C201.094 50.3446 201.23 49.7486 201.502 49.2366C201.774 48.7246 202.154 48.3326 202.642 48.0606C203.138 47.7806 203.706 47.6406 204.346 47.6406C204.97 47.6406 205.522 47.7766 206.002 48.0486C206.482 48.3206 206.85 48.6966 207.106 49.1766C207.37 49.6486 207.502 50.1846 207.502 50.7846ZM206.374 50.5566C206.374 50.1406 206.282 49.7846 206.098 49.4886C205.914 49.1846 205.662 48.9566 205.342 48.8046C205.03 48.6446 204.682 48.5646 204.298 48.5646C203.746 48.5646 203.274 48.7406 202.882 49.0926C202.498 49.4446 202.278 49.9326 202.222 50.5566H206.374ZM211.422 54.4326C210.918 54.4326 210.466 54.3486 210.066 54.1806C209.666 54.0046 209.35 53.7646 209.118 53.4606C208.886 53.1486 208.758 52.7926 208.734 52.3926H209.862C209.894 52.7206 210.046 52.9886 210.318 53.1966C210.598 53.4046 210.962 53.5086 211.41 53.5086C211.826 53.5086 212.154 53.4166 212.394 53.2326C212.634 53.0486 212.754 52.8166 212.754 52.5366C212.754 52.2486 212.626 52.0366 212.37 51.9006C212.114 51.7566 211.718 51.6166 211.182 51.4806C210.694 51.3526 210.294 51.2246 209.982 51.0966C209.678 50.9606 209.414 50.7646 209.19 50.5086C208.974 50.2446 208.866 49.9006 208.866 49.4766C208.866 49.1406 208.966 48.8326 209.166 48.5526C209.366 48.2726 209.65 48.0526 210.018 47.8926C210.386 47.7246 210.806 47.6406 211.278 47.6406C212.006 47.6406 212.594 47.8246 213.042 48.1926C213.49 48.5606 213.73 49.0646 213.762 49.7046H212.67C212.646 49.3606 212.506 49.0846 212.25 48.8766C212.002 48.6686 211.666 48.5646 211.242 48.5646C210.85 48.5646 210.538 48.6486 210.306 48.8166C210.074 48.9846 209.958 49.2046 209.958 49.4766C209.958 49.6926 210.026 49.8726 210.162 50.0166C210.306 50.1526 210.482 50.2646 210.69 50.3526C210.906 50.4326 211.202 50.5246 211.578 50.6286C212.05 50.7566 212.434 50.8846 212.73 51.0126C213.026 51.1326 213.278 51.3166 213.486 51.5646C213.702 51.8126 213.814 52.1366 213.822 52.5366C213.822 52.8966 213.722 53.2206 213.522 53.5086C213.322 53.7966 213.038 54.0246 212.67 54.1926C212.31 54.3526 211.894 54.4326 211.422 54.4326ZM221.513 50.7846C221.513 50.9926 221.501 51.2126 221.477 51.4446H216.221C216.261 52.0926 216.481 52.6006 216.881 52.9686C217.289 53.3286 217.781 53.5086 218.357 53.5086C218.829 53.5086 219.221 53.4006 219.533 53.1846C219.853 52.9606 220.077 52.6646 220.205 52.2966H221.381C221.205 52.9286 220.853 53.4446 220.325 53.8446C219.797 54.2366 219.141 54.4326 218.357 54.4326C217.733 54.4326 217.173 54.2926 216.677 54.0126C216.189 53.7326 215.805 53.3366 215.525 52.8246C215.245 52.3046 215.105 51.7046 215.105 51.0246C215.105 50.3446 215.241 49.7486 215.513 49.2366C215.785 48.7246 216.165 48.3326 216.653 48.0606C217.149 47.7806 217.717 47.6406 218.357 47.6406C218.981 47.6406 219.533 47.7766 220.013 48.0486C220.493 48.3206 220.861 48.6966 221.117 49.1766C221.381 49.6486 221.513 50.1846 221.513 50.7846ZM220.385 50.5566C220.385 50.1406 220.293 49.7846 220.109 49.4886C219.925 49.1846 219.673 48.9566 219.353 48.8046C219.041 48.6446 218.693 48.5646 218.309 48.5646C217.757 48.5646 217.285 48.7406 216.893 49.0926C216.509 49.4446 216.289 49.9326 216.233 50.5566H220.385ZM224.196 48.8166C224.388 48.4406 224.66 48.1486 225.012 47.9406C225.372 47.7326 225.808 47.6286 226.32 47.6286V48.7566H226.032C224.808 48.7566 224.196 49.4206 224.196 50.7486V54.3246H223.104V47.7486H224.196V48.8166ZM230.179 53.3166L232.219 47.7486H233.383L230.803 54.3246H229.531L226.951 47.7486H228.127L230.179 53.3166ZM240.608 50.7846C240.608 50.9926 240.596 51.2126 240.572 51.4446H235.316C235.356 52.0926 235.576 52.6006 235.976 52.9686C236.384 53.3286 236.876 53.5086 237.452 53.5086C237.924 53.5086 238.316 53.4006 238.628 53.1846C238.948 52.9606 239.172 52.6646 239.3 52.2966H240.476C240.3 52.9286 239.948 53.4446 239.42 53.8446C238.892 54.2366 238.236 54.4326 237.452 54.4326C236.828 54.4326 236.268 54.2926 235.772 54.0126C235.284 53.7326 234.9 53.3366 234.62 52.8246C234.34 52.3046 234.2 51.7046 234.2 51.0246C234.2 50.3446 234.336 49.7486 234.608 49.2366C234.88 48.7246 235.26 48.3326 235.748 48.0606C236.244 47.7806 236.812 47.6406 237.452 47.6406C238.076 47.6406 238.628 47.7766 239.108 48.0486C239.588 48.3206 239.956 48.6966 240.212 49.1766C240.476 49.6486 240.608 50.1846 240.608 50.7846ZM239.48 50.5566C239.48 50.1406 239.388 49.7846 239.204 49.4886C239.02 49.1846 238.768 48.9566 238.448 48.8046C238.136 48.6446 237.788 48.5646 237.404 48.5646C236.852 48.5646 236.38 48.7406 235.988 49.0926C235.604 49.4446 235.384 49.9326 235.328 50.5566H239.48ZM241.791 51.0126C241.791 50.3406 241.927 49.7526 242.199 49.2486C242.471 48.7366 242.843 48.3406 243.315 48.0606C243.795 47.7806 244.331 47.6406 244.923 47.6406C245.435 47.6406 245.911 47.7606 246.351 48.0006C246.791 48.2326 247.127 48.5406 247.359 48.9246V45.4446H248.463V54.3246H247.359V53.0886C247.143 53.4806 246.823 53.8046 246.399 54.0606C245.975 54.3086 245.479 54.4326 244.911 54.4326C244.327 54.4326 243.795 54.2886 243.315 54.0006C242.843 53.7126 242.471 53.3086 242.199 52.7886C241.927 52.2686 241.791 51.6766 241.791 51.0126ZM247.359 51.0246C247.359 50.5286 247.259 50.0966 247.059 49.7286C246.859 49.3606 246.587 49.0806 246.243 48.8886C245.907 48.6886 245.535 48.5886 245.127 48.5886C244.719 48.5886 244.347 48.6846 244.011 48.8766C243.675 49.0686 243.407 49.3486 243.207 49.7166C243.007 50.0846 242.907 50.5166 242.907 51.0126C242.907 51.5166 243.007 51.9566 243.207 52.3326C243.407 52.7006 243.675 52.9846 244.011 53.1846C244.347 53.3766 244.719 53.4726 245.127 53.4726C245.535 53.4726 245.907 53.3766 246.243 53.1846C246.587 52.9846 246.859 52.7006 247.059 52.3326C247.259 51.9566 247.359 51.5206 247.359 51.0246ZM250.806 54.3966C250.598 54.3966 250.422 54.3246 250.278 54.1806C250.134 54.0366 250.062 53.8606 250.062 53.6526C250.062 53.4446 250.134 53.2686 250.278 53.1246C250.422 52.9806 250.598 52.9086 250.806 52.9086C251.006 52.9086 251.174 52.9806 251.31 53.1246C251.454 53.2686 251.526 53.4446 251.526 53.6526C251.526 53.8606 251.454 54.0366 251.31 54.1806C251.174 54.3246 251.006 54.3966 250.806 54.3966Z" fill="#BABABA"/>
<defs>
<clipPath id="clip0_39_3351">
<rect width="143" height="30" fill="white" transform="translate(0 0.44458)"/>
</clipPath>
</defs>
</svg>
