<svg width="298" height="234" viewBox="0 0 298 234" fill="none" xmlns="http://www.w3.org/2000/svg">
<path d="M31.7787 69.9167C-27.1023 65.3874 9.13214 92.9407 34.6095 107.284L37.933 122.858C33.6193 116.252 18.9345 103.32 7.99965 119.173C-5.66889 138.989 51.5944 129.93 41.4035 183.149C31.2125 236.369 75.3733 185.98 112.74 175.789C150.107 165.598 157.96 210.047 184.003 197.591C198.468 190.673 167.658 171.26 190.305 148.613C212.951 125.967 220.665 185.466 264.398 147.481C298.295 118.041 316.245 84.5901 270.626 63.1227C247.414 52.1991 224.201 67.0859 180.04 60.8581C135.879 54.6303 135.313 -2.25021 105.306 0.0689919C56.6006 3.83345 105.38 75.5783 31.7787 69.9167Z" fill="#88B1FF"/>
<path d="M136.076 29.0343H230.706C230.902 29.0343 231.096 29.0729 231.277 29.1478C231.458 29.2228 231.622 29.3326 231.761 29.4711C231.899 29.6096 232.009 29.7739 232.084 29.9549C232.159 30.1358 232.198 30.3297 232.198 30.5255V90.5095C232.198 90.9329 232.114 91.3521 231.952 91.7432C231.79 92.1343 231.553 92.4897 231.254 92.789C230.954 93.0883 230.599 93.3258 230.208 93.4878C229.817 93.6498 229.397 93.7332 228.974 93.7332H137.574C136.719 93.7332 135.899 93.3935 135.295 92.789C134.69 92.1844 134.351 91.3645 134.351 90.5095V30.749C134.351 30.2942 134.531 29.8581 134.853 29.5365C135.174 29.215 135.611 29.0343 136.065 29.0343H136.076Z" fill="#263238"/>
<path d="M130.273 88.9475H236.269V91.5716C236.269 92.3767 235.949 93.1488 235.38 93.7181C234.81 94.2873 234.038 94.6072 233.233 94.6072H133.306C132.502 94.6066 131.73 94.2865 131.161 93.7173C130.593 93.1481 130.273 92.3763 130.273 91.5716V88.9475Z" fill="#263238"/>
<path d="M229.297 31.6053H136.988V86.2416H229.297V31.6053Z" fill="white"/>
<path d="M173.636 88.9475L174.951 91.0406H193.458L194.682 88.9475H173.636Z" fill="#455A64"/>
<path d="M232.213 88.9276H134.377V89.2396H232.213V88.9276Z" fill="#455A64"/>
<path d="M185.091 34.6276L184.427 35.1166L182.403 36.5326C179.445 38.5275 176.371 40.3436 173.196 41.971C171.269 42.9467 169.346 43.8472 167.479 44.6482C165.384 45.5332 163.253 46.343 161.147 47.0621L159.503 47.6041L157.866 48.1042L156.248 48.5555L154.649 48.998L154.082 49.1396C153.744 49.2259 153.405 49.3122 153.069 49.3874L151.52 49.7414C151.188 49.8145 150.856 49.8808 150.527 49.945L149.989 50.0534L148.476 50.3255C146.455 50.7017 144.493 50.9716 142.825 51.1442C140.833 51.3455 138.975 51.4628 137.479 51.5247L137.493 51.8389C138.882 51.7836 140.847 51.6663 142.858 51.465C144.537 51.2681 146.5 51.0225 148.533 50.6486L150.042 50.3654L150.577 50.2592C150.909 50.195 151.241 50.1286 151.58 50.0534L153.142 49.7016C153.48 49.6264 153.819 49.5401 154.16 49.4516L154.728 49.31L155.534 49.1064L159.605 47.9205L161.253 47.3762C163.37 46.655 165.508 45.8275 167.61 44.9425C169.484 44.1393 171.413 43.2344 173.347 42.252C176.529 40.6165 179.61 38.7893 182.571 36.7804L183.931 35.8401C184.027 35.7737 184.117 35.7051 184.208 35.6388L185.268 34.8666L185.091 34.6276Z" fill="#E0E0E0"/>
<path d="M229.297 31.488H136.988V39.8603H229.297V31.488Z" fill="#E0E0E0"/>
<path d="M141.893 37.484C142.727 37.484 143.402 36.8084 143.402 35.9751C143.402 35.1417 142.727 34.4661 141.893 34.4661C141.06 34.4661 140.384 35.1417 140.384 35.9751C140.384 36.8084 141.06 37.484 141.893 37.484Z" fill="white"/>
<path d="M147.369 35.86C147.369 36.1584 147.281 36.4501 147.115 36.6983C146.949 36.9464 146.713 37.1398 146.438 37.254C146.162 37.3683 145.859 37.3981 145.566 37.3399C145.273 37.2817 145.004 37.138 144.793 36.9269C144.582 36.7159 144.439 36.447 144.38 36.1543C144.322 35.8616 144.352 35.5582 144.466 35.2825C144.58 35.0068 144.774 34.7711 145.022 34.6053C145.27 34.4395 145.562 34.351 145.86 34.351C146.26 34.351 146.644 34.51 146.927 34.793C147.21 35.076 147.369 35.4598 147.369 35.86Z" fill="white"/>
<path d="M151.336 35.7427C151.336 36.0412 151.248 36.3329 151.082 36.581C150.916 36.8292 150.681 37.0226 150.405 37.1368C150.129 37.251 149.826 37.2809 149.533 37.2227C149.24 37.1644 148.971 37.0207 148.76 36.8097C148.549 36.5987 148.406 36.3298 148.347 36.0371C148.289 35.7444 148.319 35.441 148.433 35.1653C148.547 34.8895 148.741 34.6539 148.989 34.4881C149.237 34.3223 149.529 34.2338 149.827 34.2338C150.228 34.2338 150.611 34.3927 150.894 34.6757C151.177 34.9587 151.336 35.3425 151.336 35.7427Z" fill="white"/>
<path d="M228.647 54.5028L226.255 54.1908C222.809 53.6824 219.396 52.9687 216.035 52.0535C214.004 51.4871 212.022 50.8676 210.148 50.2149C208.055 49.4737 205.984 48.6551 203.99 47.7811L202.441 47.0908L200.932 46.3717L199.461 45.6372L198.027 44.8893L197.534 44.6216C197.233 44.4601 196.932 44.3008 196.649 44.1327L195.29 43.3605C195.003 43.1946 194.72 43.0242 194.439 42.8538L193.967 42.5817L192.697 41.794C191.416 41.0138 190.174 40.169 188.978 39.2629L188.52 39.3337C189.861 40.2983 190.812 40.9909 192.527 42.0595L193.801 42.8516L194.257 43.126C194.54 43.2963 194.826 43.4711 195.116 43.6393L196.474 44.4114C196.768 44.5818 197.069 44.7433 197.372 44.9048L197.877 45.1748L198.592 45.5597L202.309 47.3873L203.857 48.0798C205.86 48.9648 207.94 49.7768 210.041 50.5136C211.922 51.1774 213.911 51.788 215.951 52.3544C219.326 53.2697 222.753 53.9812 226.213 54.4851L227.813 54.7064C227.925 54.7218 228.034 54.7329 228.147 54.744L229.419 54.8856L229.454 54.5891L228.647 54.5028Z" fill="#E0E0E0"/>
<path d="M198.763 42.0997C198.48 41.124 197.977 40.2102 197.798 39.2102C197.409 37.0596 196.743 35.8538 195.769 33.9001C195.075 32.5084 195.307 30.6211 193.838 30.1167C192.369 29.6122 190.961 29.2847 189.879 28.1586C189.092 27.3333 188.665 26.2182 187.888 25.3885C186.771 24.2092 185.081 23.7667 183.463 23.6184C181.802 23.4636 181.067 25.1517 179.545 25.831C178.023 26.5102 176.115 26.4615 175.797 28.101C175.64 28.8998 175.339 29.5569 175.062 30.3136C174.755 31.1543 174.067 31.7938 173.628 32.577C173.186 33.4162 173.035 34.3787 173.199 35.313C173.364 36.2474 173.834 37.1007 174.536 37.7388L185.499 52.8748C187.871 53.8593 190.656 50.9211 192.579 49.2064C194.501 47.4917 199.482 44.5756 198.763 42.0997Z" fill="#263238"/>
<path d="M167.501 43.8459C167.786 42.7646 166.531 41.9425 167.11 40.8684C167.638 39.8897 169.534 39.4011 170.023 38.4164C170.397 37.6471 172.725 36.4952 172.6 35.8995C172.438 35.1421 171.549 32.2887 174.117 31.1273L175.449 33.8379C175.706 33.6338 175.976 33.445 176.242 33.2662C179.663 30.9842 183.344 29.1181 187.207 27.7072C187.884 28.414 187.673 29.6274 187.059 30.3883C186.445 31.1492 185.539 31.5961 184.719 32.1303C183.899 32.6644 183.099 33.384 182.926 34.347C182.745 35.3723 183.318 36.4076 183.194 37.4491C182.968 39.2239 180.801 40.2663 180.58 42.0424C180.417 43.3865 181.436 44.5509 181.906 45.8195C182.17 46.5422 182.26 47.3164 182.171 48.0803C182.081 48.8442 181.814 49.5766 181.391 50.219C180.717 51.2231 181.589 52.8232 181.589 52.8232L165.224 48.0328C164.087 46.4584 167.108 45.3236 167.501 43.8459Z" fill="#263238"/>
<path d="M173.962 36.5459C174.539 33.2071 177.216 29.3264 180.526 30.0454L190.704 33.8289C191.711 34.0501 192.213 34.8865 191.589 34.6276L188.733 59.0009L181.181 63.6959L177.068 57.6379C177.265 55.6002 177.342 54.1421 177.342 54.1421C177.342 54.1421 173.097 53.3434 172.818 47.6417C172.678 44.8075 173.318 40.2541 173.962 36.5459Z" fill="#FFBF9D"/>
<path d="M182.467 41.574C182.444 41.7611 182.495 41.9497 182.61 42.0994C182.724 42.2491 182.893 42.348 183.08 42.375C183.17 42.3924 183.263 42.3916 183.354 42.3724C183.444 42.3532 183.53 42.3161 183.605 42.2633C183.681 42.2105 183.745 42.1431 183.795 42.0649C183.844 41.9868 183.877 41.8996 183.892 41.8085C183.914 41.6215 183.862 41.4333 183.748 41.2837C183.633 41.1341 183.465 41.0351 183.279 41.0076C183.188 40.9901 183.095 40.991 183.005 41.0102C182.914 41.0294 182.829 41.0664 182.753 41.1193C182.677 41.1721 182.613 41.2395 182.564 41.3176C182.515 41.3957 182.482 41.4829 182.467 41.574Z" fill="#263238"/>
<path d="M175.347 40.8793C175.325 41.0665 175.377 41.2548 175.492 41.4043C175.607 41.5537 175.775 41.6527 175.962 41.6802C176.053 41.6974 176.146 41.6963 176.236 41.677C176.326 41.6577 176.411 41.6205 176.487 41.5678C176.563 41.515 176.627 41.4477 176.676 41.3697C176.726 41.2918 176.759 41.2047 176.774 41.1138C176.796 40.9269 176.744 40.7389 176.629 40.5895C176.515 40.44 176.347 40.3409 176.161 40.3129C176.07 40.2957 175.977 40.2967 175.887 40.316C175.796 40.3353 175.711 40.3724 175.635 40.4251C175.559 40.4779 175.495 40.5452 175.445 40.6232C175.396 40.7012 175.362 40.7882 175.347 40.8793Z" fill="#263238"/>
<path d="M174.495 39.1478C174.568 39.2828 175.254 38.8801 176.088 39.0283C176.922 39.1766 177.444 39.7695 177.557 39.6678C177.61 39.6213 177.557 39.3934 177.336 39.1213C177.044 38.7734 176.638 38.5406 176.19 38.4644C175.742 38.3882 175.282 38.4736 174.891 38.7053C174.586 38.889 174.457 39.0859 174.495 39.1478Z" fill="#263238"/>
<path d="M182.146 40.2408C182.241 40.3647 182.918 39.909 183.819 39.9753C184.719 40.0417 185.343 40.5727 185.449 40.4621C185.502 40.4134 185.414 40.1944 185.142 39.9488C184.78 39.6341 184.325 39.4468 183.847 39.4156C183.373 39.3816 182.901 39.5069 182.506 39.7718C182.212 39.9798 182.099 40.1855 182.146 40.2408Z" fill="#263238"/>
<path d="M178.845 45.4314C178.845 45.3894 178.382 45.2522 177.615 45.0685C177.42 45.0265 177.236 44.9668 177.218 44.8274C177.225 44.6219 177.293 44.423 177.413 44.2565C177.652 43.8008 177.9 43.3206 178.161 42.8184C179.205 40.7652 179.984 39.0704 179.902 39.0283C179.82 38.9863 178.904 40.6169 177.86 42.6679L177.137 44.1304C177.037 44.3517 176.88 44.5884 176.949 44.896C176.97 44.9686 177.008 45.0354 177.059 45.0913C177.11 45.1473 177.173 45.1909 177.243 45.219C177.349 45.2607 177.46 45.2889 177.573 45.3031C178.351 45.4181 178.838 45.4756 178.845 45.4314Z" fill="#263238"/>
<path d="M177.314 54.1643C179.948 54.4913 182.62 54.0815 185.035 52.9806C185.035 52.9806 182.779 56.9631 177.227 55.8259L177.314 54.1643Z" fill="#FF9A6C"/>
<path d="M182.305 37.6012C182.358 37.8225 183.142 37.8048 184.038 38.0128C184.934 38.2208 185.639 38.5504 185.781 38.3734C185.843 38.2893 185.737 38.0769 185.465 37.8424C185.096 37.5488 184.665 37.3432 184.205 37.2412C183.745 37.1392 183.268 37.1435 182.81 37.2539C182.469 37.3512 182.283 37.4928 182.305 37.6012Z" fill="#263238"/>
<path d="M174.875 36.3622C175.013 36.5547 175.641 36.4375 176.373 36.5083C177.106 36.5791 177.712 36.7738 177.876 36.6056C177.949 36.5237 177.876 36.3379 177.617 36.141C177.268 35.8943 176.857 35.7489 176.431 35.7206C176.008 35.6781 175.581 35.7547 175.199 35.9419C174.922 36.0967 174.816 36.2671 174.875 36.3622Z" fill="#263238"/>
<path d="M201.537 40.4177C201.054 39.4088 202.134 38.3667 201.364 37.4197C200.663 36.5568 198.709 36.4307 198.045 35.5545C197.534 34.8687 195.032 34.1717 195.043 33.5633C195.061 32.7889 195.401 29.8197 192.662 29.1581L191.859 32.0698C191.569 31.9171 191.268 31.7822 190.974 31.6561C187.187 30.053 183.222 28.907 179.163 28.2421C178.63 29.063 179.064 30.2157 179.81 30.8485C180.555 31.4813 181.529 31.7512 182.434 32.1229C183.339 32.4946 184.259 33.0522 184.609 33.9659C184.978 34.9395 184.609 36.0634 184.925 37.0635C185.478 38.7649 187.801 39.3844 188.35 41.0881C188.761 42.378 187.978 43.7122 187.753 45.0463C187.629 45.8054 187.685 46.5829 187.915 47.3167C188.146 48.0505 188.545 48.7202 189.08 49.2723C189.93 50.1329 189.372 51.8676 189.372 51.8676L206.15 50.5418C206.973 48.7828 202.198 41.7961 201.537 40.4177Z" fill="#263238"/>
<path d="M198.129 48.7767C198.139 48.748 198.151 48.7199 198.165 48.6927C198.205 48.6123 198.238 48.5287 198.264 48.4426C198.372 48.1142 198.404 47.7653 198.357 47.4227C198.29 46.8792 198.047 46.3726 197.665 45.9801C197.427 45.7381 197.135 45.5561 196.813 45.4491C196.472 45.334 196.087 45.2831 195.706 45.1283C195.507 45.0524 195.326 44.9348 195.175 44.7831C195.023 44.6205 194.908 44.4264 194.839 44.2145C194.71 43.7654 194.678 43.2942 194.744 42.8317C194.822 42.3498 194.853 41.8614 194.835 41.3736C194.817 41.1232 194.747 40.8793 194.631 40.6567C194.507 40.4318 194.334 40.2376 194.125 40.0881C193.664 39.8017 193.161 39.5917 192.633 39.4664C192.071 39.3345 191.535 39.1054 191.051 38.7894C190.808 38.6097 190.609 38.3756 190.472 38.1057C190.337 37.8272 190.251 37.5279 190.217 37.2207C190.133 36.6189 190.164 36.0038 190.08 35.3998C189.992 34.8137 189.757 34.2594 189.397 33.7889C189.037 33.3183 188.563 32.9469 188.02 32.7093C187.496 32.4704 186.914 32.4305 186.367 32.3465C186.089 32.3107 185.815 32.2455 185.551 32.1518C185.287 32.0577 185.049 31.9013 184.858 31.696C184.484 31.2756 184.374 30.7335 184.226 30.2578C184.094 29.7899 183.868 29.3539 183.562 28.9768C183 28.3008 182.216 27.8473 181.349 27.6979C180.634 27.582 179.9 27.7024 179.258 28.0409C178.774 28.2961 178.35 28.6513 178.013 29.083C177.802 29.3574 177.633 29.6617 177.511 29.9857C177.462 30.0941 177.444 30.1826 177.422 30.2401C177.415 30.2701 177.405 30.299 177.391 30.3264C177.416 30.2079 177.448 30.0911 177.488 29.9768C177.603 29.6465 177.768 29.336 177.977 29.0564C178.312 28.6133 178.738 28.2479 179.228 27.9856C179.88 27.6337 180.63 27.5047 181.363 27.6183C182.253 27.7642 183.061 28.2252 183.639 28.917C183.956 29.3025 184.191 29.7491 184.327 30.2291C184.478 30.7092 184.591 31.2358 184.942 31.6252C185.294 32.0146 185.847 32.1628 186.389 32.2403C186.932 32.3177 187.527 32.362 188.071 32.6075C188.632 32.8538 189.122 33.2389 189.493 33.7267C189.864 34.2144 190.105 34.7887 190.193 35.3953C190.277 36.0148 190.246 36.6277 190.328 37.2163C190.363 37.5071 190.445 37.7904 190.571 38.0548C190.7 38.3102 190.887 38.5315 191.118 38.7009C192.051 39.3646 193.284 39.3646 194.186 40.004C194.408 40.1627 194.591 40.3691 194.722 40.6081C194.845 40.843 194.921 41.1003 194.943 41.3648C194.959 41.8594 194.926 42.3544 194.846 42.8427C194.779 43.2913 194.808 43.7489 194.93 44.1857C194.994 44.3864 195.101 44.5707 195.244 44.7256C195.387 44.8682 195.557 44.9803 195.744 45.0553C196.114 45.2057 196.499 45.261 196.85 45.3805C197.181 45.4939 197.481 45.6842 197.724 45.9358C198.11 46.3404 198.353 46.8604 198.415 47.416C198.458 47.7647 198.419 48.1188 198.3 48.4493C198.27 48.5351 198.233 48.6181 198.189 48.6971C198.173 48.7264 198.153 48.7532 198.129 48.7767Z" fill="#455A64"/>
<path d="M179.066 46.9426C179.838 46.7811 180.807 46.5399 181.579 46.3762C181.74 46.6995 181.795 47.0653 181.736 47.4216C181.677 47.7778 181.507 48.1064 181.25 48.3605C180.994 48.6146 180.664 48.7813 180.307 48.837C179.95 48.8927 179.585 48.8344 179.263 48.6706" fill="#FF9A6C"/>
<path d="M179.263 48.6705C179.263 48.6705 179.334 48.7458 179.502 48.8144C179.743 48.9046 180.002 48.9379 180.259 48.9117C180.647 48.8765 181.012 48.7157 181.301 48.4537C181.473 48.288 181.611 48.09 181.707 47.8709C181.802 47.6518 181.854 47.4161 181.858 47.1771C181.869 46.8837 181.806 46.5923 181.675 46.3297L181.637 46.2545L181.557 46.2722C180.816 46.4359 180.174 46.5863 179.719 46.7036C179.47 46.7449 179.228 46.8193 179 46.9249C179.252 46.9252 179.503 46.8947 179.747 46.8341C180.21 46.7545 180.854 46.6328 181.602 46.4801L181.484 46.4226C181.593 46.6558 181.646 46.911 181.639 47.1682C181.629 47.5944 181.457 48.0008 181.159 48.3055C180.905 48.5437 180.584 48.6982 180.239 48.748C180.003 48.785 179.761 48.7767 179.528 48.7236C179.36 48.6927 179.272 48.6551 179.263 48.6705Z" fill="#263238"/>
<path d="M199.412 57.6512C199.412 57.7309 196.895 57.9035 193.782 58.0384C190.669 58.1734 188.142 58.2221 188.14 58.1446C188.137 58.0672 190.655 57.8924 193.77 57.7574C196.886 57.6225 199.41 57.5738 199.412 57.6512Z" fill="white"/>
<path d="M162.941 69.2803C162.941 69.2803 163.527 64.5964 165.784 62.2555C168.041 59.9146 177.154 56.6998 177.154 56.6998C177.154 56.6998 177.878 60.324 180.139 61.1249C182.537 61.9789 185.248 61.6581 186.998 59.6204C188.697 57.649 189.272 54.3369 189.272 54.3369C189.272 54.3369 200.472 56.1533 202.313 59.2465C204.154 62.3396 206.53 74.3227 206.53 74.3227L195.985 76.5662L196.359 86.1686H170.727L169.95 77.8295L162.319 78.9181L162.941 69.2803Z" fill="#395DAC"/>
<path d="M193.899 77.2476C193.863 77.0954 193.85 76.939 193.859 76.783C193.859 76.4821 193.848 76.0484 193.848 75.5152C193.848 74.4443 193.866 72.9664 193.899 71.3335C193.932 69.7007 193.976 68.2227 194.02 67.154C194.043 66.6186 194.065 66.1849 194.087 65.8863C194.085 65.7297 194.104 65.5735 194.142 65.4216C194.177 65.5738 194.19 65.7304 194.18 65.8863C194.18 66.1849 194.193 66.6186 194.193 67.154C194.193 68.2249 194.175 69.7029 194.142 71.3357C194.109 72.9686 194.063 74.4465 194.02 75.5174C193.998 76.0528 193.976 76.4843 193.954 76.783C193.956 76.9396 193.937 77.0958 193.899 77.2476Z" fill="#263238"/>
<path d="M167.727 68.4934C167.793 68.4803 168.301 70.615 168.859 73.2613C169.418 75.9076 169.82 78.0658 169.755 78.0789C169.69 78.092 169.183 75.9596 168.623 73.311C168.063 70.6623 167.662 68.5065 167.727 68.4934Z" fill="#263238"/>
<path d="M201.14 58.5119C201.14 58.5562 200.64 58.6491 199.87 58.9411C197.851 59.7143 196.171 61.1767 195.127 63.0697C194.729 63.791 194.567 64.2822 194.525 64.2667C194.531 64.1443 194.558 64.0239 194.605 63.9105C194.701 63.5936 194.825 63.2857 194.974 62.9901C195.464 62.0054 196.144 61.1272 196.974 60.4058C197.805 59.6844 198.769 59.134 199.813 58.7863C200.127 58.6795 200.45 58.6002 200.778 58.5495C200.896 58.517 201.018 58.5043 201.14 58.5119Z" fill="#263238"/>
<path d="M166.39 62.8369C166.458 62.8239 166.632 63.4885 166.781 64.3221C166.93 65.1557 166.999 65.8372 166.931 65.8501C166.864 65.863 166.692 65.1964 166.543 64.365C166.394 63.5336 166.325 62.8477 166.39 62.8369Z" fill="#263238"/>
<path d="M169.917 77.8583L164.222 78.4984L160.817 69.7146L155.31 71.9426C155.31 71.9426 158.348 82.2265 159.534 86.3838H170.716L169.917 77.8583Z" fill="#FFBF9D"/>
<path d="M167.752 84.7604C167.192 84.0818 166.675 83.3579 166.207 82.5945C165.832 81.9682 165.498 81.3108 165.209 80.6279C164.96 80.0445 164.791 79.5555 164.677 79.2176C164.628 79.0371 164.566 78.8616 164.492 78.6929C164.51 78.8815 164.549 79.0668 164.606 79.2448C164.74 79.7396 164.899 80.2246 165.084 80.6972C165.36 81.3979 165.685 82.0718 166.057 82.712C166.523 83.4891 167.041 84.2232 167.608 84.9073C167.954 85.2927 168.254 85.7289 168.499 86.2044H168.665C168.395 85.6702 168.134 85.1973 167.752 84.7604Z" fill="#FF9A6C"/>
<path d="M160.826 69.7145C160.826 69.7145 160.848 65.8714 160.509 64.7894L157.945 58.8045C157.945 58.8045 157.204 58.424 157.06 59.5656C156.995 60.3852 157.14 61.2077 157.483 61.9552L157.564 63.5438L156.458 62.6588L154.343 58.6961C154.343 58.6961 152.887 55.8198 152.507 56.2623C152.126 56.7048 152.254 57.6474 152.883 58.893L154.31 61.7184C154.31 61.7184 154.531 62.2185 153.777 61.4972C153.022 60.7759 151.4 57.2469 151.064 56.8066C150.728 56.3663 150.265 55.0742 149.537 55.3663C148.809 55.6583 149.741 57.2071 149.741 57.2071L152.075 62.4331C152.075 62.4331 150.723 60.4529 150.478 60.1188C150.232 59.7847 149.67 58.6519 149.228 58.0766C148.785 57.5014 148.301 57.2735 147.98 57.4129C147.825 57.4714 147.698 57.5855 147.623 57.7328C147.548 57.8801 147.531 58.05 147.575 58.2094L150.066 62.5327C150.066 62.5327 151.312 64.4708 151.31 64.6169C151.307 64.7629 150.223 63.9774 150.223 63.9774L149.179 62.6499C149.179 62.6499 148.051 60.6586 147.458 60.7648C146.865 60.871 146.973 61.3158 146.973 61.3158L149.071 64.9443L152.115 68.8583L155.372 72.0797L157.252 71.4735L160.826 69.7145Z" fill="#FFBF9D"/>
<path d="M154.841 69.0663C154.889 69.0663 154.92 68.595 155.036 67.8538C155.151 67.1126 155.405 66.0594 156.286 65.3647C156.642 65.0677 157.087 64.8979 157.551 64.8824H157.706L157.695 64.712C157.646 63.9664 157.675 63.2584 157.646 62.7871C157.618 62.3158 157.58 62.0194 157.542 62.026C157.493 62.276 157.469 62.5301 157.469 62.7849C157.415 63.4413 157.394 64.1 157.407 64.7585L157.553 64.5903C157.02 64.5911 156.503 64.7781 156.093 65.1191C155.647 65.4796 155.306 65.9545 155.109 66.4931C154.951 66.9201 154.853 67.3668 154.816 67.8206C154.755 68.595 154.803 69.0641 154.841 69.0663Z" fill="#FF9A6C"/>
<path d="M194.921 76.7941L194.021 86.1885H202.968C203.329 84.8167 204.661 74.7253 204.661 74.7253L194.921 76.7941Z" fill="#FFBF9D"/>
<g opacity="0.3">
<path d="M190.742 59.3217C190.963 61.4723 189.454 63.7224 187.52 64.6849C185.586 65.6473 183.56 64.6716 181.975 63.2025C181.051 63.9348 180.351 64.6849 178.997 64.9969C177.595 65.3177 176.325 64.4061 175.71 63.0609C175.225 62.0033 175.267 60.7886 175.71 59.3217C175.71 59.3217 174.665 63.5012 178.123 63.968C181.071 64.3707 182.376 61.7024 182.376 61.7024C182.376 61.7024 184.053 64.4371 186.524 63.7224C190.337 62.6272 190.742 59.3217 190.742 59.3217Z" fill="black"/>
</g>
<path d="M189.226 54.8767C189.226 54.8767 189.248 54.8922 189.284 54.9298L189.443 55.0935C189.64 55.3117 189.817 55.5472 189.972 55.7971C190.218 56.1922 190.411 56.6186 190.545 57.0649C190.717 57.6581 190.792 58.2753 190.766 58.8925C190.747 59.2515 190.694 59.6079 190.607 59.9567C190.505 60.3334 190.362 60.6978 190.18 61.043C189.767 61.8029 189.181 62.4548 188.469 62.9458C187.686 63.4925 186.768 63.8153 185.814 63.8795C185.565 63.8983 185.314 63.8983 185.064 63.8795C184.809 63.8553 184.558 63.8011 184.316 63.718C184.073 63.6247 183.843 63.499 183.633 63.3441C183.424 63.1843 183.234 63.0026 183.064 62.802C182.786 62.4688 182.539 62.1103 182.327 61.7311H182.42C181.847 62.4861 181.123 63.1131 180.294 63.572C179.509 63.9876 178.602 64.1108 177.734 63.9193C177.336 63.8228 176.965 63.6384 176.648 63.3795C176.353 63.1299 176.111 62.8246 175.935 62.4812C175.629 61.8637 175.486 61.1783 175.519 60.4899C175.55 59.9308 175.66 59.3789 175.845 58.8504C175.981 58.454 176.14 58.0654 176.32 57.6866C176.466 57.3747 176.586 57.1379 176.668 56.9764L176.763 56.795C176.773 56.7743 176.785 56.7543 176.798 56.7352C176.792 56.7574 176.784 56.779 176.774 56.7994L176.688 56.9853L176.358 57.7043C176.186 58.085 176.034 58.4741 175.902 58.8703C175.727 59.3945 175.624 59.9402 175.597 60.4921C175.57 61.1648 175.715 61.8331 176.017 62.4347C176.189 62.7658 176.424 63.0598 176.71 63.2998C177.017 63.5496 177.377 63.7266 177.763 63.8176C178.606 64.0027 179.487 63.8803 180.248 63.4724C181.062 63.0194 181.774 62.4015 182.336 61.6581L182.389 61.594L182.431 61.667C182.64 62.0389 182.882 62.3907 183.155 62.7179C183.32 62.911 183.505 63.0867 183.706 63.2423C183.906 63.3906 184.126 63.5112 184.358 63.6007C184.592 63.6816 184.834 63.7336 185.08 63.7556C185.323 63.7744 185.567 63.7744 185.81 63.7556C186.747 63.6956 187.649 63.3812 188.421 62.8462C189.453 62.1575 190.202 61.1199 190.531 59.9235C190.776 58.9862 190.759 58 190.483 57.0715C190.355 56.628 190.17 56.2032 189.932 55.8082C189.782 55.5581 189.613 55.3206 189.425 55.098L189.275 54.9254C189.258 54.9099 189.241 54.8937 189.226 54.8767Z" fill="#263238"/>
<g clip-path="url(#clip0_39_3000)">
<path d="M188.843 76.678C188.761 76.4848 188.66 76.2643 188.623 76.1881L188.557 76.0439H187.857H187.157L187.2 75.965C187.221 75.9214 187.263 75.818 187.295 75.7336L187.348 75.5812H187.852C188.127 75.5812 188.352 75.5758 188.352 75.5703C188.352 75.5594 188.27 75.3662 188.154 75.1049C187.844 74.4109 187.86 74.4626 187.915 74.3075C187.942 74.2368 187.992 74.1252 188.027 74.0599C188.061 73.9945 188.087 73.9238 188.087 73.902C188.087 73.8449 188.148 73.8748 188.188 73.951C188.239 74.0544 188.564 74.7675 188.564 74.7784C188.564 74.7892 188.663 74.9988 189.002 75.7309C189.076 75.8969 189.174 76.1065 189.214 76.2017C189.254 76.2943 189.296 76.3705 189.304 76.3705C189.341 76.3705 189.736 75.9432 189.826 75.8017C190.075 75.4206 190.184 75.0451 190.184 74.5742C190.184 74.2123 190.131 73.9374 190.009 73.6652C189.728 73.0338 189.251 72.6011 188.61 72.397C188.122 72.2391 187.743 72.2282 187.279 72.3589C186.964 72.4487 186.913 72.4677 186.696 72.5984C186.481 72.729 186.487 72.7236 186.248 72.9467C185.983 73.1971 185.806 73.4802 185.668 73.8775C185.586 74.117 185.583 74.1388 185.583 74.5606C185.583 74.9906 185.583 74.9988 185.676 75.2546C185.766 75.5105 185.851 75.6874 185.954 75.837C186.05 75.9786 186.24 76.18 186.275 76.18C186.293 76.18 186.362 76.0847 186.431 75.9704C186.497 75.8534 186.577 75.7282 186.603 75.6901C186.63 75.652 186.773 75.4315 186.919 75.2002C187.067 74.9689 187.2 74.7593 187.213 74.7375C187.229 74.7158 187.269 74.6504 187.3 74.596C187.332 74.5416 187.449 74.3565 187.557 74.1878C187.669 74.019 187.812 73.7931 187.875 73.6843C188.029 73.4339 188.085 73.423 187.976 73.6707C187.931 73.7714 187.865 73.9211 187.83 74.0027C187.796 74.0844 187.743 74.2014 187.716 74.2613C187.69 74.3211 187.616 74.4871 187.557 74.6287C187.364 75.0777 187.107 75.671 187.054 75.7853C187.025 75.8452 186.916 76.0901 186.813 76.3296C186.489 77.0835 186.513 77.0509 186.373 76.9338C186.333 76.9012 186.248 76.8386 186.19 76.8005C186.129 76.7596 185.983 76.6317 185.869 76.5147C185.557 76.199 185.374 75.9241 185.236 75.554C185.109 75.2165 185.103 75.1947 185.066 74.8301C185 74.1769 185.18 73.4938 185.559 72.9603L185.676 72.7943V72.1167V71.439L185.737 71.4526C185.769 71.4608 185.938 71.4989 186.113 71.5397C186.288 71.5778 186.603 71.6513 186.815 71.703C187.534 71.8744 187.43 71.8173 186.497 71.5261C186.344 71.4798 186.19 71.4308 186.153 71.4172C186.116 71.4036 185.999 71.3682 185.89 71.3356C185.784 71.3029 185.705 71.2675 185.718 71.2566C185.731 71.243 185.97 71.1995 186.246 71.1614C186.524 71.1206 186.786 71.077 186.829 71.0634C186.874 71.0498 187.075 71.0144 187.282 70.9845C187.65 70.9301 187.655 70.9301 187.759 70.9818C187.958 71.0852 188.146 70.9518 188.101 70.7396C188.08 70.6334 187.997 70.5735 187.873 70.5735C187.791 70.5735 187.759 70.5899 187.695 70.6715C187.608 70.7777 187.629 70.7722 186.709 70.9137C186.468 70.9491 186.158 71.0008 186.02 71.0226C185.883 71.0471 185.649 71.0852 185.504 71.107C185.35 71.1315 185.18 71.1777 185.101 71.2158C184.913 71.3084 184.685 71.5506 184.568 71.7819L184.47 71.9751L184.462 72.876L184.454 73.7741L184.536 73.8802L184.621 73.9891L184.555 74.0435C184.52 74.0735 184.47 74.1116 184.446 74.1252C184.404 74.1497 184.404 74.1633 184.441 74.3157C184.507 74.5715 184.481 74.9063 184.388 74.9852C184.348 75.0178 183.903 75.026 183.77 74.9961C183.707 74.9825 183.688 74.9634 183.688 74.9144C183.688 74.879 183.699 74.8409 183.715 74.8328C183.77 74.7974 183.953 74.4382 183.996 74.283L184.041 74.117L183.959 73.9945L183.879 73.8721L183.935 73.8176C183.966 73.7877 184.03 73.7442 184.078 73.7197L184.163 73.6761L184.173 72.8406C184.181 72.0132 184.184 71.9996 184.25 71.8227C184.367 71.5234 184.587 71.2458 184.82 71.1042C184.926 71.0389 184.928 71.0144 184.836 70.9927C184.663 70.9546 184.245 70.8076 184.263 70.7913C184.285 70.7749 184.608 70.6688 185.252 70.4674C185.448 70.4048 185.758 70.3068 185.941 70.2469C186.124 70.1898 186.434 70.0918 186.63 70.0292C186.826 69.9666 187.059 69.8904 187.147 69.8605C187.234 69.8305 187.436 69.7707 187.595 69.7244L187.883 69.6428L188.058 69.6917C188.154 69.7162 188.342 69.7761 188.472 69.8197C188.604 69.8632 188.806 69.9285 188.922 69.9639C189.039 69.9966 189.206 70.0483 189.293 70.0782C189.381 70.1081 189.595 70.1762 189.77 70.2306C190.176 70.3585 190.661 70.5109 191.09 70.6525C191.278 70.7151 191.448 70.764 191.469 70.764C191.49 70.764 191.506 70.7749 191.506 70.7885C191.506 70.8103 191.331 70.8729 190.671 71.0825C190.049 71.2784 189.784 71.3628 189.413 71.4825C189.201 71.5506 188.962 71.6241 188.882 71.6458C188.803 71.6676 188.655 71.7166 188.551 71.7547C188.326 71.8391 188.437 71.8282 188.837 71.7275C188.978 71.6894 189.275 71.6241 189.492 71.5805C189.709 71.5342 189.919 71.4853 189.956 71.4717C190.107 71.4118 190.102 71.3873 190.102 72.1248V72.8079L190.218 72.9821C191.087 74.2857 190.764 75.9894 189.481 76.8631C189.277 77.0019 189.23 77.0236 189.121 77.0236H188.996L188.843 76.678Z" fill="white"/>
<path d="M191.983 74.4681C191.983 74.4409 192.044 74.2858 192.132 74.0953C192.166 74.0191 192.195 73.9483 192.195 73.9374C192.195 73.9265 192.224 73.853 192.259 73.7768C192.296 73.6979 192.367 73.5319 192.42 73.404C192.473 73.2761 192.545 73.1046 192.579 73.023C192.614 72.9413 192.738 72.6501 192.858 72.3752C192.974 72.1004 193.07 71.8663 193.07 71.8527C193.07 71.801 193.194 71.7438 193.311 71.7438C193.565 71.7438 193.597 71.7629 193.682 71.9507C193.724 72.0432 193.759 72.1276 193.759 72.133C193.759 72.1412 193.801 72.2419 193.851 72.3535C193.902 72.4678 193.944 72.5657 193.944 72.5739C193.944 72.5821 193.981 72.6692 194.026 72.7699C194.138 73.0284 194.217 73.2108 194.352 73.5401C194.416 73.6979 194.525 73.951 194.588 74.1034C194.774 74.5362 194.787 74.4926 194.48 74.4926H194.217L194.146 74.3239C194.106 74.2286 194.056 74.1089 194.029 74.0572L193.984 73.9619L193.353 73.9537L192.723 73.9483L192.683 74.049C192.662 74.1062 192.611 74.2286 192.571 74.3212L192.5 74.4899L192.243 74.4926C192.1 74.4926 191.983 74.4817 191.983 74.4681ZM193.788 73.4666C193.745 73.3849 193.626 73.1101 193.626 73.091C193.626 73.0828 193.597 73.0094 193.563 72.9332C193.526 72.8542 193.473 72.7209 193.441 72.6365C193.409 72.5494 193.374 72.4732 193.364 72.465C193.351 72.4596 193.319 72.5168 193.287 72.5957C193.258 72.6719 193.192 72.8406 193.136 72.9685C193.083 73.0965 193.011 73.2706 192.977 73.3577L192.913 73.5129H193.364C193.783 73.5129 193.812 73.5101 193.788 73.4666Z" fill="white"/>
<path d="M187.952 73.3142C187.928 73.2407 187.899 73.2162 187.828 73.1971C187.775 73.1835 187.73 73.1618 187.727 73.1454C187.722 73.1318 187.775 73.0747 187.841 73.023C188.342 72.6365 188.443 72.5603 188.461 72.5603C188.474 72.5603 188.485 72.7345 188.485 72.944V73.3305L188.403 73.3115C188.358 73.3033 188.294 73.2951 188.265 73.2951C188.217 73.2951 188.215 73.2842 188.228 73.1264L188.246 72.9549L188.154 73.1182C188.103 73.208 188.061 73.2951 188.061 73.3115C188.061 73.3278 188.045 73.3577 188.024 73.374C187.992 73.4013 187.979 73.3904 187.952 73.3142Z" fill="white"/>
</g>
<path d="M93.6924 189.21H110.802L101.813 115.956C101.596 114.425 100.843 113.02 99.6879 111.991C98.5325 110.963 97.0498 110.377 95.5035 110.339H20.8474L31.7891 189.21H93.6924Z" fill="#C75182"/>
<path opacity="0.1" d="M93.6924 189.21H110.802L101.813 115.956C101.596 114.425 100.843 113.02 99.6879 111.991C98.5325 110.963 97.0498 110.377 95.5035 110.339H20.8474L31.7891 189.21H93.6924Z" fill="white"/>
<path d="M39.434 189.21H22.3245L13.3273 115.956C13.2172 115.252 13.2629 114.533 13.4613 113.848C13.6598 113.164 14.0061 112.532 14.4757 111.996C14.9454 111.46 15.527 111.034 16.1795 110.748C16.8319 110.462 17.5393 110.322 18.2516 110.339H24.0939C25.6388 110.379 27.1195 110.965 28.2731 111.994C29.4267 113.022 30.1786 114.426 30.3952 115.956L39.434 189.21Z" fill="#C75182"/>
<path opacity="0.2" d="M39.434 189.21H22.3245L13.3273 115.956C13.2172 115.252 13.2629 114.533 13.4613 113.848C13.6598 113.164 14.0061 112.532 14.4757 111.996C14.9454 111.46 15.527 111.034 16.1795 110.748C16.8319 110.462 17.5393 110.322 18.2516 110.339H24.0939C25.6388 110.379 27.1195 110.965 28.2731 111.994C29.4267 113.022 30.1786 114.426 30.3952 115.956L39.434 189.21Z" fill="black"/>
<path d="M49.516 199.109L46.4196 163.679C46.3592 162.909 46.0334 162.183 45.4976 161.626C44.9618 161.069 44.2494 160.715 43.4818 160.625L42.2048 160.458C41.1786 160.328 40.2279 159.85 39.5111 159.105C38.7943 158.359 38.3546 157.39 38.2655 156.36L37.6979 149.9C37.6448 149.274 37.7221 148.644 37.9248 148.05C38.1275 147.456 38.4512 146.91 38.8755 146.447C39.2999 145.985 39.8156 145.615 40.3901 145.362C40.9645 145.108 41.5853 144.977 42.2132 144.976H13.6193C12.9915 144.977 12.3707 145.108 11.7962 145.362C11.2217 145.615 10.706 145.985 10.2817 146.447C9.85737 146.91 9.53362 147.456 9.33093 148.05C9.12824 148.644 9.051 149.274 9.10409 149.9L9.67163 156.36C9.76079 157.39 10.2004 158.359 10.9173 159.105C11.6341 159.85 12.5848 160.328 13.611 160.458L14.888 160.625C15.6556 160.715 16.368 161.069 16.9038 161.626C17.4395 162.183 17.7654 162.909 17.8258 163.679L20.9389 199.109C21.0497 200.359 21.6259 201.521 22.5533 202.367C23.4806 203.212 24.6917 203.679 25.9466 203.674H54.5404C53.2826 203.683 52.0675 203.218 51.1365 202.373C50.2056 201.527 49.6271 200.361 49.516 199.109Z" fill="#913E60"/>
<g opacity="0.3">
<path d="M49.516 199.109L46.4196 163.679C46.3592 162.909 46.0334 162.183 45.4976 161.626C44.9618 161.069 44.2494 160.715 43.4818 160.625L42.2048 160.458C41.1786 160.328 40.2279 159.85 39.5111 159.105C38.7943 158.359 38.3546 157.39 38.2655 156.36L37.6979 149.9C37.6448 149.274 37.7221 148.644 37.9248 148.05C38.1275 147.456 38.4512 146.91 38.8755 146.447C39.2999 145.985 39.8156 145.615 40.3901 145.362C40.9645 145.108 41.5853 144.977 42.2132 144.976H13.6193C12.9915 144.977 12.3707 145.108 11.7962 145.362C11.2217 145.615 10.706 145.985 10.2817 146.447C9.85737 146.91 9.53362 147.456 9.33093 148.05C9.12824 148.644 9.051 149.274 9.10409 149.9L9.67163 156.36C9.76079 157.39 10.2004 158.359 10.9173 159.105C11.6341 159.85 12.5848 160.328 13.611 160.458L14.888 160.625C15.6556 160.715 16.368 161.069 16.9038 161.626C17.4395 162.183 17.7654 162.909 17.8258 163.679L20.9389 199.109C21.0497 200.359 21.6259 201.521 22.5533 202.367C23.4806 203.212 24.6917 203.679 25.9466 203.674H54.5404C53.2826 203.683 52.0675 203.218 51.1365 202.373C50.2056 201.527 49.6271 200.361 49.516 199.109Z" fill="#604450"/>
</g>
<path d="M128.203 154.807C128.441 152.124 129.674 149.627 131.661 147.807C133.647 145.988 136.242 144.978 138.936 144.976H114.04C111.346 144.976 108.751 145.986 106.765 147.806C104.78 149.626 103.549 152.124 103.315 154.807L100.853 182.892H125.749L128.203 154.807Z" fill="#82405B"/>
<path opacity="0.3" d="M128.203 154.807C128.441 152.124 129.674 149.627 131.661 147.807C133.647 145.988 136.242 144.978 138.936 144.976H114.04C111.346 144.976 108.751 145.986 106.765 147.806C104.78 149.626 103.549 152.124 103.315 154.807L100.853 182.892H125.749L128.203 154.807Z" fill="#82405B"/>
<path d="M57.3616 203.674H63.2039V218.363C63.2039 218.746 63.0517 219.113 62.781 219.384C62.5102 219.655 62.1429 219.807 61.76 219.807H59.6484C59.0441 219.807 58.4646 219.567 58.0373 219.14C57.61 218.712 57.3699 218.133 57.3699 217.528V203.674H57.3616Z" fill="#263238"/>
<path d="M131.108 204.508H136.95V219.198C136.95 219.581 136.798 219.948 136.527 220.219C136.256 220.489 135.889 220.642 135.506 220.642H133.395C132.79 220.642 132.211 220.402 131.783 219.974C131.356 219.547 131.116 218.967 131.116 218.363V204.508H131.108Z" fill="#263238"/>
<path d="M28.2003 203.674H34.0425V218.363C34.0425 218.746 33.8904 219.113 33.6196 219.384C33.3489 219.655 32.9816 219.807 32.5987 219.807H30.4871C29.8828 219.807 29.3033 219.567 28.876 219.14C28.4487 218.712 28.2086 218.133 28.2086 217.528V203.674H28.2003Z" fill="#263238"/>
<path d="M101.971 203.674H107.814V218.363C107.814 218.746 107.661 219.113 107.391 219.384C107.12 219.655 106.753 219.807 106.37 219.807H104.258C103.654 219.807 103.074 219.567 102.647 219.14C102.22 218.712 101.98 218.133 101.98 217.528V203.674H101.971Z" fill="#263238"/>
<path d="M71.3411 166.05H61.0587C59.8582 166.05 58.7067 166.526 57.8571 167.374C57.0074 168.222 56.5289 169.373 56.5267 170.573V178.36C56.5267 178.955 56.644 179.544 56.8719 180.093C57.0997 180.642 57.4337 181.142 57.8546 181.562C58.2756 181.982 58.7752 182.315 59.325 182.542C59.8748 182.769 60.4639 182.885 61.0587 182.884H71.3411V166.05Z" fill="#82405B"/>
<path opacity="0.3" d="M71.3411 166.05H61.0587C59.8582 166.05 58.7067 166.526 57.8571 167.374C57.0074 168.222 56.5289 169.373 56.5267 170.573V178.36C56.5267 178.955 56.644 179.544 56.8719 180.093C57.0997 180.642 57.4337 181.142 57.8546 181.562C58.2756 181.982 58.7752 182.315 59.325 182.542C59.8748 182.769 60.4639 182.885 61.0587 182.884H71.3411V166.05Z" fill="#82405B"/>
<path d="M121.226 166.05H71.6919C69.1936 166.05 67.1683 168.075 67.1683 170.573V178.368C67.1683 180.867 69.1936 182.892 71.6919 182.892H121.226C123.724 182.892 125.75 180.867 125.75 178.368V170.573C125.75 168.075 123.724 166.05 121.226 166.05Z" fill="#C75182"/>
<path d="M149.995 144.976H138.937C136.243 144.978 133.647 145.988 131.661 147.807C129.675 149.627 128.441 152.124 128.204 154.807L125.75 182.892H66.4923L64.0385 154.807C63.8003 152.118 62.5622 149.616 60.5687 147.796C58.5753 145.976 55.9716 144.969 53.272 144.976H42.2134C41.5855 144.977 40.9648 145.108 40.3903 145.362C39.8158 145.615 39.3001 145.985 38.8758 146.447C38.4514 146.91 38.1277 147.456 37.925 148.05C37.7223 148.644 37.6451 149.274 37.6981 149.9L38.2657 156.36C38.3548 157.39 38.7945 158.359 39.5113 159.105C40.2281 159.85 41.1789 160.328 42.2051 160.458L43.482 160.625C44.2496 160.715 44.9621 161.069 45.4978 161.626C46.0336 162.183 46.3595 162.909 46.4198 163.679L49.5163 199.109C49.6271 200.359 50.2032 201.521 51.1306 202.367C52.058 203.212 53.269 203.679 54.5239 203.674H137.735C138.99 203.679 140.201 203.212 141.128 202.367C142.056 201.521 142.632 200.359 142.743 199.109L145.839 163.679C145.899 162.909 146.225 162.183 146.761 161.626C147.297 161.069 148.009 160.715 148.777 160.625L150.054 160.458C151.08 160.328 152.031 159.85 152.747 159.105C153.464 158.359 153.904 157.39 153.993 156.36L154.561 149.9C154.615 149.27 154.538 148.635 154.332 148.037C154.127 147.439 153.799 146.89 153.369 146.426C152.939 145.962 152.417 145.594 151.836 145.344C151.255 145.094 150.628 144.969 149.995 144.976Z" fill="#C75182"/>
<path opacity="0.1" d="M149.995 144.976H138.937C136.243 144.978 133.647 145.988 131.661 147.807C129.675 149.627 128.441 152.124 128.204 154.807L125.75 182.892H66.4923L64.0385 154.807C63.8003 152.118 62.5622 149.616 60.5687 147.796C58.5753 145.976 55.9716 144.969 53.272 144.976H42.2134C41.5855 144.977 40.9648 145.108 40.3903 145.362C39.8158 145.615 39.3001 145.985 38.8758 146.447C38.4514 146.91 38.1277 147.456 37.925 148.05C37.7223 148.644 37.6451 149.274 37.6981 149.9L38.2657 156.36C38.3548 157.39 38.7945 158.359 39.5113 159.105C40.2281 159.85 41.1789 160.328 42.2051 160.458L43.482 160.625C44.2496 160.715 44.9621 161.069 45.4978 161.626C46.0336 162.183 46.3595 162.909 46.4198 163.679L49.5163 199.109C49.6271 200.359 50.2032 201.521 51.1306 202.367C52.058 203.212 53.269 203.679 54.5239 203.674H137.735C138.99 203.679 140.201 203.212 141.128 202.367C142.056 201.521 142.632 200.359 142.743 199.109L145.839 163.679C145.899 162.909 146.225 162.183 146.761 161.626C147.297 161.069 148.009 160.715 148.777 160.625L150.054 160.458C151.08 160.328 152.031 159.85 152.747 159.105C153.464 158.359 153.904 157.39 153.993 156.36L154.561 149.9C154.615 149.27 154.538 148.635 154.332 148.037C154.127 147.439 153.799 146.89 153.369 146.426C152.939 145.962 152.417 145.594 151.836 145.344C151.255 145.094 150.628 144.969 149.995 144.976Z" fill="black"/>
<path d="M153.376 213.865L160.87 211.11L162.581 217.537L155.929 219.673L153.376 213.865Z" fill="#FFBE9D"/>
<path d="M164.492 217.687C164.454 217.693 164.414 217.686 164.38 217.668C164.345 217.65 164.317 217.622 164.3 217.587C164.276 217.556 164.263 217.518 164.263 217.478C164.263 217.439 164.276 217.401 164.3 217.37C164.4 217.261 166.604 214.824 168.023 214.758C168.284 214.741 168.542 214.828 168.74 215C168.872 215.089 168.971 215.219 169.021 215.37C169.071 215.521 169.069 215.684 169.016 215.834C168.832 216.352 167.889 216.852 166.921 217.17C166.129 217.416 165.316 217.589 164.492 217.687ZM165.01 217.245C166.52 216.953 168.482 216.302 168.674 215.684C168.674 215.601 168.715 215.475 168.507 215.292C168.449 215.235 168.379 215.193 168.302 215.168C168.225 215.144 168.144 215.137 168.064 215.15C167.939 215.155 167.816 215.178 167.697 215.217C166.688 215.72 165.782 216.408 165.026 217.245H165.01Z" fill="#263238"/>
<path d="M164.409 217.712C164.376 217.703 164.346 217.684 164.323 217.659C164.299 217.634 164.283 217.604 164.276 217.57C164.276 217.47 163.775 215.3 164.501 214.165C164.604 214 164.739 213.857 164.898 213.745C165.057 213.634 165.237 213.555 165.427 213.514C165.953 213.405 166.195 213.606 166.262 213.814C166.713 214.649 165.427 216.928 164.593 217.645C164.568 217.652 164.542 217.652 164.518 217.645C164.49 217.679 164.452 217.703 164.409 217.712ZM165.419 213.906C165.185 213.981 164.987 214.139 164.86 214.349C164.492 215.206 164.401 216.158 164.601 217.069C165.377 216.185 166.178 214.465 165.953 213.956C165.953 213.906 165.861 213.781 165.519 213.865H165.419V213.906Z" fill="#263238"/>
<path d="M163.366 216.861L154.869 219.623C154.714 219.674 154.581 219.776 154.491 219.912C154.402 220.049 154.361 220.212 154.377 220.374L155.086 227.786C155.1 227.942 155.144 228.094 155.217 228.233C155.289 228.372 155.388 228.496 155.508 228.596C155.628 228.697 155.767 228.773 155.917 228.82C156.066 228.867 156.224 228.885 156.38 228.871C156.465 228.864 156.549 228.847 156.63 228.821C159.677 227.777 162.347 226.718 166.162 225.482C170.66 224.022 169.692 224.931 175.008 223.287C178.213 222.286 177.612 218.48 176.21 218.739C169.767 219.974 168.515 218.313 165.41 216.877C164.755 216.617 164.025 216.611 163.366 216.861Z" fill="#263238"/>
<path opacity="0.1" d="M160.87 211.11L153.376 213.865L154.452 216.31L161.596 213.831L160.87 211.11Z" fill="black"/>
<path d="M69.6302 57.8838C69.6302 57.8838 69.0877 47.8684 83.6267 47.6013C98.1656 47.3343 96.5131 58.8018 95.3697 62.3573C94.2263 65.9127 99.6346 70.6366 99.6346 70.6366C99.6346 70.6366 96.2293 70.7034 95.111 68.8923C93.9926 67.0812 98.5496 73.9 97.548 78.5321C96.5465 83.1642 94.7604 87.7128 97.2392 91.4435C97.2392 91.4435 92.7824 89.2819 92.9577 85.0254C92.9577 85.0254 93.2915 88.5391 89.7778 87.7379C86.2641 86.9366 76.2654 83.5648 69.6302 85.451C66.3502 86.3941 65.14 84.6832 64.9147 82.4381C64.6893 80.193 63.9048 76.7627 64.0801 81.3948C64.1058 82.1445 64.1811 82.8918 64.3054 83.6316C64.3054 83.6316 58.4631 79.4585 62.6362 74.4508C63.8798 72.9235 67.1932 70.9705 67.1932 68.0326C67.1932 65.0948 65.3737 61.289 69.6302 57.8838Z" fill="#263238"/>
<path d="M70.8403 58.6933C70.8403 58.6933 67.8524 56.1895 69.822 51.4322C69.822 51.4322 64.7476 57.9756 71.6332 59.9452L70.8403 58.6933Z" fill="#263238"/>
<path d="M92.8322 106.583C92.8322 106.583 88.3003 95.0908 92.1144 89.5656C95.9286 84.0405 104.158 100.507 104.158 100.507L104.859 100.866L106.011 103.003C106.011 103.003 97.723 106.141 93.7419 109.588L92.49 106.942L92.8322 106.583Z" fill="#263238"/>
<g opacity="0.2">
<path d="M92.8322 106.583C92.8322 106.583 88.3003 95.0908 92.1144 89.5656C95.9286 84.0405 104.158 100.507 104.158 100.507L104.859 100.866L106.011 103.003C106.011 103.003 97.723 106.141 93.7419 109.588L92.49 106.942L92.8322 106.583Z" fill="white"/>
</g>
<path d="M87.4491 146.578C87.4491 146.578 135.857 140.293 142.625 150.401C149.394 160.508 161.571 211.578 161.571 211.578L151.706 215.434C151.706 215.434 135.281 184.595 130.315 165.357L118.33 164.856L85.4627 167.318C85.4627 167.318 72.1674 152.103 87.4491 146.578Z" fill="#407BFF"/>
<path opacity="0.4" d="M87.4491 146.578C87.4491 146.578 135.857 140.293 142.625 150.401C149.394 160.508 161.571 211.578 161.571 211.578L151.706 215.434C151.706 215.434 135.281 184.595 130.315 165.357L118.33 164.856L85.4627 167.318C85.4627 167.318 72.1674 152.103 87.4491 146.578Z" fill="#2F2F2F"/>
<path d="M87.8211 134.8C87.8211 134.8 112.369 129.004 112.149 121.792C111.929 114.581 104.795 103.001 104.795 103.001L95.6228 106.804L101.47 118.514C101.745 119.07 101.791 119.713 101.599 120.303C101.407 120.893 100.991 121.385 100.442 121.674L86.0252 129.705C84.5596 128.514 82.8461 127.665 81.0103 127.222C79.3048 126.881 77.4616 127.789 75.7254 127.823C71.1787 127.919 75.2929 130.663 75.2929 130.663L79.2042 135.247C79.54 135.633 79.9797 135.914 80.4708 136.057L82.9066 136.745C83.2603 136.85 83.6324 136.879 83.9983 136.831C84.3642 136.782 84.7157 136.657 85.0299 136.463L87.8211 134.8Z" fill="#FFBE9D"/>
<path d="M55.9424 98.9551C56.126 103.854 60.0403 112.885 61.5844 121.573C62.8078 128.396 63.414 135.315 63.3955 142.246C63.3955 142.246 89.8694 148.982 101.98 142.171C100.817 136.062 100.081 129.879 99.7763 123.668C99.1336 110.08 99.409 93.4132 96.3877 90.0414C91.1297 84.1991 79.5285 83.665 68.3531 84.4412C57.1776 85.2173 55.7671 94.1811 55.9424 98.9551Z" fill="#263238"/>
<g opacity="0.1">
<path d="M55.9424 98.9551C56.126 103.854 60.0403 112.885 61.5844 121.573C62.8078 128.396 63.414 135.315 63.3955 142.246C63.3955 142.246 89.8694 148.982 101.98 142.171C100.817 136.062 100.081 129.879 99.7763 123.668C99.1336 110.08 99.409 93.4132 96.3877 90.0414C91.1297 84.1991 79.5285 83.665 68.3531 84.4412C57.1776 85.2173 55.7671 94.1811 55.9424 98.9551Z" fill="white"/>
</g>
<g clip-path="url(#clip1_39_3000)">
<path d="M88.2208 134.4C88.2208 134.4 112.907 128.552 112.685 121.276C112.463 113.999 105.29 102.316 105.29 102.316L96.0662 106.153L101.946 117.968C102.222 118.53 102.269 119.177 102.076 119.773C101.883 120.369 101.465 120.865 100.912 121.156L86.4148 129.26C84.941 128.058 83.218 127.202 81.3718 126.754C79.6568 126.41 77.8032 127.327 76.0573 127.36C71.4852 127.457 75.6224 130.226 75.6224 130.226L79.5557 134.851C79.8934 135.24 80.3355 135.524 80.8294 135.669L83.2787 136.362C83.6345 136.469 84.0086 136.498 84.3766 136.449C84.7445 136.4 85.0981 136.274 85.414 136.079L88.2208 134.4Z" fill="#FFBE9D"/>
</g>
<path d="M149.111 212.671L161.471 207.797C161.471 207.797 163.9 208.506 162.965 211.478L150.646 215.968C150.646 215.968 149.578 215.918 149.111 212.671Z" fill="#A8C2FC"/>
<path d="M52.7292 102.143C52.7292 102.143 48.072 116.023 49.566 123.601C51.0599 131.179 78.911 131.814 78.911 131.814C78.911 131.814 82.842 133.024 84.9369 132.648C86.7211 132.536 88.5119 132.702 90.245 133.141C90.6041 133.218 90.9773 133.199 91.3264 133.084C91.6755 132.97 91.9878 132.765 92.2314 132.49L93.5 131.079C93.7365 130.816 93.9027 130.498 93.983 130.154C94.0632 129.809 94.055 129.45 93.959 129.11C93.4165 127.182 92.0561 123.543 89.5773 123.66C86.2389 123.818 79.562 126.915 79.562 126.915L61.8348 120.638C61.5125 120.56 61.209 120.419 60.9418 120.223C60.6746 120.026 60.449 119.779 60.2782 119.495C60.1074 119.211 59.9947 118.895 59.9467 118.567C59.8987 118.239 59.9164 117.905 59.9986 117.584L63.2703 103.904L52.7292 102.143Z" fill="#FFBE9D"/>
<path d="M50.6926 101.642C50.6926 101.642 54.6571 87.8046 62.1018 85.4009C69.5465 82.9973 65.4403 104.063 65.4403 104.063L65.8325 104.898L65.3818 107.693C65.3818 107.693 55.4917 104.714 49.3656 105.073L50.0834 101.734L50.6926 101.642Z" fill="#263238"/>
<g opacity="0.2">
<path d="M50.6926 101.642C50.6926 101.642 54.6571 87.8046 62.1018 85.4009C69.5465 82.9973 65.4403 104.063 65.4403 104.063L65.8325 104.898L65.3818 107.693C65.3818 107.693 55.4917 104.714 49.3656 105.073L50.0834 101.734L50.6926 101.642Z" fill="white"/>
</g>
<path d="M88.4338 85.426L87.933 85.2674C83.5012 83.7651 83.9019 80.6103 84.9284 77.5222L77.7841 70.236C78.2348 74.4091 78.7106 84.0155 75.1968 84.0822L76.6908 85.3509L79.1946 88.3304L85.4375 94.6401L86.3389 94.4648L87.8329 93.2296L89.0347 90.0414L88.4338 85.426Z" fill="#FFBE9D"/>
<path d="M76.0899 83.7818C76.0899 83.7818 82.7668 88.9564 85.5461 94.2061C86.5957 92.5644 87.2262 90.6901 87.3822 88.7478C87.4323 86.9033 85.8382 85.3175 85.8382 83.9988L88.9763 85.3258C88.9763 85.3258 94.1176 93.263 91.8474 97.7282C91.8474 97.7282 90.27 93.7471 86.3557 95.3412C86.0892 95.4843 85.7843 95.5395 85.4845 95.4991C85.1848 95.4586 84.9054 95.3245 84.6864 95.1158C84.4941 94.8913 84.2275 94.7433 83.9353 94.6985C82.8753 94.5233 80.4967 94.565 78.4686 97.7699C78.4686 97.7699 77.0414 88.5892 73.2689 84.1157L76.0899 83.7818Z" fill="white"/>
<path opacity="0.2" d="M80.7141 73.2406L84.9623 77.5555C84.7051 78.272 84.5096 79.0092 84.378 79.7589C82.7088 79.3583 80.205 77.5806 80.205 75.7528C80.2273 74.8922 80.3996 74.042 80.7141 73.2406Z" fill="black"/>
<path d="M74.1454 63.8095C75.8731 70.4113 76.4573 73.2406 80.5052 76.0032C86.5979 80.1763 94.3264 76.6041 94.6185 69.6184C94.8689 63.3338 92.0062 53.6022 84.9453 52.2251C83.389 51.9139 81.7789 52.0059 80.2681 52.4924C78.7574 52.9789 77.3961 53.8437 76.3138 55.0046C75.2315 56.1655 74.4641 57.584 74.0846 59.1251C73.7051 60.6662 73.726 62.2788 74.1454 63.8095Z" fill="#FFBE9D"/>
<path d="M80.1965 54.4368C80.1965 54.4368 82.0577 56.3981 87.5662 57.8253L85.9887 55.5969C85.9887 55.5969 92.048 58.5848 95.9123 57.8253C95.9123 57.8253 90.1952 46.2409 78.2102 51.0316C78.2102 51.0316 65.524 62.7161 72.4847 76.0699C72.4847 76.0699 76.2405 78.2399 77.025 74.2421C77.025 74.2421 78.6942 76.9296 77.025 78.5738C78.0291 77.6809 78.7494 76.5132 79.0965 75.2152C79.4436 73.9171 79.4024 72.5458 78.978 71.2709C77.5341 66.7139 78.3187 64.7609 80.1965 61.0553C80.7525 60.0409 81.0439 58.9028 81.0439 57.746C81.0439 56.5893 80.7525 55.4512 80.1965 54.4368Z" fill="#263238"/>
<path d="M129.672 218.296L132.026 225.215L138.628 223.137L137.56 215.534L129.672 218.296Z" fill="#FFBE9D"/>
<path d="M141.04 223.12C141 223.122 140.96 223.112 140.926 223.091C140.891 223.071 140.864 223.04 140.848 223.003C140.835 222.966 140.832 222.926 140.841 222.888C140.85 222.849 140.87 222.814 140.898 222.787C141.006 222.686 143.402 220.483 144.862 220.558C145.125 220.566 145.373 220.677 145.555 220.867C145.672 220.967 145.754 221.102 145.789 221.252C145.823 221.403 145.809 221.56 145.747 221.702C145.513 222.202 144.528 222.611 143.535 222.828C142.714 223 141.878 223.098 141.04 223.12ZM141.599 222.736C143.126 222.595 145.138 222.136 145.396 221.535C145.396 221.459 145.455 221.334 145.263 221.126C145.209 221.066 145.143 221.019 145.07 220.988C144.996 220.956 144.917 220.94 144.837 220.942C144.712 220.93 144.586 220.93 144.461 220.942C143.402 221.353 142.431 221.962 141.599 222.736Z" fill="#263238"/>
<path d="M140.939 223.137C140.906 223.125 140.876 223.104 140.854 223.076C140.832 223.048 140.818 223.014 140.814 222.979C140.814 222.878 140.539 220.675 141.373 219.64C141.492 219.487 141.641 219.359 141.81 219.264C141.979 219.17 142.165 219.11 142.358 219.089C142.892 219.022 143.109 219.248 143.193 219.465C143.568 220.299 142.024 222.478 141.165 223.112C141.138 223.12 141.108 223.12 141.081 223.112C141.061 223.127 141.038 223.136 141.013 223.141C140.989 223.145 140.963 223.144 140.939 223.137ZM142.308 219.448C142.068 219.499 141.855 219.636 141.707 219.832C141.263 220.651 141.082 221.586 141.19 222.511C142.024 221.677 143.009 220.074 142.859 219.548C142.859 219.498 142.784 219.365 142.433 219.415H142.325L142.308 219.448Z" fill="#263238"/>
<path d="M139.98 222.186L131.25 224.105C131.09 224.139 130.948 224.226 130.845 224.352C130.741 224.478 130.684 224.635 130.682 224.798V232.251C130.681 232.408 130.711 232.563 130.77 232.708C130.829 232.854 130.916 232.986 131.026 233.097C131.136 233.209 131.267 233.298 131.411 233.359C131.555 233.42 131.71 233.452 131.867 233.453H132.118C135.256 232.71 138.01 231.926 141.933 231.066C146.556 230.056 145.505 230.866 150.955 229.747C154.235 229.071 154.018 225.215 152.624 225.34C146.097 225.933 145.012 224.164 142.058 222.428C141.421 222.086 140.678 222 139.98 222.186Z" fill="#263238"/>
<path opacity="0.1" d="M137.56 215.534L129.672 218.296L130.732 221.418L138.019 218.789L137.56 215.534Z" fill="black"/>
<path d="M64.4222 142.38C64.4222 142.38 62.127 167.51 74.3541 168.203C86.5812 168.896 112.922 162.277 112.922 162.277C112.922 162.277 114.107 183.142 120.5 198.933C126.893 214.724 127.636 217.962 127.636 217.962L138.402 214.307C138.402 214.307 134.304 158.046 126.417 148.64C116.744 137.089 71.9588 143.907 71.9588 143.907L64.4222 142.38Z" fill="#407BFF"/>
<path opacity="0.5" d="M64.4222 142.38C64.4222 142.38 62.127 167.51 74.3541 168.203C86.5812 168.896 112.922 162.277 112.922 162.277C112.922 162.277 114.107 183.142 120.5 198.933C126.893 214.724 127.636 217.962 127.636 217.962L138.402 214.307C138.402 214.307 134.304 158.046 126.417 148.64C116.744 137.089 71.9588 143.907 71.9588 143.907L64.4222 142.38Z" fill="#2F2F2F"/>
<path d="M125.699 217.403L139.237 212.529C139.714 212.95 140.05 213.507 140.199 214.125C140.349 214.743 140.304 215.392 140.071 215.984L127.035 220.825C127.035 220.825 125.491 220.425 125.699 217.403Z" fill="#A8C2FC"/>
<path d="M74.4376 68.5668C75.0548 69.7335 76.1076 70.6093 77.3671 71.0039C79.0363 71.5046 79.8709 70.019 79.4787 68.4166C79.0864 66.9811 77.7427 64.9863 76.0484 65.1783C75.4575 65.265 74.9253 65.5826 74.5685 66.0615C74.2117 66.5403 74.0595 67.1412 74.1455 67.7322C74.1857 68.0272 74.285 68.3111 74.4376 68.5668Z" fill="#FFBE9D"/>
<path d="M77.4004 68.7587C77.5673 69.2679 78.0765 69.5934 77.5673 69.7269C77.443 69.7774 77.3096 69.8018 77.1755 69.7985C77.0413 69.7952 76.9093 69.7643 76.7876 69.7077C76.6659 69.6511 76.5572 69.57 76.4683 69.4695C76.3793 69.369 76.3121 69.2512 76.2707 69.1236C76.2293 68.9959 76.2146 68.8611 76.2276 68.7275C76.2407 68.594 76.2811 68.4645 76.3464 68.3473C76.4117 68.23 76.5004 68.1275 76.6071 68.0461C76.7138 67.9647 76.8361 67.9061 76.9664 67.8741C77.4755 67.7071 77.2335 68.2496 77.4004 68.7587Z" fill="white"/>
<path d="M88.9993 82.8502C89.6377 81.0091 89.9814 79.0787 90.0177 77.1304L89.7294 77.2264C89.6762 79.1098 89.3356 80.974 88.7194 82.7545C87.1687 87.2731 89.5076 102.964 89.5788 103.627L90.0288 104.61C90.0024 104.45 87.4681 87.3029 88.9993 82.8502Z" fill="#2CB774"/>
<path d="M91.28 142.121H118.079L130.574 119.653H115.926L107.079 135.294L103.449 141.662L92.3316 141.312L91.28 142.121Z" fill="#17BCA8"/>
<path opacity="0.6" d="M91.28 142.121H118.079L130.574 119.653H115.926L107.079 135.294L103.449 141.662L92.3316 141.312L91.28 142.121Z" fill="#17BCA8"/>
<path d="M115.525 119.653L103.248 140.936H77.2834V141.479C77.2856 141.648 77.354 141.811 77.4741 141.931C77.5941 142.051 77.7563 142.119 77.9261 142.121H104.083L116.602 119.653H115.525Z" fill="#01361D"/>
<path d="M77 72C77.8095 77.8193 79.8332 90.6217 83.0712 95.2771C87.1187 101.096 89.5472 101.512 90.3567 106.916C91.1662 112.319 88.3329 117.307 84.6902 124.373C81.0475 131.44 79.0237 131.024 79.8332 136.012C80.6427 141 89.1424 141.416 91.1662 140.169C93.1899 138.922 93.9994 137.675 91.1662 136.428C88.3329 135.181 74.9763 140.169 83.8807 141" stroke="#22A265" stroke-width="0.5"/>
<path d="M76.6289 68.8066C76.6289 68.8066 76.3332 68.7534 76.8017 72.2298L77.2539 72.167C77.2539 72.167 76.8537 69.6781 77.4663 69.5255C77.3847 69.3538 77.268 69.2011 77.1238 69.0773C76.9795 68.9535 76.8109 68.8613 76.6289 68.8066Z" fill="white"/>
<path d="M85.7253 59.584C85.65 59.8146 84.8168 59.7346 83.8425 59.8805C82.8681 60.0264 82.0961 60.3183 81.9596 60.1206C81.8984 60.0264 82.0302 59.8099 82.3409 59.5793C82.7542 59.2961 83.2282 59.1139 83.7248 59.0473C84.2205 58.9707 84.7275 59.0143 85.2028 59.1744C85.5653 59.3062 85.7253 59.4804 85.7253 59.584Z" fill="#263238"/>
<path d="M93.3746 60.0453C93.2334 60.2383 92.6544 60.0453 91.9625 60.0453C91.2705 60.0453 90.7009 60.2148 90.5503 60.0453C90.4891 59.9512 90.5738 59.7582 90.8233 59.5746C91.1573 59.3477 91.5517 59.2264 91.9554 59.2264C92.3591 59.2264 92.7535 59.3477 93.0875 59.5746C93.3464 59.7582 93.4358 59.9512 93.3746 60.0453Z" fill="#263238"/>
<path d="M85.9372 66.3577C85.9347 66.4155 85.9097 66.4701 85.8675 66.5097C85.8252 66.5493 85.7691 66.5708 85.7112 66.5695C85.653 66.5671 85.5979 66.5422 85.5575 66.5001C85.5172 66.458 85.4947 66.4019 85.4947 66.3436C85.4947 66.2849 85.518 66.2286 85.5595 66.1871C85.601 66.1456 85.6573 66.1223 85.716 66.1223C85.7746 66.1223 85.8309 66.1456 85.8724 66.1871C85.9139 66.2286 85.9372 66.2849 85.9372 66.3436V66.3577Z" fill="#EB996E"/>
<path d="M92.1837 65.4822C92.1883 65.5136 92.1861 65.5457 92.1772 65.5762C92.1683 65.6067 92.153 65.6349 92.1322 65.659C92.1115 65.683 92.0858 65.7023 92.0569 65.7155C92.028 65.7287 91.9966 65.7356 91.9648 65.7356C91.933 65.7356 91.9016 65.7287 91.8727 65.7155C91.8438 65.7023 91.8181 65.683 91.7974 65.659C91.7766 65.6349 91.7612 65.6067 91.7524 65.5762C91.7435 65.5457 91.7413 65.5136 91.7459 65.4822C91.7483 65.4239 91.7732 65.3688 91.8153 65.3284C91.8574 65.2881 91.9135 65.2656 91.9719 65.2656C92.0281 65.268 92.0813 65.2917 92.1206 65.332C92.16 65.3722 92.1825 65.4259 92.1837 65.4822Z" fill="#EB996E"/>
<path d="M93.3793 66.1035C93.3768 66.1613 93.3518 66.2159 93.3096 66.2555C93.2673 66.2951 93.2112 66.3166 93.1533 66.3153C93.0947 66.3153 93.0384 66.292 92.9969 66.2505C92.9554 66.209 92.9321 66.1527 92.9321 66.094C92.9321 66.0354 92.9554 65.9791 92.9969 65.9376C93.0384 65.8961 93.0947 65.8728 93.1533 65.8728C93.1834 65.8728 93.2132 65.8788 93.2409 65.8904C93.2686 65.9021 93.2937 65.9192 93.3148 65.9406C93.3358 65.9621 93.3524 65.9876 93.3635 66.0155C93.3745 66.0435 93.3799 66.0734 93.3793 66.1035Z" fill="#EB996E"/>
<path d="M93.7794 65.195C93.7785 65.2389 93.7644 65.2815 93.7391 65.3175C93.7138 65.3534 93.6784 65.381 93.6373 65.3967C93.5963 65.4124 93.5515 65.4155 93.5087 65.4057C93.4658 65.3958 93.4269 65.3734 93.3968 65.3414C93.3668 65.3093 93.347 65.269 93.3399 65.2256C93.3328 65.1823 93.3388 65.1378 93.3571 65.0978C93.3755 65.0579 93.4053 65.0243 93.4427 65.0014C93.4802 64.9784 93.5237 64.9671 93.5676 64.969C93.6255 64.9715 93.68 64.9965 93.7197 65.0387C93.7593 65.081 93.7807 65.1371 93.7794 65.195Z" fill="#EB996E"/>
<path d="M84.8969 67.2944C84.8963 67.3233 84.8899 67.3517 84.8782 67.3781C84.8664 67.4044 84.8496 67.4282 84.8285 67.4479C84.8075 67.4676 84.7827 67.483 84.7556 67.493C84.7286 67.503 84.6998 67.5075 84.671 67.5063C84.627 67.5053 84.5844 67.4913 84.5484 67.4659C84.5125 67.4406 84.4849 67.4052 84.4692 67.3642C84.4535 67.3231 84.4504 67.2783 84.4602 67.2355C84.4701 67.1927 84.4925 67.1537 84.5245 67.1237C84.5566 67.0936 84.5969 67.0738 84.6403 67.0667C84.6836 67.0597 84.7281 67.0657 84.7681 67.084C84.808 67.1023 84.8416 67.1321 84.8646 67.1696C84.8875 67.2071 84.8988 67.2505 84.8969 67.2944Z" fill="#EB996E"/>
<path d="M84.1061 66.3859C84.1042 66.4296 84.0894 66.4717 84.0635 66.507C84.0377 66.5423 84.002 66.5691 83.9609 66.5841C83.9198 66.5991 83.8751 66.6016 83.8327 66.5912C83.7902 66.5809 83.7517 66.5581 83.7221 66.5259C83.6925 66.4937 83.6731 66.4534 83.6664 66.4102C83.6597 66.367 83.666 66.3228 83.6844 66.2831C83.7028 66.2434 83.7326 66.2101 83.7699 66.1873C83.8073 66.1646 83.8505 66.1534 83.8943 66.1552C83.9525 66.1589 84.0071 66.1849 84.0466 66.2279C84.0861 66.2709 84.1074 66.3275 84.1061 66.3859Z" fill="#EB996E"/>
<path d="M93.3652 63.731C93.2758 63.8346 92.6826 63.4156 91.8589 63.4345C91.0351 63.4533 90.4467 63.877 90.3431 63.7781C90.2396 63.6793 90.3902 63.5522 90.6491 63.3545C91.0007 63.0981 91.4238 62.9582 91.8589 62.9543C92.289 62.9427 92.7115 63.0698 93.0639 63.3168C93.3228 63.5051 93.4123 63.684 93.3652 63.731Z" fill="#263238"/>
<path d="M84.9251 63.8676C84.831 63.9665 84.2426 63.5475 83.4141 63.5663C82.5856 63.5852 82.0019 64.0135 81.8984 63.9147C81.7948 63.8158 81.9455 63.684 82.2091 63.4863C82.5618 63.2328 82.9844 63.0947 83.4188 63.0909C83.8492 63.0776 84.2722 63.2048 84.6239 63.4534C84.8828 63.6417 84.9722 63.8205 84.9251 63.8676Z" fill="#263238"/>
<path d="M88.046 68.8525C88.4787 68.7076 88.9278 68.6175 89.3829 68.5842C89.5947 68.5606 89.7924 68.5136 89.8254 68.3676C89.8383 68.1495 89.7841 67.9327 89.67 67.7463C89.4629 67.2379 89.2464 66.706 89.0157 66.1505C88.1025 63.8817 87.4388 62.0129 87.533 61.9752C87.6271 61.9376 88.4367 63.7499 89.3499 66.0234C89.5665 66.5836 89.7783 67.1155 89.9807 67.6286C90.1185 67.8798 90.1619 68.172 90.1031 68.4524C90.0746 68.5274 90.0292 68.595 89.9705 68.6497C89.9117 68.7043 89.8411 68.7448 89.7642 68.7678C89.6475 68.8001 89.5274 68.8191 89.4064 68.8242C88.956 68.8912 88.4989 68.9007 88.046 68.8525Z" fill="#263238"/>
<path d="M87.7353 70.853C87.574 70.6583 87.3658 70.5077 87.1303 70.4155C86.8948 70.3233 86.6397 70.2924 86.389 70.3258C86.2048 70.3443 86.0263 70.4001 85.8644 70.49C85.7025 70.5798 85.5607 70.7018 85.4476 70.8483C85.3401 70.9878 85.278 71.1569 85.2696 71.3328C85.2612 71.5087 85.3069 71.683 85.4005 71.8321C85.5354 71.9786 85.7112 72.0812 85.9051 72.1265C86.099 72.1718 86.302 72.1578 86.4879 72.0863C86.8765 71.9426 87.232 71.7216 87.5329 71.4367C87.6251 71.3692 87.7034 71.2844 87.7635 71.1872C87.7945 71.1414 87.811 71.0873 87.811 71.0319C87.811 70.9765 87.7945 70.9225 87.7635 70.8766" fill="#EB996E"/>
<path d="M85.6265 69.4738C85.7583 69.4738 85.7772 70.3588 86.568 70.9801C87.3588 71.6015 88.3002 71.4838 88.3096 71.6109C88.3096 71.6674 88.1025 71.7898 87.6977 71.8086C87.1728 71.8263 86.6582 71.6597 86.2432 71.3379C85.8467 71.0256 85.5868 70.5717 85.5183 70.0716C85.4665 69.7186 85.5653 69.4691 85.6265 69.4738Z" fill="#263238"/>
<g clip-path="url(#clip2_39_3000)">
<path d="M221.39 34.0267H209.417V48.244H221.39V34.0267Z" fill="#F5F5F5"/>
<path d="M206.179 34.0266C205.281 34.0266 204.554 34.7542 204.554 35.6518V46.6187C204.554 47.5162 205.281 48.2438 206.179 48.2438H209.417V34.0266H206.179Z" fill="#FF4B55"/>
<path d="M224.628 34.0266H221.39V48.2438H224.628C225.526 48.2438 226.254 47.5162 226.254 46.6186V35.6518C226.254 34.7542 225.526 34.0266 224.628 34.0266Z" fill="#FF4B55"/>
<path d="M217.674 42.778L219.894 41.5094L219.385 41.2547C219.242 41.1832 219.16 41.0289 219.181 40.8705L219.347 39.6278L218.407 39.9012C218.199 39.9617 217.984 39.8339 217.937 39.6228L217.847 39.216L216.965 40.2488C216.842 40.392 216.609 40.2827 216.641 40.0971L217.018 37.9055L216.441 38.0633C216.272 38.1094 216.094 38.0327 216.012 37.8785L215.405 36.7397V36.738L215.404 36.7388L215.404 36.738V36.7397L214.796 37.8785C214.714 38.0327 214.536 38.1094 214.367 38.0633L213.79 37.9055L214.167 40.0971C214.199 40.2826 213.966 40.392 213.844 40.2489L212.961 39.216L212.871 39.6229C212.824 39.834 212.609 39.9617 212.401 39.9013L211.461 39.6278L211.627 40.8706C211.648 41.0289 211.566 41.1832 211.424 41.2547L210.914 41.5094L213.134 42.778C213.364 42.9094 213.465 43.1882 213.372 43.4362L213.182 43.9438L215.085 43.7814C215.19 43.7724 215.28 43.8572 215.277 43.9628L215.217 45.999H215.591L215.531 43.9627C215.528 43.8571 215.617 43.7724 215.723 43.7813L217.626 43.9438L217.436 43.4362C217.343 43.1881 217.444 42.9094 217.674 42.778Z" fill="#FF4B55"/>
</g>
<defs>
<clipPath id="clip0_39_3000">
<rect width="8.34613" height="7.51151" fill="white" transform="translate(183.688 69.5121)"/>
</clipPath>
<clipPath id="clip1_39_3000">
<rect width="29" height="26" fill="white" transform="translate(72 120)"/>
</clipPath>
<clipPath id="clip2_39_3000">
<rect width="21.6999" height="21.6999" fill="white" transform="translate(204.554 30.2853)"/>
</clipPath>
</defs>
</svg>
